<svg width="1316" height="128" viewBox="0 0 1316 128" fill="none" xmlns="http://www.w3.org/2000/svg">
<path d="M1248.99 104.923C1273.46 104.923 1293.41 86.4311 1293.41 63.769C1293.41 40.9256 1273.46 22.6146 1248.99 22.6146C1224.33 22.6146 1204.39 40.9256 1204.39 63.769C1204.39 86.4311 1224.33 104.923 1248.99 104.923ZM1182.09 63.5877C1182.09 28.5974 1212 0.133789 1248.99 0.133789C1285.79 0.133789 1315.71 28.5974 1315.71 63.5877C1315.71 98.7593 1285.79 127.042 1248.99 127.042C1212 127.042 1182.09 98.7593 1182.09 63.5877Z" fill="#BFAFCF"/>
<path d="M1103.46 74.8265H1147.15L1125.4 22.613L1103.46 74.8265ZM1081.52 127.04H1058.5L1101.47 22.613V22.4317L1103.82 16.8115L1110.71 0.313477H1139.9L1146.79 16.8115L1149.33 22.613H1149.15L1192.12 127.04H1169.09L1156.4 97.126H1094.03L1081.52 127.04Z" fill="#BFAFCF"/>
<path d="M1004.75 104.923C1027.42 104.923 1045.91 86.2498 1045.91 63.5877C1045.91 41.1069 1027.42 22.6146 1004.75 22.6146H976.108V104.923H1004.75ZM953.809 0.133789H1004.75C1039.74 0.133789 1068.21 28.7787 1068.21 63.5877C1068.21 98.578 1039.74 127.042 1004.75 127.042H953.809V0.133789Z" fill="#BFAFCF"/>
<path d="M705.414 104.923C729.889 104.923 749.832 86.4311 749.832 63.769C749.832 40.9256 729.889 22.6146 705.414 22.6146C680.758 22.6146 660.815 40.9256 660.815 63.769C660.815 86.4311 680.758 104.923 705.414 104.923ZM638.516 63.5877C638.516 28.5974 668.43 0.133789 705.414 0.133789C742.217 0.133789 772.131 28.5974 772.131 63.5877C772.131 98.7593 742.217 127.042 705.414 127.042C668.43 127.042 638.516 98.7593 638.516 63.5877Z" fill="#BFAFCF"/>
<path d="M547.979 52.5286H602.731C611.071 52.5286 617.779 45.8206 617.779 37.481C617.779 29.3226 611.071 22.6146 602.731 22.6146H547.979V52.5286ZM525.68 0.133789H602.731C623.217 0.133789 640.078 16.9944 640.078 37.481C640.078 58.1488 623.217 74.8281 602.731 74.8281H595.479L640.078 127.042H611.252L566.653 74.8281H547.979V127.042H525.68V0.133789Z" fill="#BFAFCF"/>
<path d="M431.124 52.5286H485.875C494.215 52.5286 500.923 45.8206 500.923 37.481C500.923 29.3226 494.215 22.6146 485.875 22.6146H431.124V52.5286ZM408.824 0.133789H485.875C506.362 0.133789 523.223 16.9944 523.223 37.481C523.223 58.1488 506.543 74.8281 485.875 74.8281H431.124V127.042H408.824V0.133789Z" fill="#BFAFCF"/>
<path d="M237.256 0.133789H280.042C280.223 41.4695 298.172 74.8281 318.296 74.8281C338.42 74.8281 356.549 41.4695 356.731 0.133789H399.517V127.042H377.217V22.7959C370.69 65.4007 346.034 97.1276 318.296 97.1276C290.557 97.1276 266.082 65.4007 259.555 22.7959V127.042H237.256V0.133789Z" fill="#BFAFCF"/>
<path d="M144.874 74.8265H188.566L166.811 22.613L144.874 74.8265ZM122.937 127.04H99.9121L142.879 22.613V22.4317L145.236 16.8115L152.126 0.313477H181.314L188.204 16.8115L190.742 22.613H190.561L233.528 127.04H210.503L197.812 97.126H135.446L122.937 127.04Z" fill="#BFAFCF"/>
<path d="M0 0.133789H22.2995V104.923H99.3507V127.042H0V0.133789Z" fill="#BFAFCF"/>
<path d="M772.057 89.8777C772.057 88.6086 772.057 87.3396 772.238 86.0705H794.719C794.537 87.1583 794.356 88.6086 794.356 89.8777C794.356 107.464 864.155 112.359 864.155 89.8777C864.155 54.3435 772.057 101.118 772.057 37.4829C772.057 -14.9119 886.455 -10.0169 886.455 37.4829C886.455 38.752 886.455 40.2024 886.274 41.2902H863.612C863.974 40.2024 864.155 38.752 864.155 37.4829C864.155 19.8971 794.356 15.0021 794.356 37.4829C794.356 73.0171 886.455 26.2425 886.455 89.8777C886.455 142.273 772.057 137.378 772.057 89.8777Z" fill="#BFAFCF"/>
</svg>
