<svg width="402" height="194" viewBox="0 0 402 194" fill="none" xmlns="http://www.w3.org/2000/svg">
<path fill-rule="evenodd" clip-rule="evenodd" d="M197.356 187.678L197.478 187.675V176.189L197.359 176.186L181.289 175.732L181.159 175.727V187.834H181.286L197.356 187.678ZM181.408 175.967L197.232 176.417V187.447L181.408 187.601V175.967ZM151.271 177.914L151.162 177.916V180.325L151.274 180.322L153.38 180.286L153.487 180.284V177.856L153.373 177.859L151.271 177.914ZM153.269 180.079L151.385 180.113V178.123L153.269 178.075V180.079ZM136.286 178.294L136.177 178.296V180.58H136.289L138.157 180.546L138.269 180.544V178.246L138.154 178.248L136.286 178.294ZM138.045 180.337L136.401 180.366V178.503L138.045 178.463V180.337ZM141.085 178.174L140.975 178.176V180.498H141.087L143.031 180.464L143.141 180.462V178.121L143.029 178.123L141.085 178.174ZM142.922 180.255L141.202 180.284V178.381L142.922 178.335V180.255ZM146.079 178.046L145.969 178.051V180.414L146.081 180.411L148.102 180.375L148.211 180.373V177.991L148.099 177.996L146.079 178.046ZM147.99 180.168L146.193 180.202V178.256L147.99 178.207V180.168ZM159.691 145.026L154.097 141.838L154.001 141.819L93.0272 151.616L92.9102 151.635V168.867L93.0627 168.858L107.87 167.703L113.631 169.279L113.679 169.283L116.531 169.086L178.844 164.796L178.973 164.787V142.232L178.813 142.254L159.691 145.026ZM93.6778 168.545L93.1924 168.583V151.857L93.6778 151.78V168.545ZM94.9917 166.411V168.441L93.9014 168.528V151.744L154.001 142.088L154.834 142.562L99.2488 151.315L99.1547 151.33V162.116L95.0222 166.341L94.9917 166.411ZM176.841 164.669L143.059 166.995L144.592 166.026L176.841 163.668V164.669ZM178.694 164.541L177.062 164.654V158.646L178.694 157.441V164.541ZM178.694 157.174L176.882 158.512L176.841 158.545V163.454L144.546 165.814L144.493 165.833L142.612 167.024L116.508 168.822L113.682 169.016L107.92 167.445L107.87 167.44L95.2103 168.425V166.454L99.3454 162.227L99.3733 162.157V151.508L155.124 142.731L159.587 145.274L159.681 145.293L178.691 142.538V157.174H178.694ZM178.851 139.449L178.946 139.434V137.808L178.813 137.829L177.593 138.024L177.611 138.128H177.499V139.658L177.632 139.636L178.851 139.449ZM177.726 138.222L178.724 138.063V139.259L177.726 139.417V138.222ZM170.022 140.827L170.119 140.813V139.227L169.989 139.251L168.843 139.434L168.861 139.538H168.749V141.025L168.879 141.003L170.022 140.827ZM168.973 139.627L169.895 139.475V140.63L168.973 140.777V139.627ZM174.366 140.146L174.46 140.132V138.527L174.333 138.551L173.151 138.739L173.169 138.842H173.057V140.351L173.186 140.332L174.366 140.146ZM173.28 139.882V138.934L174.239 138.777V139.954L173.278 140.106L173.28 139.882ZM190.497 177.048L190.337 177.043V186.669L190.494 186.667L196.07 186.633H196.223V177.187L196.073 177.185L190.497 177.048ZM195.913 186.342L190.649 186.376V177.344L195.913 177.474V186.342ZM182.661 176.853L182.501 176.848V186.715H182.656L188.405 186.679H188.56V176.995H188.41L182.661 176.853ZM188.255 186.39L182.811 186.424V177.149L188.255 177.286V186.39ZM87.2478 82.8589L87.1359 82.8709L75.8923 88.6069L75.9279 88.8764L79.1225 89.6126L79.2318 89.6006L90.5695 83.9512L90.5365 83.6817L87.2478 82.8589ZM79.1378 89.3143L76.3879 88.6863L87.2249 83.1548L90.0688 83.8694L79.1378 89.3143ZM155.569 51.5275L155.635 51.554L155.698 51.5227L158.885 49.9372L159.173 49.7952L158.875 49.6749L155.208 48.1976L155.137 48.1711L155.071 48.2024L151.889 49.8241L151.601 49.9708L151.904 50.0887L155.569 51.5275ZM155.154 48.4935L158.453 49.8193L155.622 51.2292L152.323 49.9324L155.154 48.4935ZM110.975 73.7424L111.095 73.7328L113.301 72.6357L113.275 72.3662L109.814 71.346L109.753 71.3268L109.697 71.3556L107.504 72.4744L107.176 72.6405L107.529 72.7439L110.975 73.7424ZM109.783 71.6444L112.826 72.5394L111.003 73.4441L107.971 72.5635L109.783 71.6444ZM124.09 67.2076L124.151 67.2293L124.209 67.198L126.679 65.9661L126.997 65.8073L126.656 65.6967L123.116 64.5514L123.055 64.5345L122.997 64.5634L120.542 65.8194L120.229 65.9782L120.567 66.084L124.09 67.2076ZM123.083 64.8546L126.222 65.8675L124.128 66.9141L121.002 65.918L123.083 64.8546ZM138.84 59.8596L138.904 59.8837L138.962 59.8524L141.758 58.4593L142.061 58.3077L141.74 58.1947L138.124 56.8978L138.06 56.8762L137.999 56.905L135.219 58.327L134.921 58.481L135.242 58.5941L138.84 59.8596ZM138.086 57.1937L141.313 58.3486L138.879 59.5613L135.666 58.428L138.086 57.1937ZM271.002 179.083L270.875 179.081L269.123 179.035L268.991 179.033V184.807H271.002V179.083ZM270.742 184.562H269.251V179.285L270.742 179.321V184.562ZM266.933 178.982L266.808 178.98L264.996 178.934L264.859 178.932V184.807H266.93V178.982H266.933ZM266.676 184.562H265.123V179.184L266.676 179.225V184.562ZM260.711 178.831L260.579 178.828V184.81H262.721V178.881L262.592 178.879L260.711 178.831ZM262.46 184.562H260.843V179.078L262.46 179.122V184.562ZM102.845 161.902H103.153V158.62H102.845V161.902ZM109.377 161.209H109.687V157.831H109.377V161.209ZM106.063 161.56H106.373V158.23H106.063V161.56ZM112.795 160.846H113.105V157.415H112.795V160.846ZM260.246 112.982L260.36 112.992L280.954 109.012L281.132 108.976V98.7724L280.995 98.717L279.073 97.9447L278.936 97.9351L258.266 102.509L258.096 102.545V112.318L258.248 112.369L260.246 112.982ZM279.213 98.4596L280.69 99.0539V108.502L279.213 107.978V98.4596ZM278.969 108.341L280.11 108.745L260.332 112.566L259.189 112.212L278.969 108.341ZM258.543 102.884L278.768 98.409V107.954L258.543 111.914V102.884ZM373.071 148.298L373.58 148.454V124.774L373.371 124.671L308.641 92.7284L308.07 92.4469V128.554L308.344 128.636L373.071 148.298ZM316.479 130.335L315.57 130.06V121.757L316.479 122.077V130.335ZM316.479 121.853L315.57 121.533V109.453L316.479 109.835V121.853ZM316.479 109.604L315.57 109.222V108.291L316.479 108.678V109.604ZM328.862 134.095L318.947 131.085V122.948L328.862 126.434V134.095ZM328.862 126.206L318.947 122.722V110.875L328.862 115.059V126.206ZM328.862 114.833L318.947 110.649V109.739L328.862 113.991V114.833ZM329.906 134.413L329.085 134.16V126.511L329.906 126.8V134.413ZM329.906 126.576L329.085 126.288V115.155L329.906 115.501V126.576ZM329.906 115.271L329.085 114.922V114.082L329.906 114.433V115.271ZM339.056 137.192L332.064 135.065V127.558L339.056 130.019V137.192ZM340.598 137.659L339.282 137.262V130.039L340.598 129.88V137.659ZM340.598 129.666L339.188 129.837L332.067 127.334V116.409L340.598 120.013V129.666ZM340.598 119.777L332.067 116.18V115.357L340.598 119.014V119.777ZM341.445 137.918L340.822 137.731V129.853L341.445 129.776V137.918ZM341.445 129.562L340.822 129.639V120.104L341.445 120.366V129.562ZM341.445 120.138L340.822 119.876V119.113L341.445 119.38V120.138ZM350.805 140.76L343.353 138.498L343.351 129.543L350.805 128.638V140.76ZM350.805 128.424L343.351 129.331L343.348 121.17L350.805 124.317V128.424ZM350.805 124.086L343.348 120.942V120.196L350.805 123.393V124.086ZM351.466 140.962L351.029 140.83V128.612L351.466 128.559V140.962ZM351.466 128.347L351.029 128.4V124.411L351.466 124.594V128.347ZM351.466 124.368L351.029 124.185V123.492L351.466 123.677V124.368ZM359.764 143.484L353.171 141.479V128.355L358.765 127.674L359.764 128.095V143.484ZM353.171 128.143V125.316L358.374 127.51L353.171 128.143ZM359.764 127.866L359.187 127.621L359.764 127.553V127.866ZM359.764 127.339L358.798 127.457L353.174 125.085V124.409L359.766 127.233V127.339H359.764ZM360.252 143.63L359.985 143.549V128.191L360.252 128.302V143.63ZM360.252 128.073L359.985 127.96V127.524L360.252 127.491V128.073ZM372.029 147.208L361.853 144.116V126.627L372.029 125.376V147.208ZM372.253 125.345L372.799 125.28V147.442L372.253 147.278V125.345ZM308.852 93.6644L372.123 124.885L371.935 124.907L308.852 94.1167V93.6644ZM308.852 94.3573L371.546 124.957L361.64 126.177L308.85 102.973V94.3573H308.852ZM308.852 103.498L361.35 126.572V143.965L360.559 143.722V127.255L360.47 127.214L353.08 124.045L352.861 123.954V141.383L351.776 141.054V123.487L351.687 123.446L343.259 119.832L343.041 119.741V119.967L343.046 138.4L341.757 138.008V119.185L341.666 119.147L331.973 114.999L331.754 114.905V134.976L330.214 134.507V114.246L330.125 114.205L318.858 109.378L318.642 109.282V130.989L316.79 130.424V108.488L316.701 108.449L308.855 105.083V103.498H308.852ZM308.852 105.406L315.346 108.192V109.123L308.852 106.383V105.406ZM308.852 106.618L315.346 109.359V121.454L308.852 119.171V106.618ZM308.852 119.394L315.346 121.675V129.988L308.852 128.018V119.394ZM361.472 191.207L361.416 191.195H340.202L320.752 184.555L320.698 184.547H315.196V182.918H314.886V192.795H309.404V191.871H309.053V192.795H303.569V179.269H303.259V184.55H275.482V167.696L281.025 165.083L281.074 165.059L281.084 165.006L281.252 164.245L285.226 162.395L285.356 162.335V158.658L309.053 157.085V157.547H309.404V157.063L314.866 156.7V157.046H315.219V156.676L376.723 152.59L377.089 152.566V123.287L376.886 123.182L324.602 95.9549L353.141 90.1347L353.41 90.0818V64.8642L353.296 64.7679L280.563 3.07491L280.395 2.93055L280.197 3.02438L219.391 31.1292V27.4287H219.132V31.2519L219.056 31.2856L178.117 8.47885L178.297 8.37058L178.109 8.09148L177.904 8.21659V2.44212C178.208 2.41325 178.491 2.30257 178.694 2.10528C178.93 1.88152 179.078 1.57354 179.078 1.23429C179.078 0.895043 178.93 0.584665 178.694 0.363311C178.46 0.141956 178.132 0 177.774 0C177.416 0 177.09 0.13955 176.854 0.363311C176.62 0.587071 176.47 0.895043 176.47 1.23429C176.47 1.57354 176.617 1.88392 176.854 2.10528C177.057 2.30257 177.339 2.41325 177.644 2.44212V8.21659L174.104 6.24606L173.972 6.45779L177.535 8.44035L177.151 8.67615L177.339 8.95525L177.644 8.76998V18.9691L177.586 19.0028L107.443 59.0271L107.262 59.1282V62.2199L83.0619 75.6889V75.085H82.7112V75.8814L57.169 90.101L56.986 90.2021V93.7847L57.2732 93.8448L82.7112 99.1573V100.062H83.0619V99.2295L90.7703 100.839L83.0619 104.01V103.38H82.7112V104.157L57.2045 114.652L56.9834 114.744V118.372L57.2935 118.422L71.1371 120.533L20.0553 138.315L19.8138 138.402V158.415L20.1645 158.437L78.51 161.709H78.5787L88.6913 160.473V175.106L89.1031 175.118L133.285 176.208V178.369L131.821 178.417L131.671 178.422V183.222L130.769 183.25L130.619 183.255V184.555H79.4682L47.5417 189.54H-62V189.831H47.5519L47.5748 189.829L79.5038 184.846H130.614V190.536H75.5415V192.798H-62V193.219H368.588V192.798H365.531L361.472 191.207ZM280.878 164.914L275.32 167.532L275.259 167.563V184.547H274.824V167.238L280.997 164.363L280.878 164.914ZM275.259 184.841V188.816H274.824V184.841H275.259ZM284.894 162.058L274.491 166.904L274.362 166.964V190.072H251.193V183.21L251.178 183.161L249.981 181.059V174.468L262.82 174.093L263.232 174.079V148.349L284.894 151.78V162.058ZM218.878 174.589L151.124 172.038L158.349 171.677L225.918 174.379L218.878 174.589ZM224.893 175.205V191.859H217.937V175.409L224.893 175.205ZM165.918 187.317L163.318 184.87V173.571L198.96 174.801V191.234H181.007L179.052 190.541L179.001 190.531H165.951V187.346L165.918 187.317ZM165.216 188.149L162.614 185.702V173.547L163.094 173.564V184.956L163.127 184.988L165.73 187.435V190.531H165.252V188.176L165.216 188.149ZM162.426 185.82L165.028 188.267V190.531H161.76V173.516L162.39 173.537V185.786L162.426 185.82ZM213.584 191.467V191.859H182.763L181.662 191.467H213.584ZM199.58 191.234V183.838H201.593L208.915 188.881L209.029 188.919H213.584V191.234H199.58ZM209.09 188.551L201.771 183.506L201.656 183.469H199.58V182.637H203.537L211.042 188.019L211.136 188.051H213.584V188.551H209.09ZM199.58 175.154V174.772L205.507 174.983L199.58 175.154ZM208.559 175.686V185.873L203.68 182.375L203.585 182.343H200.421V175.924L208.559 175.686ZM200.198 175.931V182.343H199.58V175.948L200.198 175.931ZM208.78 186.034V175.681L213.02 175.556V187.759H211.19L208.78 186.034ZM213.243 187.759V175.549L213.584 175.537V187.759H213.243ZM208.757 174.885L199.58 174.558V174.235L199.283 174.225L161.462 172.919H161.44L157.772 173.078L141.644 172.505L148.724 172.154L215.754 174.675L208.757 174.885ZM113.448 173.908L120.224 173.571L135.44 174.045L133.58 174.124L133.282 174.136V174.485L113.448 173.908ZM133.282 174.695V175.169L104.123 174.372L110.767 174.043L133.282 174.695ZM145.258 173.622L138.248 173.925L122.811 173.444L129.666 173.102L145.258 173.622ZM132.22 172.974L139.181 172.63L155.111 173.193L148.025 173.501L132.22 172.974ZM133.9 174.697L161.142 173.521V190.531H133.9V174.697ZM213.894 191.467H217.495V191.859H213.894V191.467ZM213.894 191.234V175.53L217.495 175.424V191.234H213.894ZM161.274 134.706V135.421L160.359 135.582L143.268 133.09V96.376L161.351 100.945H161.274V102.011H161.625V101.015L217.34 115.097V136.865L199.27 133.768V132.837H198.919V133.71L184.672 131.268H184.519L161.625 135.361V134.709H161.274V134.706ZM86.8437 145.031L91.1134 144.172L104.522 145.57L100.095 146.359L86.8437 145.031ZM99.3327 146.496L94.9485 147.28L81.9284 146.02L86.1396 145.173L99.3327 146.496ZM91.8072 144.03L96.1253 143.161L109.755 144.629L105.277 145.43L91.8072 144.03ZM96.8115 143.026L101.188 142.143L115.021 143.691L110.492 144.499L96.8115 143.026ZM101.867 142.009L106.301 141.116L120.343 142.743L115.753 143.565L101.867 142.009ZM106.967 140.981L111.458 140.077L125.698 141.785L121.06 142.613L106.967 140.981ZM112.116 139.944L116.666 139.03L131.099 140.818L126.407 141.655L112.116 139.944ZM117.324 138.895L121.939 137.969L136.558 139.841L131.803 140.69L117.324 138.895ZM122.585 137.839L127.269 136.896L142.068 138.852L137.252 139.716L122.585 137.839ZM127.907 136.768L132.657 135.813L147.634 137.861L142.752 138.734L127.907 136.768ZM133.282 135.688L138.114 134.716L153.253 136.855L148.31 137.743L133.282 135.688ZM138.736 134.586L142.909 133.749L158.166 135.977L153.922 136.737L138.736 134.586ZM64.4504 116L77.9128 118.167L75.1247 119.139L61.7666 117.049L64.4504 116ZM61.3498 116.986L61.1617 116.952L63.8328 115.903L64.0387 115.935L61.3498 116.986ZM64.2166 115.754L66.9004 114.698L67.1215 114.734L64.425 115.785L64.2166 115.754ZM64.8367 115.853L67.5307 114.801L81.1278 117.053L78.3296 118.028L64.8367 115.853ZM67.2842 114.546L69.9756 113.488L70.212 113.531L67.5078 114.585L67.2842 114.546ZM67.9145 114.65L70.6187 113.598L84.3454 115.932L81.5446 116.909L67.9145 114.65ZM70.3543 113.341L73.0534 112.277L73.3076 112.323L70.5932 113.382L70.3543 113.341ZM70.9999 113.449L73.7117 112.393L87.5654 114.811L84.7622 115.788L70.9999 113.449ZM73.427 112.131L76.1388 111.062L76.4108 111.113L73.6862 112.176L73.427 112.131ZM74.0878 112.246L76.8098 111.183L90.7856 113.69L87.9695 114.669L74.0878 112.246ZM76.515 110.918L79.2318 109.847L79.519 109.9L76.7869 110.969L76.515 110.918ZM77.1834 111.038L79.913 109.975L94.0107 112.566L91.1897 113.548L77.1834 111.038ZM79.608 109.701L82.335 108.627L82.6375 108.683L79.8977 109.753L79.608 109.701ZM80.2916 109.826L83.0314 108.757L97.2435 111.44L94.4148 112.424L80.2916 109.826ZM82.7035 108.483L85.4433 107.403L85.7635 107.463L83.006 108.538L82.7035 108.483ZM83.4025 108.615L86.1524 107.542L100.484 110.314L97.6476 111.301L83.4025 108.615ZM85.8143 107.263L88.5693 106.176L88.9023 106.243L86.132 107.323L85.8143 107.263ZM86.5209 107.398L89.2861 106.318L103.724 109.183L100.883 110.177L86.5209 107.398ZM88.9328 106.034L91.6979 104.946L92.0461 105.016L89.2708 106.099L88.9328 106.034ZM89.6546 106.176L92.4248 105.095L106.972 108.052L104.118 109.049L89.6546 106.176ZM245.945 95.6517L243.126 96.3519L175.812 72.5923L178.745 71.4495L245.945 95.6517ZM178.135 70.4919V19.881L178.968 20.3165V70.7902L178.135 70.4919ZM273.106 88.5371V86.9178L276.862 88.5828L274.529 89.1555L273.106 88.5371ZM274.191 89.2397L273.109 89.5067V88.7705L274.191 89.2397ZM273.106 86.6845V85.0243L279.526 87.9236L277.198 88.4962L273.106 86.6845ZM273.106 84.7909V83.6072L272.9 83.5109L266.638 80.6574V80.116L282.187 87.2667L279.866 87.8394L273.106 84.7909ZM272.379 84.0426V89.6848L266.638 91.0995V81.4273L272.379 84.0426ZM266.638 79.885V78.0901L284.83 86.6195L282.517 87.1921L266.638 79.885ZM266.638 77.8519V76.0113L287.466 85.9699L285.16 86.5401L266.638 77.8519ZM266.638 75.7755V73.8868L290.093 85.3202L287.793 85.8881L266.638 75.7755ZM266.638 73.651V71.7214L292.711 84.6802L290.419 85.2457L266.638 73.651ZM266.638 71.4832V69.503L295.321 84.0378L293.034 84.6008L266.638 71.4832ZM266.638 69.2624V67.2317L297.926 83.3978L295.642 83.9584L266.638 69.2624ZM266.638 66.9911V64.9075L317.669 91.7949V92.341L299.799 83.0369L299.52 83.0056L298.242 83.3184L266.638 66.9911ZM266.638 64.6645V62.5255L317.669 89.9494V91.5543L266.638 64.6645ZM266.638 62.2825V60.0858L317.669 88.0559V89.7064L266.638 62.2825ZM251.811 51.7176L254.423 50.7624L317.664 86.1215V87.8177L251.811 51.7176ZM266.414 59.9655V62.167L248.939 52.7739L251.546 51.8187L266.414 59.9655ZM266.414 62.4052V64.5466L246.067 53.8229L248.669 52.8701L266.414 62.4052ZM266.414 64.7872V66.8756L243.192 54.8767L245.797 53.924L266.414 64.7872ZM266.414 67.1138V69.1493L240.323 55.9282L242.923 54.9778L266.414 67.1138ZM266.414 69.3899V71.3725L237.454 56.9796L240.051 56.0268L266.414 69.3899ZM266.414 71.6107V73.5427L238.93 60.1435L237.055 57.124L237.179 57.0807L266.414 71.6107ZM266.414 73.7809V75.6697L241.035 63.5312L239.139 60.4852L266.414 73.7809ZM266.414 75.903V77.7461L243.058 66.789L241.241 63.8657L266.414 75.903ZM266.414 77.9843V79.7816L245.004 69.9313L243.264 67.1234L266.414 77.9843ZM266.414 80.015V80.5587L245.762 71.1535L245.208 70.2609L266.414 80.015ZM299.223 83.8381V130.585L231.992 139.372L218.09 136.99V136.22L289.392 125.672L289.527 125.039L279.32 119.132L279.063 119.086L256.787 122.804L228.713 106.573L228.436 106.529L206.328 111.582L199.27 109.799V109.332H198.919V109.713L196.54 109.111L299.223 83.8381ZM303.591 144.309V143.515C304.702 143.568 305.848 143.642 307.033 143.746C309.668 143.979 312.385 144.328 314.863 144.747V145.466H315.216V144.802C316.276 144.987 317.303 145.18 318.238 145.389C320.782 145.962 322.394 146.508 323.105 146.98C323.326 147.124 323.443 147.247 323.458 147.348C323.469 147.413 323.405 147.487 323.273 147.567C322.884 147.793 322.061 147.968 320.81 148.074C318.581 148.26 315.412 148.192 311.963 147.913H311.961C308.58 147.639 304.944 147.155 301.665 146.508C298.651 145.916 296.508 145.266 295.517 144.694C295.232 144.528 295.057 144.379 295.006 144.251C294.978 144.181 295.024 144.107 295.141 144.027C295.456 143.82 296.155 143.652 297.268 143.539C298.806 143.383 300.913 143.385 303.241 143.493V144.304H303.591V144.309ZM314.866 148.519V148.95L311.587 148.298C311.699 148.308 311.816 148.327 311.925 148.337C312.937 148.416 313.915 148.474 314.866 148.519ZM294.592 144.403C294.678 144.619 294.915 144.841 295.288 145.057C295.291 145.057 295.293 145.06 295.298 145.06L255.171 137.088L260.823 136.347L295.276 143.5C295.118 143.558 294.991 143.621 294.887 143.686C294.577 143.89 294.483 144.131 294.592 144.403ZM297.22 143.123C296.595 143.188 296.091 143.272 295.7 143.373L261.463 136.263L267.21 135.515L301.741 143.014C299.998 142.969 298.44 143 297.22 143.123ZM213.027 113.276L211.985 113.014L214.285 112.504V113.002L213.027 113.276ZM214.285 113.218V113.596L213.485 113.394L214.285 113.218ZM210.491 112.638L207.799 111.96L228.459 107.239L230.213 108.252L210.491 112.638ZM232.172 132.185C230.988 131.059 229.395 130.104 227.554 129.37V110.307L232.058 109.32L234.107 110.504V131.889L232.172 132.185ZM234.104 132.187V133.155L227.552 134.124V129.687C229.334 130.414 230.866 131.345 232.005 132.445L232.061 132.498L232.139 132.483L234.104 132.187ZM227.552 110.093V109.554L231.1 108.765L231.789 109.164L227.552 110.093ZM226.558 128.982C224.845 128.405 222.942 128.022 220.929 127.876L220.934 111.763L227.242 110.377V129.25C227.013 129.161 226.795 129.062 226.558 128.982ZM227.242 129.565V134.17L220.926 135.103L220.929 128.167C222.904 128.314 224.774 128.689 226.454 129.259C226.728 129.351 226.98 129.464 227.242 129.565ZM220.934 111.544V111.024L227.242 109.621V110.16L220.934 111.544ZM220.626 111.091V111.609L214.593 112.929V112.431L220.626 111.091ZM214.593 113.153L220.626 111.827L220.624 127.864C220.123 127.832 219.622 127.806 219.112 127.806C218.893 127.806 218.662 127.808 218.42 127.816C218.306 127.818 218.199 127.823 218.09 127.828V114.558L217.813 114.489L214.595 113.678V113.153H214.593ZM220.624 128.155L220.621 135.149L218.09 135.522V128.121C218.204 128.116 218.321 128.107 218.433 128.104C218.644 128.097 218.873 128.095 219.112 128.095C219.622 128.095 220.123 128.126 220.624 128.155ZM262.391 145.384V173.28L185.02 169.603V132.132L262.391 145.384ZM241.261 131.1V132.096L234.417 133.106V132.137L241.261 131.1ZM234.417 131.843V110.682L241.261 114.638V130.801L234.417 131.843ZM248.71 129.964V130.994L241.571 132.048V131.052L248.71 129.964ZM241.571 130.756V114.818L248.71 118.947V129.671L241.571 130.756ZM256.487 128.783V129.846L249.018 130.948V129.918L256.487 128.783ZM249.02 129.622V119.125L256.49 123.444V128.487L249.02 129.622ZM273.398 125.915L273.396 122.792L281.872 121.425L281.966 121.478L281.968 124.611L273.398 125.915ZM281.968 124.909V126.078L273.398 127.344V126.213L281.968 124.909ZM261.405 124.028L258.378 123.242L279.053 119.796L280.924 120.879L261.405 124.028ZM264.917 127.207V124.161L273.086 122.845V125.963L264.917 127.207ZM273.088 126.259V127.39L264.92 128.595V127.498L273.088 126.259ZM261.293 124.714L261.448 124.721L264.61 124.209V127.253L256.797 128.441V123.552L261.293 124.714ZM264.61 127.546V128.643L256.797 129.798V128.735L264.61 127.546ZM286.66 124.194L288.297 125.138L282.271 126.03V124.861L286.66 124.194ZM282.273 124.565V121.659L286.256 123.961L282.273 124.565ZM240.033 97.6463L236.826 98.4331L236.315 98.2599L239.515 97.4635L240.033 97.6463ZM239.891 97.3745L243.116 96.5732L243.64 96.7561L240.409 97.5525L239.891 97.3745ZM197.501 107.684L185.711 104.523L188.746 103.705L200.526 106.936L199.273 107.244V107.193H198.922V107.333L197.501 107.684ZM198.922 107.55V107.766L198.335 107.91L197.923 107.797L198.922 107.55ZM161.628 93.0123V92.1004L195.193 101.71L192.133 102.535L158.441 93.0941L161.274 92.1341V93.0099H161.628V93.0123ZM199.273 101.799V100.95L210.913 104.354L207.855 105.112L196.055 101.734L198.924 100.962V101.799H199.273ZM207.438 105.216L204.396 105.974L192.596 102.665L195.651 101.842L207.438 105.216ZM203.974 106.077L200.94 106.833L189.145 103.596L192.192 102.776L203.974 106.077ZM161.569 94.1937H161.274V95.262H161.625V94.2105L191.727 102.646L188.674 103.469L155.048 94.249L158.085 93.2192L161.569 94.1937ZM188.275 103.575L185.236 104.398L151.673 95.3919L154.692 94.3693L188.275 103.575ZM199.273 107.463L200.94 107.049L201.362 107.165L199.273 107.679V107.463ZM201.359 106.946L204.389 106.193L204.821 106.313L201.784 107.061L201.359 106.946ZM204.81 106.089L207.848 105.334L208.29 105.459L205.243 106.209L204.81 106.089ZM208.262 105.23L211.314 104.472L211.767 104.602L208.707 105.355L208.262 105.23ZM211.723 104.369L214.791 103.606L215.251 103.743L212.176 104.501L211.723 104.369ZM215.198 103.507L218.28 102.742L218.748 102.887L215.66 103.647L215.198 103.507ZM218.68 102.641L221.783 101.871L222.263 102.021L219.152 102.786L218.68 102.641ZM222.177 101.773L225.295 101L225.781 101.157L222.66 101.924L222.177 101.773ZM225.689 100.902L228.828 100.12L229.321 100.279L226.174 101.056L225.689 100.902ZM229.212 100.026L232.371 99.2415L232.871 99.4076L229.71 100.187L229.212 100.026ZM232.757 99.1453L235.931 98.3585L236.442 98.5294L233.258 99.3113L232.757 99.1453ZM235.941 98.1372L168.711 75.3617L171.941 74.1033L239.146 97.3408L235.941 98.1372ZM235.56 98.231L232.378 99.0202L165.204 76.7259L168.406 75.4796L235.56 98.231ZM231.992 99.1164L228.833 99.9008L161.717 78.0877L164.891 76.851L231.992 99.1164ZM228.444 99.997L225.3 100.779L158.255 79.4327L161.404 78.208L228.444 99.997ZM224.909 100.875L221.788 101.652L154.819 80.7753L157.94 79.5602L224.909 100.875ZM221.391 101.751L218.286 102.523L151.403 82.1082L154.501 80.9028L221.391 101.751ZM217.887 102.622L214.801 103.39L148.01 83.4291L151.085 82.2309L217.887 102.622ZM214.395 103.491L211.319 104.253L144.635 84.7452L147.69 83.5542L214.395 103.491ZM198.67 100.772L195.592 101.604L141.283 86.0541L144.315 84.8727L198.67 100.772ZM161.074 91.9417L158.019 92.9786L137.946 87.3558L140.958 86.1816L161.074 91.9417ZM157.663 93.0989L154.621 94.1287L134.624 88.6478L137.615 87.4809L157.663 93.0989ZM154.265 94.2514L151.243 95.2764L131.325 89.9326L134.296 88.7729L154.265 94.2514ZM150.882 95.3991L147.873 96.4193L128.036 91.215L130.99 90.0625L150.882 95.3991ZM147.944 96.6551L165.999 101.393L147.652 96.7561L147.944 96.6551ZM148.308 96.5323L151.312 95.5146L184.832 104.506L181.802 105.322L148.308 96.5323ZM185.307 104.631L197.079 107.788L194.169 108.512L188.522 107.083L182.28 105.447L185.307 104.631ZM197.504 107.903L197.915 108.016L195.018 108.729L194.609 108.623L197.504 107.903ZM244.016 96.6647L243.49 96.4818L246.303 95.7817L246.832 95.9741L244.016 96.6647ZM242.753 96.4433L239.522 97.2445L172.246 73.983L175.507 72.7102L242.753 96.4433ZM171.939 73.8772L171.288 73.651L174.544 72.3734L175.204 72.6044L171.939 73.8772ZM171.634 73.9951L168.403 75.2534L167.765 75.0369L170.988 73.7689L171.634 73.9951ZM168.091 75.3761L164.886 76.6249L164.258 76.4179L167.453 75.1596L168.091 75.3761ZM164.578 76.7476L161.399 77.9867L160.781 77.7846L163.953 76.5382L164.578 76.7476ZM161.089 78.107L157.932 79.3364L157.327 79.1416L160.471 77.9049L161.089 78.107ZM157.622 79.4567L154.496 80.6742L153.901 80.4889L157.017 79.2619L157.622 79.4567ZM154.181 80.7993L151.078 82.0071L150.493 81.8291L153.586 80.6116L154.181 80.7993ZM150.76 82.1298L147.68 83.3329L147.105 83.1596L150.173 81.9542L150.76 82.1298ZM147.36 83.458L144.305 84.649L143.743 84.4854L146.788 83.2872L147.36 83.458ZM143.979 84.7741L140.945 85.9578L140.393 85.799L143.418 84.6105L143.979 84.7741ZM140.62 86.0854L137.605 87.2571L137.066 87.1055L140.068 85.9266L140.62 86.0854ZM137.277 87.387L134.286 88.5515L133.76 88.4096L136.744 87.2354L137.277 87.387ZM133.956 88.6815L130.98 89.8388L130.466 89.6992L133.43 88.5347L133.956 88.6815ZM130.647 89.9735L127.691 91.126L127.19 90.9937L130.133 89.8364L130.647 89.9735ZM127.358 91.2535L124.42 92.3988L123.929 92.2737L126.857 91.1236L127.358 91.2535ZM124.082 92.5311L121.162 93.6692L120.686 93.5489L123.594 92.406L124.082 92.5311ZM120.819 93.8015L117.916 94.9323L117.454 94.8193L120.346 93.6836L120.819 93.8015ZM117.573 95.0671L114.683 96.1931L114.236 96.0848L117.113 94.954L117.573 95.0671ZM114.34 96.3278L111.468 97.4466L111.031 97.3432L113.893 96.2196L114.34 96.3278ZM111.123 97.5814L108.264 98.6954L107.842 98.5967L110.686 97.4779L111.123 97.5814ZM107.915 98.8349L105.071 99.9417L104.662 99.8503L107.491 98.7387L107.915 98.8349ZM104.718 100.079L101.889 101.181L101.495 101.094L104.314 99.9874L104.718 100.079ZM101.534 101.32L98.7201 102.418L98.3389 102.336L101.14 101.234L101.534 101.32ZM98.3618 102.555L95.5585 103.649L95.1925 103.572L97.9831 102.475L98.3618 102.555ZM95.1976 103.789L92.407 104.876L92.0563 104.807L94.8342 103.714L95.1976 103.789ZM92.7908 104.956L95.5763 103.871L110.226 106.919L107.361 107.918L92.7908 104.956ZM95.9372 103.726L98.7379 102.636L113.486 105.784L110.612 106.782L95.9372 103.726ZM99.0963 102.497L101.91 101.402L116.76 104.648L113.875 105.654L99.0963 102.497ZM102.263 101.26L105.089 100.161L120.036 103.505L117.144 104.513L102.263 101.26ZM105.44 100.026L108.279 98.9167L123.322 102.362L120.415 103.375L105.44 100.026ZM108.63 98.782L111.486 97.668L126.618 101.217L123.698 102.23L108.63 98.782ZM111.832 97.5309L114.704 96.4145L129.92 100.062L126.989 101.082L111.832 97.5309ZM115.047 96.2773L117.929 95.1537L133.236 98.9095L130.288 99.9369L115.047 96.2773ZM118.272 95.0214L121.172 93.8905L136.558 97.7522L133.6 98.782L118.272 95.0214ZM121.515 93.7582L124.43 92.6201L139.895 96.5877L136.924 97.6223L121.515 93.7582ZM124.771 92.4902L127.706 91.3474L147.512 96.542L147.21 96.6454L142.998 95.5796L142.775 95.5916L140.261 96.4674L124.771 92.4902ZM184.6 170.378L252.464 173.602L249.04 173.701L180.031 170.604L184.6 170.378ZM249.772 181.138L250.972 183.241V190.074H249.145V174.495L249.755 174.478V181.085L249.772 181.138ZM248.835 174.505V190.074H248.014V174.531L248.835 174.505ZM246.181 173.788L239.004 173.999L170.309 171.088L177.784 170.717L246.181 173.788ZM247.571 174.543V190.076H235.426V174.902L247.571 174.543ZM236.053 174.086L228.968 174.293L160.687 171.564L168.03 171.199L236.053 174.086ZM235.199 174.904V190.072H234.396V174.926L235.199 174.904ZM234.091 174.938V190.076H230.965L227.43 187.637L227.344 187.608H226.063V175.173L234.091 174.938ZM225.836 175.178V187.608H225.285V175.195L225.836 175.178ZM225.285 187.901H227.29L230.825 190.336L230.914 190.368H278.07L281.399 191.862H225.285V187.901ZM285.163 151.375L263.235 147.904V147.519L303.241 153.974V154.963L285.356 152.184V151.407L285.163 151.375ZM285.773 157.889L285.356 157.836V157.025L289.829 157.619L285.773 157.889ZM290.894 157.544L285.356 156.811V155.952L294.95 157.275L290.894 157.544ZM295.997 157.21L285.356 155.74V154.828L300.069 156.941L295.997 157.21ZM303.241 156.726L301.088 156.871L285.356 154.614V153.642L303.241 156.313V156.726ZM303.591 156.705V156.363L305.165 156.601L303.591 156.705ZM306.148 156.534L303.591 156.154V156.101H303.238V156.103L285.354 153.43V152.4L310.245 156.264L306.148 156.534ZM311.208 156.197L303.337 154.977H303.594V154.032L309.056 154.917V155.333H309.406V154.972L315.318 155.925L311.208 156.197ZM316.258 155.863L309.404 154.758V154.284H309.053V154.701L263.232 147.302V145.986L303.238 152.711V152.843H303.591V152.771L314.863 154.667V155.114H315.216V154.727L320.371 155.593L316.258 155.863ZM321.291 155.528L315.219 154.508V154.198H314.866V154.45L303.594 152.557V151.833H303.241V152.499L263.235 145.774V144.728L262.887 144.67L234.447 139.798L235.969 139.598L309.056 152.393V153.127H309.406V152.453L325.42 155.256L321.291 155.528ZM326.302 155.196L309.404 152.237V152.073H309.053V152.177L236.666 139.504L242.084 138.797L303.238 149.958V150.714H303.591V150.023L330.443 154.924L326.302 155.196ZM331.314 154.862L309.404 150.863V149.862H309.053V150.798L303.591 149.802V149.696H303.238V149.739L242.776 138.705L248.268 137.986L303.238 148.452V148.575H303.591V148.519L314.863 150.668V151.255H315.216V150.731L335.457 154.585L331.314 154.862ZM336.296 154.532L315.216 150.516V150.336H314.863V150.451L303.591 148.303V147.562H303.238V148.238L248.936 137.902L254.515 137.17L296.104 145.435C297.291 145.926 299.146 146.443 301.576 146.924C303.962 147.396 306.522 147.742 309.056 148.024V148.705H309.406V148.082L314.868 149.169V149.328H315.221V149.241L340.474 154.26L336.296 154.532ZM341.28 154.198L315.216 149.02V148.534C316.843 148.601 318.335 148.608 319.626 148.556L345.47 153.921L341.28 154.198ZM346.261 153.87L320.467 148.515C320.587 148.507 320.731 148.505 320.848 148.495C322.167 148.385 323.059 148.187 323.507 147.923C323.583 147.875 323.619 147.822 323.674 147.771L350.457 153.589L346.261 153.87ZM351.224 153.541L323.84 147.596C323.893 147.499 323.918 147.396 323.901 147.285C323.863 147.069 323.685 146.85 323.357 146.636C322.602 146.137 320.942 145.565 318.34 144.983C315.138 144.266 311 143.674 307.076 143.327C305.655 143.202 304.288 143.12 302.979 143.065L267.827 135.433L273.658 134.67L355.428 153.262L351.224 153.541ZM356.165 153.211L274.262 134.589L280.184 133.816L360.402 152.93L356.165 153.211ZM361.113 152.882L280.771 133.742L286.772 132.955L365.363 152.6L361.113 152.882ZM366.047 152.554L287.346 132.88L293.446 132.084L370.314 152.273L366.047 152.554ZM370.975 152.227L294.002 132.012L299.583 131.283L374.5 151.996L370.975 152.227ZM376.304 123.723V151.727L300 130.633V83.9849L376.304 123.723ZM317.887 92.4589V91.9128L324.406 95.3486L323.707 95.4905L317.887 92.4589ZM324.737 95.2812L317.89 91.6722V90.0698L326.806 94.8602L324.737 95.2812ZM327.126 94.7928L317.887 89.8267V88.1786L329.182 94.3717L327.126 94.7928ZM329.51 94.3068L317.89 87.938V86.2466L331.563 93.8881L329.51 94.3068ZM331.881 93.8232L254.685 50.6638L257.303 49.7038L333.919 93.4045L331.881 93.8232ZM334.24 93.342L257.567 49.6075L260.185 48.6499L336.273 92.9257L334.24 93.342ZM336.59 92.8632L260.447 48.5537L263.07 47.5913L338.619 92.4469L336.59 92.8632ZM338.931 92.3868L263.329 47.4974L265.957 46.535L340.952 91.9753L338.931 92.3868ZM341.259 91.9104L266.216 46.4412L268.849 45.4764L343.272 91.5013L341.259 91.9104ZM343.582 91.4388L269.106 45.3825L271.744 44.4153L345.59 91.0273L343.582 91.4388ZM345.892 90.9672L271.998 44.3239L274.644 43.3543L347.898 90.5558L345.892 90.9672ZM348.198 90.4956L274.89 43.2628L277.538 42.2908L350.19 90.089L348.198 90.4956ZM280.675 4.01566L352.739 65.1433V89.2132L280.675 40.7654V4.01566ZM280.296 41.2827L352.264 89.6679L350.492 90.0312L277.795 42.2018L280.296 41.2827ZM219.389 31.8366L219.467 31.8029L223.236 33.9034L223.366 33.6916L219.747 31.673L280.009 3.81837V40.71L236.714 56.573L233.55 51.4794L233.41 51.3519L219.389 44.2036V31.8366ZM232.976 51.9125L245.195 71.5914L245.35 71.731L266.417 81.3262V91.1525L255.003 93.9627L220.187 80.7704L209.604 66.1225L209.555 66.084L195.326 60.158C195.348 60.0834 195.415 60.0305 195.415 59.9511C195.415 59.7201 195.315 59.5108 195.158 59.3592C194.998 59.2076 194.777 59.1138 194.535 59.1138C194.289 59.1138 194.07 59.2076 193.91 59.3592C193.75 59.5108 193.651 59.7201 193.651 59.9511C193.651 60.1796 193.75 60.389 193.91 60.5405C194.07 60.6921 194.289 60.7835 194.535 60.7835C194.777 60.7835 194.998 60.6921 195.158 60.5405C195.209 60.49 195.201 60.4082 195.239 60.3505L203.375 63.7382L214.125 79.9404L214.178 79.9837L234.119 87.4496L234.157 87.4568L237.565 87.5795L254.642 94.0517L248.057 95.6734L179.197 70.872V20.432L190.372 26.2739V30.1885L190.563 30.2871L232.976 51.9125ZM236.945 87.3485L234.183 87.2451L214.29 79.7984L203.733 63.8897L209.436 66.2645L220.019 80.9124L220.072 80.9533L236.945 87.3485ZM195.191 59.9511C195.191 60.1219 195.117 60.2783 194.998 60.3914C194.878 60.5045 194.713 60.5742 194.533 60.5742C194.347 60.5742 194.184 60.5045 194.065 60.3914C193.946 60.2783 193.872 60.1219 193.872 59.9511C193.872 59.7802 193.946 59.6214 194.065 59.5108C194.184 59.3977 194.347 59.3255 194.533 59.3255C194.713 59.3255 194.878 59.3977 194.998 59.5108C195.117 59.6214 195.191 59.7778 195.191 59.9511ZM219.129 31.9569V44.0713L206.666 37.7169L219.129 31.9569ZM218.779 31.4179L205.947 37.3464L191.099 29.777V25.8672L190.908 25.7662L177.947 18.9908L177.901 18.9667V8.64487L218.779 31.4179ZM177.034 1.93204C176.846 1.754 176.729 1.50618 176.729 1.23429C176.729 0.962412 176.846 0.714591 177.034 0.536545C177.222 0.358498 177.484 0.247821 177.771 0.247821C178.059 0.247821 178.323 0.358498 178.508 0.536545C178.694 0.714591 178.813 0.962412 178.813 1.23429C178.813 1.50618 178.696 1.7564 178.508 1.93204C178.32 2.10768 178.059 2.22077 177.771 2.22077C177.484 2.21836 177.222 2.10768 177.034 1.93204ZM177.776 71.1006L178.442 71.3412L175.504 72.4865L174.846 72.2555L177.776 71.1006ZM58.3533 93.3636L167.272 34.7407V35.3807L58.6049 93.4165L58.3533 93.3636ZM58.9302 93.4863L167.272 35.6189V52.5621L105.392 81.8002L105.414 82.0456L107.407 82.5605V93.9916L91.9089 100.368L58.9302 93.4863ZM159.211 60.9399L159.134 60.976V72.7078L157.437 73.408V61.7532L157.249 61.8398L146.681 66.6495L146.607 66.6831V77.8615L145.077 78.4919L145.08 67.5782V67.3785L144.894 67.4651L135.252 71.8561L135.181 71.8922V82.5629L133.806 83.1308L133.808 72.7126V72.5178L133.62 72.602L124.791 76.6249L124.715 76.6585V86.8697L123.477 87.3822V77.224L123.289 77.3082L115.184 81.0014L115.11 81.0351V90.8204L114.028 91.2655V80.8306L167.267 56.3492V57.2707L159.211 60.9399ZM167.272 57.5402V69.3586L159.396 72.5996V61.13L167.272 57.5402ZM157.172 62.1405V73.5139L146.864 77.7557V66.8395L157.172 62.1405ZM144.823 67.7707L144.818 78.5978L135.44 82.4547V72.0438L144.823 67.7707ZM133.552 72.9075L133.546 83.2366L124.979 86.7615V76.8101L133.552 72.9075ZM123.22 77.6113V87.4833L115.377 90.7122V81.1867L123.22 77.6113ZM113.873 80.6694L113.809 80.6983V91.357L107.852 93.8111V82.0216L167.272 54.2175V56.111L113.873 80.6694ZM107.529 81.7016L107.404 81.7617V82.2887L105.836 81.882L167.272 52.8557V53.7483L107.529 81.7016ZM57.7179 115.189L168.632 69.5487L168.853 69.4597V69.2335L168.843 33.6965V33.1046L168.297 33.3957L57.7179 92.9137V90.5943L107.814 62.7108L107.994 62.6097V59.5156L177.408 19.9075V70.4967L57.7179 117.559V115.189ZM168.111 35.1738L168.116 52.1651L167.493 52.4563V35.501L168.111 35.1738ZM167.496 35.2604V34.6204L168.111 34.2907V34.9332L167.496 35.2604ZM168.119 52.4587V53.3537L167.496 53.6449V52.7546L168.119 52.4587ZM168.119 53.8205V55.7237L167.496 56.01V54.114L168.119 53.8205ZM168.119 55.9571V56.881L167.496 57.1649V56.2434L168.119 55.9571ZM168.119 57.1529L168.121 69.0074L167.493 69.2672V57.4392L168.119 57.1529ZM58.6786 117.929L60.7754 117.106L60.9609 117.135L58.854 117.958L58.6786 117.929ZM59.2708 118.021L61.3752 117.203L74.7054 119.286L72.5375 120.044L59.2708 118.021ZM20.5559 138.891L142.528 96.4217V133.106L20.5559 157.646V138.891ZM78.5177 161.007L22.9424 157.889L24.8562 157.506L80.2967 160.79L78.5177 161.007ZM81.4658 160.646L25.6644 157.34L29.3851 156.589L85.9185 160.1L81.4658 160.646ZM88.6888 159.758L87.0724 159.958L30.1934 156.43L33.9472 155.673L88.6913 159.224V159.758H88.6888ZM88.6888 159.017L34.7325 155.516L38.5295 154.751L88.6888 158.156V159.017ZM88.6888 157.941L39.3123 154.595L43.1398 153.822L88.6888 157.046V157.941ZM88.6888 156.835L43.9201 153.666L47.7857 152.886L88.6888 155.906V156.835ZM88.6888 155.694L48.5507 152.732L52.457 151.948L88.6888 154.729V155.694ZM88.6888 154.522L53.222 151.794L57.1613 151.002L88.6888 153.526V154.522ZM88.6888 153.312L57.9136 150.848L61.8962 150.05L88.6888 152.28V153.312ZM88.6888 152.066L62.6459 149.901L66.6742 149.09L88.6888 150.993V152.066ZM88.6888 150.781L67.4087 148.941L71.4929 148.12L88.6913 149.67V150.781H88.6888ZM89.0319 148.337L88.6888 148.397V149.455L72.2045 147.973L76.332 147.143L89.0548 148.332L89.0319 148.337ZM77.0487 147.001L81.2117 146.164L94.1785 147.417L89.8299 148.195L77.0487 147.001ZM89.5326 149.056L184.178 132.134V169.603L89.5326 174.293V149.056ZM99.8282 174.582L101.373 174.505L133.282 175.376V175.409L99.8282 174.582ZM131.973 178.696L133.28 178.655V190.531H131.973V178.696ZM130.921 183.532L131.666 183.508V190.531H130.921V183.532ZM303.259 192.795H75.8491V190.825H178.973L182.684 192.143L182.74 192.153H303.264V192.795H303.259ZM303.259 191.859H282.123L278.166 190.086L278.103 190.072H274.827V189.109H284.647L288.238 190.863L288.309 190.88H303.261V191.859H303.259ZM303.259 190.591H288.345L284.751 188.835L284.68 188.818H275.482V184.843H303.259V190.591ZM315.196 192.795V191.833H320.663L323.512 192.795H315.196ZM324.429 192.795L320.734 191.549L320.681 191.542H315.193V184.843H320.67L340.126 191.482L340.177 191.491H361.385L364.722 192.798H324.429V192.795ZM287.737 13.6711L287.183 13.2139V41.4222L287.323 41.5185L339.699 77.8736V77.9025H339.739L349.545 84.7067L350.078 85.0748V65.189L349.964 65.0928L287.737 13.6711ZM292.526 44.3455L287.854 41.1022V31.3385L292.528 34.808L292.526 44.3455ZM292.528 34.5386L287.854 31.0691V29.9936L292.528 33.5016V34.5386ZM293.634 45.1155L292.749 44.5019V34.9717L293.634 35.6309V45.1155ZM293.634 35.3614L292.749 34.7022V33.6652L293.634 34.3316V35.3614ZM306.123 53.782L296.102 46.8238V37.4595L306.123 44.9037V53.782ZM306.123 44.6367L296.102 37.1948V36.1819L306.123 43.7031V44.6367ZM307.124 54.4749L306.346 53.936V45.0698L307.124 45.6472V54.4749ZM307.124 45.3801L306.346 44.8027V43.8716L307.124 44.4538V45.3801ZM317.997 62.0251L309.302 55.9931V47.2713L317.997 53.7291V62.0251ZM317.997 53.4596L309.302 47.0018V46.0947L317.997 52.6223V53.4596ZM318.901 62.653L318.22 62.179V53.8927L318.901 54.3979V62.653ZM318.901 54.1309L318.22 53.6256V52.7883L318.901 53.3008V54.1309ZM328.47 69.2937L320.866 64.0124L320.856 55.8488L328.47 61.5054V69.2937ZM328.47 61.2383L320.856 55.5817V54.7709L328.47 60.4876V61.2383ZM329.289 69.8591L328.694 69.4477V61.6714L329.289 62.1141V69.8591ZM329.289 61.847L328.694 61.4043V60.656L329.289 61.1011V61.847ZM337.767 75.7467L331.06 71.091V63.4302L337.767 68.4131V75.7467ZM337.767 68.1436L331.06 63.1607V62.4269L337.767 67.4627V68.1436ZM338.512 76.2639L337.991 75.9006V68.5767L338.512 68.9665V76.2639ZM338.512 68.6994L337.991 68.312V67.6287L338.512 68.0209V68.6994ZM339.701 77.0868L338.822 76.4781V67.8837L338.766 67.838L331.002 62.0106L330.753 61.8205V70.8768L329.601 70.078V60.964L329.543 60.9183L320.8 54.3546L320.548 54.167V54.4677L320.556 63.8007L319.214 62.8696V53.1637L319.156 53.1179L309.246 45.6785L308.997 45.4884V55.7766L307.432 54.6891V44.3119L307.376 44.271L296.046 35.7656L295.792 35.578V46.612L293.946 45.3296V34.1921L293.891 34.1488L287.857 29.623V28.7112L339.701 67.9752V77.0868ZM287.854 28.1482V15.4515L348.673 65.3791L339.981 67.6263L287.854 28.1482ZM348.904 83.4748L340.164 77.4092V68.0329L348.904 65.7761V83.4748ZM287.854 15.1724V14.6022L349.145 65.2564L348.929 65.3117L287.854 15.1724ZM349.41 83.8285L349.128 83.6312V65.7207L349.41 65.6461V83.8285ZM21.7199 140.77L21.4683 140.849V155.167L21.9233 155.066L137.059 129.579L137.346 129.514V103.503L136.853 103.661L21.7199 140.77ZM22.7671 154.159L22.2105 154.282V141.376L22.7671 141.429V154.159ZM41.47 150.016L22.9907 154.109V141.446L41.47 143.152V150.016ZM84.508 140.491L41.9733 149.905V143.116L84.508 131.571V140.491ZM84.508 131.076L41.6962 142.699L23.3059 141.001L112.823 112.147L116.48 112.874L116.536 112.869L134.609 107.184V111.329L82.2257 126.88L82.2461 127.135L84.5055 127.445V131.076H84.508ZM84.508 126.894V127.18L82.8941 126.959L134.611 111.606V112.193L84.5995 126.863L84.508 126.894ZM93.2051 138.563L86.0151 140.154V127.883L87.418 127.481L93.2076 128.292L93.2051 138.563ZM93.2101 128.08L87.9162 127.337L93.2101 125.816V128.08ZM102.807 136.439L94.9104 138.186V128.533L102.809 129.642L102.807 136.439ZM102.809 129.428L94.9104 128.318V125.328L102.812 123.056L102.809 129.428ZM110.663 134.697L104.637 136.03V129.897L110.663 130.741V134.697ZM113.349 134.103L110.886 134.651V124.269L113.349 123.6V134.103ZM113.349 123.381L110.744 124.089L110.663 124.11V130.53L104.637 129.685V122.527L113.347 120.025V123.381H113.349ZM124.977 131.528L122.206 132.142V131.331L124.977 130.698V131.528ZM124.977 130.448L122.051 131.114L121.95 131.138V132.199L115.337 133.662V123.061L124.979 120.443V130.448H124.977ZM124.977 120.227L115.334 122.842V119.455L124.977 116.683V120.227ZM126.832 131.117L125.287 131.458V130.628L126.832 130.277V131.117ZM126.832 115.843V130.024L125.287 130.376V116.288L125.088 116.346L115.136 119.207L115.024 119.238V133.734L113.654 134.035V119.633L113.456 119.688L104.436 122.279L104.324 122.311V136.1L103.112 136.367L103.117 122.859V122.662L102.916 122.72L94.7046 125.08L94.5953 125.111V138.255L93.51 138.498L93.5126 125.621V125.426L93.3143 125.482L85.8169 127.64L85.7076 127.669V140.226L84.7672 140.433V127.075L134.611 112.451V113.606L126.941 115.812L126.832 115.843ZM127.142 119.637V116.06L134.611 113.911V117.609L127.142 119.637ZM134.611 117.828V128.249L127.142 129.955V119.856L134.611 117.828ZM136.601 128.956L127.142 131.049V130.205L136.601 128.047V128.956ZM136.601 127.794L134.835 128.196V117.768L136.601 117.289V127.794ZM136.601 117.068L134.835 117.547V113.844L136.601 113.338V117.068ZM136.601 113.033L134.835 113.543V112.386L136.601 111.868V113.033ZM136.601 111.611L134.835 112.131V111.541L136.601 111.017V111.611ZM136.601 110.742L134.835 111.267V106.898L134.688 106.946L116.498 112.667L113.237 112.018L136.601 104.484V110.742ZM258.487 169.844L258.937 169.875V148.033L258.584 147.98L191.994 137.716L191.508 137.644V138.113L191.501 165.14V165.511L191.889 165.537L258.487 169.844ZM201.659 165.369L200.663 165.306L200.665 145.627L201.664 145.76L201.659 165.369ZM201.667 145.546L200.668 145.413V144.403L201.667 144.542V145.546ZM213.131 166.112L203.939 165.518V158.12L213.131 158.964V166.112ZM213.131 158.752L203.939 157.905V146.063L213.131 147.288V158.752ZM213.131 147.076L203.939 145.851V144.853L213.131 146.118V147.076ZM214.25 166.182L213.353 166.127V147.319L214.25 147.437V166.182ZM214.25 147.225L213.353 147.105V146.15L214.25 146.275V147.225ZM224.777 166.865L216.364 166.322V159.26L217.759 159.392V164.52L217.864 164.529L224.777 165.037V166.865ZM224.777 164.823L217.983 164.327V159.2L217.881 159.19L216.364 159.048V147.718L224.777 148.839V164.823ZM224.777 148.63L216.364 147.509V146.566L224.777 147.725V148.63ZM225.808 166.93L224.995 166.877V148.871L225.808 148.979V166.93ZM225.808 148.77L224.995 148.661V147.754L225.808 147.867V148.77ZM235.489 167.558L227.776 167.058V165.256L235.489 165.821V167.558ZM235.489 165.612L227.776 165.042L227.771 149.244L235.489 150.273V165.612ZM235.489 150.062L227.771 149.03V148.137L235.489 149.2V150.062ZM236.445 167.619L235.713 167.57V150.302L236.445 150.399V167.619ZM236.445 150.189L235.713 150.091V149.232L236.445 149.333V150.189ZM245.381 168.198L238.282 167.739V166.023L245.381 166.543V168.198ZM245.381 166.336L238.282 165.814V150.649L245.381 151.594V166.336ZM245.381 151.38L238.282 150.435V149.585L245.381 150.565V151.38ZM246.26 168.256L245.604 168.21V166.56L246.26 166.61V168.256ZM246.26 166.399L245.604 166.351V151.621L246.26 151.705V166.399ZM246.26 151.498L245.604 151.411V150.596L246.26 150.685V151.498ZM257.656 148.724L257.969 148.69L258.098 148.712V169.021L257.656 168.99V148.724ZM257.432 168.978L248.07 168.374V149.662L257.432 148.743V168.978ZM192.347 138.575L255.872 148.365L247.803 149.157L192.344 141.222L192.347 138.575ZM192.344 141.754L247.516 149.65V168.338L246.573 168.278V150.435L246.435 150.415L238.15 149.273L237.975 149.248V167.722L236.757 167.64V149.082L236.623 149.061L227.638 147.824L227.463 147.8V147.968L227.471 167.039L226.119 166.952V147.612L225.986 147.593L216.232 146.251L216.057 146.227V166.3L214.565 166.206V146.022L214.428 146.003L203.804 144.54L203.626 144.513V165.496L201.967 165.386L201.972 144.412V144.285L201.839 144.268L192.344 142.954V141.754ZM192.344 143.257L200.444 144.374V145.382L192.344 144.299V143.257ZM192.344 144.516L200.444 145.596L200.442 157.588L192.339 156.842L192.344 144.516ZM192.342 157.051L200.444 157.8V165.292L192.342 164.767V157.051ZM395.823 193.166H396.962V192.834H395.823V193.166ZM393.429 193.166H394.567V192.834H393.429V193.166ZM398.222 193.166H399.361V192.834H398.222V193.166ZM410.203 193.166H411.341V192.834H410.203V193.166ZM407.806 193.166H408.945V192.834H407.806V193.166ZM405.409 193.166H406.548V192.834H405.409V193.166ZM403.013 193.166H404.151V192.834H403.013V193.166ZM400.616 193.166H401.755V192.834H400.616V193.166ZM391.03 193.166H392.171V192.834H391.03V193.166ZM371.859 193.166H373V192.834H371.859V193.166ZM379.051 193.166H380.19V192.834H379.051V193.166ZM381.446 193.166H382.587V192.834H381.446V193.166ZM374.258 193.166H375.397V192.834H374.258V193.166ZM386.241 193.166H387.38V192.834H386.241V193.166ZM369.465 193.166H370.603V192.834H369.465V193.166ZM388.636 193.166H389.774V192.834H388.636V193.166ZM376.652 193.166H377.791V192.834H376.652V193.166ZM460.525 193.166H461.663V192.834H460.525V193.166ZM412.599 193.166H413.738V192.834H412.599V193.166ZM448.547 193.166H449.685V192.834H448.547V193.166ZM453.337 193.166H454.476V192.834H453.337V193.166ZM450.941 193.166H452.079V192.834H450.941V193.166ZM455.734 193.166H456.875V192.834H455.734V193.166ZM458.131 193.166H459.269V192.834H458.131V193.166ZM441.354 193.166H442.493V192.834H441.354V193.166ZM438.96 193.166H440.099V192.834H438.96V193.166ZM446.147 193.166H447.286V192.834H446.147V193.166ZM462.924 192.834V193.166H464.062V192.834H462.924ZM443.753 193.166H444.892V192.834H443.753V193.166ZM429.376 193.166H430.515V192.834H429.376V193.166ZM436.563 193.166H437.702V192.834H436.563V193.166ZM424.583 193.166H425.719V192.834H424.583V193.166ZM419.789 193.166H420.928V192.834H419.789V193.166ZM417.393 193.166H418.531V192.834H417.393V193.166ZM422.184 193.166H423.322V192.834H422.184V193.166ZM431.77 193.166H432.909V192.834H431.77V193.166ZM426.977 193.166H428.115V192.834H426.977V193.166ZM434.167 193.166H435.305V192.834H434.167V193.166ZM414.994 193.166H416.135V192.834H414.994V193.166ZM383.842 193.166H384.981V192.834H383.842V193.166ZM309.404 180.813H309.053V181.862H309.404V180.813ZM309.404 183.024H309.053V184.073H309.404V183.024ZM309.404 178.602H309.053V179.653H309.404V178.602ZM309.404 176.391H309.053V177.442H309.404V176.391ZM309.053 190.704H309.404V189.655H309.053V190.704ZM309.404 187.447H309.053V188.496H309.404V187.447ZM309.404 145.44H309.053V146.491H309.404V145.44ZM309.404 174.18H309.053V175.231H309.404V174.18ZM309.404 185.235H309.053V186.285H309.404V185.235ZM309.404 160.915H309.053V161.964H309.404V160.915ZM309.404 167.546H309.053V168.598H309.404V167.546ZM309.404 158.704H309.053V159.753H309.404V158.704ZM309.404 169.757H309.053V170.809H309.404V169.757ZM309.404 163.126H309.053V164.175H309.404V163.126ZM309.404 171.969H309.053V173.02H309.404V171.969ZM309.404 165.338H309.053V166.387H309.404V165.338ZM315.219 167.703H314.866V168.619H315.219V167.703ZM315.219 165.775H314.866V166.692H315.219V165.775ZM315.219 159.987H314.866V160.898H315.219V159.987ZM315.219 163.843H314.866V164.76H315.219V163.843ZM314.866 182.127H315.219V181.213H314.866V182.127ZM315.219 175.421H314.866V176.338H315.219V175.421ZM315.219 177.353H314.866V178.27H315.219V177.353ZM315.219 179.283H314.866V180.197H315.219V179.283ZM315.219 158.057H314.866V158.974H315.219V158.057ZM315.219 169.632H314.866V170.549H315.219V169.632ZM315.219 171.564H314.866V172.481H315.219V171.564ZM315.219 173.494H314.866V174.406H315.219V173.494ZM315.219 161.916H314.866V162.831H315.219V161.916ZM315.219 146.477H314.866V147.391H315.219V146.477ZM315.219 152.268H314.866V153.185H315.219V152.268ZM303.241 146.443H303.594V145.43H303.241V146.443ZM303.591 171.033H303.238V172.046H303.591V171.033ZM303.591 158.23H303.238V159.243H303.591V158.23ZM303.241 178.446H303.594V177.435H303.241V178.446ZM303.591 173.169H303.238V174.177H303.591V173.169ZM303.591 160.367H303.238V161.377H303.591V160.367ZM303.591 164.633H303.238V165.643H303.591V164.633ZM303.591 168.896H303.238V169.909H303.591V168.896ZM303.591 166.767H303.238V167.78H303.591V166.767ZM303.591 162.498H303.238V163.511H303.591V162.498ZM303.591 175.299H303.238V176.312H303.591V175.299ZM347.135 190.483H348.79V188.917H347.135V190.483ZM348.79 181.4H347.135V182.964H348.79V181.4ZM348.79 185.156H347.135V186.72H348.79V185.156ZM348.79 177.642H347.135V179.206H348.79V177.642ZM199.273 105.062H198.922V106.075H199.273V105.062ZM199.273 102.923H198.922V103.938H199.273V102.923ZM199.273 124.288H198.922V125.299H199.273V124.288ZM199.273 126.425H198.922V127.438H199.273V126.425ZM199.273 122.152H198.922V123.167H199.273V122.152ZM199.273 128.564H198.922V129.577H199.273V128.564ZM199.273 130.696H198.922V131.711H199.273V130.696ZM199.273 111.469H198.922V112.484H199.273V111.469ZM199.273 120.015H198.922V121.028H199.273V120.015ZM199.273 113.606H198.922V114.618H199.273V113.606ZM199.273 115.745H198.922V116.755H199.273V115.745ZM199.273 117.879H198.922V118.894H199.273V117.879ZM161.628 121.201H161.277V122.27H161.628V121.201ZM161.628 125.703H161.277V126.771H161.628V125.703ZM161.628 123.451H161.277V124.519H161.628V123.451ZM161.274 99.7636H161.625V98.6954H161.274V99.7636ZM161.628 132.457H161.277V133.525H161.628V132.457ZM161.628 96.4433H161.277V97.5116H161.628V96.4433ZM161.628 130.202H161.277V131.273H161.628V130.202ZM161.628 127.955H161.277V129.023H161.628V127.955ZM161.628 105.447H161.277V106.517H161.628V105.447ZM161.628 109.946H161.277V111.017H161.628V109.946ZM161.628 107.699H161.277V108.767H161.628V107.699ZM161.628 118.949H161.277V120.02H161.628V118.949ZM161.628 116.7H161.277V117.77H161.628V116.7ZM161.628 114.45H161.277V115.518H161.628V114.45ZM161.628 103.195H161.277V104.263H161.628V103.195ZM161.628 112.2H161.277V113.269H161.628V112.2ZM82.7112 97.8869H83.0619V96.8548H82.7112V97.8869ZM82.7112 95.7143H83.0619V94.6821H82.7112V95.7143ZM82.7112 91.3666H83.0619V90.3344H82.7112V91.3666ZM83.0619 101.2H82.7112V102.232H83.0619V101.2ZM82.7112 93.5416H83.0619V92.5071H82.7112V93.5416ZM82.7112 87.0213H83.0619V85.9891H82.7112V87.0213ZM82.7112 89.194H83.0619V88.1618H82.7112V89.194ZM83.0619 70.3475H82.7112V71.4735H83.0619V70.3475ZM83.0619 67.9776H82.7112V69.1012H83.0619V67.9776ZM83.0619 60.8726H82.7112V61.9986H83.0619V60.8726ZM83.0619 63.2425H82.7112V64.3685H83.0619V63.2425ZM82.7112 73.8411H83.0619V72.7151H82.7112V73.8411ZM141.982 30.4507L141.794 30.1716L140.836 30.7515L141.024 31.0306L141.982 30.4507ZM143.997 29.2236L143.809 28.9445L142.851 29.5268L143.042 29.8059L143.997 29.2236ZM148.033 26.7719L147.845 26.4904L146.887 27.0727L147.075 27.3518L148.033 26.7719ZM125.841 40.2625L125.65 39.9834L124.692 40.5657L124.88 40.8448L125.841 40.2625ZM139.961 31.6754L139.773 31.3963L138.815 31.9786L139.006 32.2577L139.961 31.6754ZM129.877 37.8108L129.686 37.5317L128.73 38.1139L128.921 38.393L129.877 37.8108ZM131.892 36.5813L131.704 36.3022L130.746 36.8844L130.936 37.1635L131.892 36.5813ZM150.049 25.5448L149.86 25.2657L148.902 25.848L149.09 26.1271L150.049 25.5448ZM127.856 39.0378L127.668 38.7563L126.71 39.3386L126.9 39.6177L127.856 39.0378ZM137.943 32.9025L137.755 32.6234L136.797 33.2056L136.985 33.4847L137.943 32.9025ZM133.91 35.359L133.719 35.0775L132.761 35.6598L132.952 35.9389L133.91 35.359ZM135.928 34.1295L135.737 33.8504L134.782 34.4303L134.97 34.7118L135.928 34.1295ZM146.018 27.9966L145.825 27.7175L144.866 28.2997L145.057 28.5788L146.018 27.9966ZM172.244 12.0494L172.055 11.7703L171.097 12.3526L171.285 12.6317L172.244 12.0494ZM170.226 13.2765L170.032 12.9974L169.077 13.5772L169.265 13.8587L170.226 13.2765ZM152.069 24.3153L151.878 24.0362L150.92 24.6185L151.111 24.8976L152.069 24.3153ZM182.331 5.91884L182.14 5.63733L181.182 6.21959L181.373 6.49869L182.331 5.91884ZM166.19 15.7306L166.002 15.4515L165.043 16.0338L165.234 16.3129L166.19 15.7306ZM180.313 7.1435L180.122 6.86441L179.164 7.44666L179.357 7.72576L180.313 7.1435ZM168.205 14.506L168.017 14.2245L167.059 14.8067L167.249 15.0858L168.205 14.506ZM156.102 21.8636L155.912 21.5845L154.954 22.1644L155.142 22.4459L156.102 21.8636ZM158.12 20.6365L157.93 20.3574L156.974 20.9397L157.162 21.2188L158.12 20.6365ZM160.138 19.4094L159.95 19.1303L158.992 19.7126L159.18 19.9917L160.138 19.4094ZM162.154 18.1848L161.966 17.9033L161.008 18.4855L161.198 18.7646L162.154 18.1848ZM164.174 16.9577L163.984 16.6786L163.028 17.2609L163.216 17.54L164.174 16.9577ZM154.084 23.0883L153.896 22.8092L152.938 23.3914L153.126 23.6705L154.084 23.0883ZM91.5429 61.1156L91.3548 60.8365L90.3967 61.4187L90.5848 61.6978L91.5429 61.1156ZM97.5968 57.4368L97.4087 57.1577L96.4506 57.7399L96.6386 58.019L97.5968 57.4368ZM87.507 63.5697L87.3189 63.2906L86.3608 63.8705L86.5488 64.152L87.507 63.5697ZM95.5788 58.6614L95.3882 58.3823L94.4326 58.9646L94.6207 59.2437L95.5788 58.6614ZM85.4916 64.7944L85.3035 64.5153L84.3454 65.0976L84.536 65.3767L85.4916 64.7944ZM123.823 41.4896L123.632 41.2105L122.674 41.7927L122.865 42.0718L123.823 41.4896ZM89.5275 62.3427L89.3369 62.0636L88.3813 62.6458L88.5693 62.9249L89.5275 62.3427ZM174.071 10.5432L173.113 11.1255L173.303 11.4046L174.259 10.8223L174.071 10.5432ZM176.086 9.31856L175.131 9.89841L175.319 10.1775L176.277 9.59766L176.086 9.31856ZM79.4377 68.4756L79.2471 68.1941L78.2915 68.7764L78.4795 69.0555L79.4377 68.4756ZM81.4557 67.2486L81.2676 66.9695L80.3094 67.5493L80.4975 67.8308L81.4557 67.2486ZM82.7112 66.4858V66.7337H83.0619V66.2717L83.4711 66.0215L83.283 65.7424L83.0619 65.8747V65.61H82.7112V66.0888L82.3223 66.3246L82.5129 66.6037L82.7112 66.4858ZM93.5609 59.8885L93.3703 59.607L92.4121 60.1893L92.6002 60.4684L93.5609 59.8885ZM115.753 46.3955L115.565 46.1164L114.607 46.6962L114.795 46.9777L115.753 46.3955ZM117.771 45.1708L117.581 44.8917L116.623 45.474L116.813 45.7531L117.771 45.1708ZM99.6122 56.2097L99.4216 55.9282L98.4634 56.5104L98.6541 56.7895L99.6122 56.2097ZM111.717 48.8472L111.529 48.5681L110.571 49.1504L110.764 49.4295L111.717 48.8472ZM119.787 43.9413L119.599 43.6622L118.641 44.2445L118.829 44.5236L119.787 43.9413ZM121.805 42.7167L121.617 42.4376L120.658 43.0174L120.847 43.2989L121.805 42.7167ZM113.735 47.625L113.547 47.3435L112.589 47.9257L112.777 48.2048L113.735 47.625ZM103.648 53.7555L103.46 53.4764L102.502 54.0587L102.693 54.3378L103.648 53.7555ZM101.633 54.9826L101.442 54.7035L100.486 55.2834L100.675 55.5649L101.633 54.9826ZM107.684 51.3038L107.493 51.0247L106.538 51.6045L106.726 51.8836L107.684 51.3038ZM109.699 50.0767L109.511 49.7976L108.553 50.3799L108.744 50.659L109.699 50.0767ZM105.664 52.5285L105.475 52.2494L104.517 52.8316L104.71 53.1107L105.664 52.5285Z" fill="#BFAFCF"/>
</svg>
