<svg width="1366" height="683" viewBox="0 0 1366 683" fill="none" xmlns="http://www.w3.org/2000/svg">
<mask id="mask0_871_325" style="mask-type:alpha" maskUnits="userSpaceOnUse" x="0" y="0" width="1366" height="683">
<path fill-rule="evenodd" clip-rule="evenodd" d="M1330.48 309.487L1330.3 308.877L1327.42 309.302L1327.6 309.912L1330.48 309.487ZM1127.22 339.545L1130.11 339.12L1129.91 338.51L1127.03 338.935L1127.22 339.545ZM1239.2 322.348L1236.32 322.773L1236.51 323.384L1239.4 322.958L1239.2 322.348ZM1230.45 324.283L1233.33 323.858L1233.14 323.248L1230.26 323.673L1230.45 324.283ZM1324.41 310.387L1324.22 309.777L1321.34 310.202L1321.53 310.812L1324.41 310.387ZM1318.34 311.283L1318.15 310.672L1315.27 311.097L1315.45 311.708L1318.34 311.283ZM1133.29 338.65L1136.18 338.225L1135.98 337.614L1133.1 338.039L1133.29 338.65ZM1333.48 308.402L1333.67 309.013L1336.55 308.587L1336.36 307.977L1333.48 308.402ZM1109.01 342.245L1111.89 341.815L1111.7 341.205L1108.82 341.634L1109.01 342.245ZM1339.55 307.511L1339.74 308.122L1342.62 307.692L1342.43 307.082L1339.55 307.511ZM1214.92 325.938L1212.04 326.364L1212.23 326.974L1215.11 326.549L1214.92 325.938ZM1279.02 317.098L1281.91 316.673L1281.72 316.062L1278.83 316.487L1279.02 317.098ZM1120.96 339.835L1121.15 340.445L1124.03 340.02L1123.84 339.41L1120.96 339.835ZM1220.99 325.039L1218.12 325.464L1218.3 326.074L1221.18 325.649L1220.99 325.039ZM1224.37 325.183L1227.26 324.754L1227.07 324.143L1224.18 324.573L1224.37 325.183ZM1139.36 337.75L1142.25 337.325L1142.06 336.714L1139.18 337.139L1139.36 337.75ZM1364.03 304.527L1365.14 304.364V303.722L1363.84 303.916L1364.03 304.527ZM1190.82 330.144L1190.64 329.529L1187.75 329.959L1187.94 330.569L1190.82 330.144ZM1184.76 331.035L1184.56 330.424L1181.68 330.849L1181.87 331.464L1184.76 331.035ZM1145.43 336.855L1148.32 336.425L1148.14 335.815L1145.25 336.244L1145.43 336.855ZM1172.42 332.224L1169.53 332.649L1169.72 333.26L1172.61 332.835L1172.42 332.224ZM1178.49 331.324L1175.61 331.749L1175.8 332.36L1178.68 331.935L1178.49 331.324ZM1196.9 329.244L1196.71 328.634L1193.83 329.059L1194.02 329.669L1196.9 329.244ZM1291.17 315.303L1294.05 314.878L1293.87 314.267L1290.98 314.692L1291.17 315.303ZM1297.24 314.407L1300.12 313.978L1299.93 313.367L1297.04 313.792L1297.24 314.407ZM1306.19 313.078L1306 312.467L1303.12 312.897L1303.31 313.507L1306.19 313.078ZM1312.27 312.182L1312.07 311.572L1309.19 311.997L1309.38 312.608L1312.27 312.182ZM1151.51 335.959L1154.39 335.534L1154.21 334.924L1151.32 335.349L1151.51 335.959ZM1285.1 316.198L1287.98 315.773L1287.79 315.162L1284.91 315.588L1285.1 316.198ZM1209.04 327.449L1208.85 326.838L1205.97 327.263L1206.15 327.874L1209.04 327.449ZM1202.97 328.344L1202.78 327.738L1199.9 328.163L1200.09 328.774L1202.97 328.344ZM1163.66 334.159L1166.53 333.734L1166.34 333.124L1163.46 333.549L1163.66 334.159ZM1157.58 335.059L1160.47 334.634L1160.28 334.024L1157.39 334.449L1157.58 335.059ZM1105.82 342.711L1105.63 342.1L1102.75 342.525L1102.93 343.14L1105.82 342.711ZM1351.88 306.322L1354.77 305.897L1354.58 305.286L1351.7 305.711L1351.88 306.322ZM1117.96 340.92L1117.77 340.309L1114.89 340.734L1115.07 341.345L1117.96 340.92ZM1099.74 343.611L1099.55 343L1096.67 343.425L1096.86 344.036L1099.74 343.611ZM1254.73 320.688L1257.61 320.263L1257.42 319.653L1254.54 320.078L1254.73 320.688ZM1266.88 318.898L1269.76 318.473L1269.57 317.862L1266.69 318.287L1266.88 318.898ZM1248.66 321.584L1251.55 321.159L1251.35 320.548L1248.47 320.973L1248.66 321.584ZM1081.52 346.306L1081.34 345.695L1078.46 346.12L1078.64 346.731L1081.52 346.306ZM1087.6 345.406L1087.4 344.795L1084.53 345.22L1084.72 345.831L1087.6 345.406ZM1272.95 317.998L1275.84 317.573L1275.64 316.962L1272.76 317.387L1272.95 317.998ZM1345.62 306.611L1345.81 307.222L1348.7 306.797L1348.5 306.186L1345.62 306.611ZM1357.77 304.812L1357.96 305.422L1360.84 304.997L1360.65 304.386L1357.77 304.812ZM1093.67 344.51L1093.49 343.9L1090.6 344.325L1090.79 344.935L1093.67 344.51ZM1260.8 319.793L1263.69 319.363L1263.5 318.753L1260.62 319.183L1260.8 319.793ZM1242.59 322.484L1245.48 322.059L1245.28 321.448L1242.4 321.873L1242.59 322.484ZM891.589 254.129L891.266 253.541L888.513 254.273L888.849 254.857L891.589 254.129ZM1152.27 184.883L1151.94 184.295L1149.19 185.028L1149.52 185.611L1152.27 184.883ZM1190.07 174.84L1192.81 174.107L1192.48 173.524L1189.74 174.252L1190.07 174.84ZM1146.47 186.42L1146.14 185.837L1143.4 186.565L1143.73 187.153L1146.47 186.42ZM914.771 247.97L914.441 247.386L911.688 248.119L912.017 248.698L914.771 247.97ZM1068.42 207.154L1071.17 206.421L1070.84 205.838L1068.09 206.566L1068.42 207.154ZM908.974 249.507L908.644 248.928L905.897 249.656L906.227 250.24L908.974 249.507ZM1062.62 208.691L1065.37 207.963L1065.05 207.38L1062.29 208.113L1062.62 208.691ZM903.177 251.054L902.847 250.47L900.107 251.198L900.43 251.782L903.177 251.054ZM897.386 252.591L897.057 252.003L894.316 252.736L894.639 253.319L897.386 252.591ZM1175.43 178.724L1175.11 178.141L1172.36 178.873L1172.69 179.452L1175.43 178.724ZM1085.79 202.537L1088.54 201.809L1088.21 201.221L1085.46 201.954L1085.79 202.537ZM1181.23 177.186L1180.9 176.603L1178.16 177.331L1178.48 177.915L1181.23 177.186ZM1103.18 197.92L1105.92 197.192L1105.59 196.609L1102.85 197.341L1103.18 197.92ZM1091.59 200.999L1094.33 200.267L1094.01 199.688L1091.26 200.416L1091.59 200.999ZM1183.95 175.794L1184.28 176.382L1187.03 175.649L1186.69 175.066L1183.95 175.794ZM1080.01 204.079L1082.75 203.346L1082.42 202.763L1079.68 203.496L1080.01 204.079ZM1074.22 205.616L1076.96 204.884L1076.63 204.301L1073.89 205.029L1074.22 205.616ZM917.478 246.577L917.801 247.16L920.555 246.432L920.225 245.849L917.478 246.577ZM1163.86 181.799L1163.53 181.22L1160.78 181.948L1161.11 182.532L1163.86 181.799ZM1158.06 183.341L1157.73 182.758L1154.99 183.486L1155.31 184.069L1158.06 183.341ZM1169.65 180.261L1169.32 179.678L1166.57 180.411L1166.9 180.994L1169.65 180.261ZM946.767 239.468L949.52 238.74L949.191 238.161L946.437 238.889L946.767 239.468ZM1030.62 217.193L1030.29 216.609L1027.54 217.347L1027.87 217.925L1030.62 217.193ZM1097.38 199.457L1100.13 198.729L1099.8 198.151L1097.06 198.879L1097.38 199.457ZM1056.83 210.233L1059.58 209.501L1059.26 208.922L1056.5 209.65L1056.83 210.233ZM1042.2 214.118L1041.87 213.535L1039.13 214.263L1039.46 214.846L1042.2 214.118ZM1129.1 191.033L1128.77 190.454L1126.02 191.182L1126.35 191.765L1129.1 191.033ZM981.523 230.239L984.276 229.506L983.947 228.927L981.2 229.656L981.523 230.239ZM1024.83 218.73L1024.5 218.147L1021.75 218.88L1022.08 219.458L1024.83 218.73ZM990.073 227.964L989.751 227.381L986.997 228.118L987.326 228.697L990.073 227.964ZM995.864 226.427L995.534 225.839L992.781 226.572L993.117 227.155L995.864 226.427ZM1007.44 223.352L1007.12 222.768L1004.38 223.497L1004.7 224.08L1007.44 223.352ZM1123.31 192.575L1122.97 191.992L1120.23 192.72L1120.55 193.303L1123.31 192.575ZM1019.04 220.272L1018.71 219.694L1015.96 220.422L1016.29 221.005L1019.04 220.272ZM1001.65 224.889L1001.33 224.306L998.571 225.034L998.907 225.617L1001.65 224.889ZM1117.52 194.112L1117.18 193.529L1114.43 194.257L1114.76 194.84L1117.52 194.112ZM975.739 231.776L978.486 231.048L978.156 230.465L975.409 231.198L975.739 231.776ZM940.976 241.01L943.73 240.278L943.394 239.694L940.647 240.427L940.976 241.01ZM935.192 242.548L937.933 241.82L937.603 241.236L934.863 241.964L935.192 242.548ZM1050.72 211.188L1051.04 211.771L1053.8 211.038L1053.47 210.46L1050.72 211.188ZM1140.68 187.958L1140.35 187.37L1137.6 188.103L1137.94 188.681L1140.68 187.958ZM1013.25 221.814L1012.91 221.231L1010.17 221.959L1010.49 222.542L1013.25 221.814ZM923.605 245.623L926.345 244.895L926.022 244.311L923.269 245.044L923.605 245.623ZM929.395 244.085L932.142 243.357L931.813 242.774L929.059 243.502L929.395 244.085ZM1108.97 196.382L1111.71 195.65L1111.38 195.067L1108.64 195.795L1108.97 196.382ZM952.564 237.931L955.311 237.203L954.988 236.615L952.234 237.352L952.564 237.931ZM964.151 234.851L966.898 234.123L966.569 233.54L963.828 234.268L964.151 234.851ZM1048 212.58L1047.67 211.997L1044.92 212.725L1045.25 213.308L1048 212.58ZM969.948 233.314L972.689 232.586L972.366 232.002L969.619 232.73L969.948 233.314ZM958.361 236.389L961.101 235.661L960.778 235.073L958.025 235.805L958.361 236.389ZM1134.89 189.495L1134.56 188.917L1131.81 189.649L1132.13 190.233L1134.89 189.495ZM1036.41 215.655L1036.08 215.072L1033.33 215.8L1033.66 216.383L1036.41 215.655ZM1207.45 170.218L1210.19 169.49L1209.86 168.911L1207.11 169.639L1207.45 170.218ZM1242.21 160.984L1244.95 160.256L1244.62 159.677L1241.87 160.405L1242.21 160.984ZM1213.24 168.681L1215.98 167.953L1215.66 167.369L1212.91 168.102L1213.24 168.681ZM1236.4 162.526L1239.16 161.794L1238.83 161.215L1236.08 161.943L1236.4 162.526ZM1343.43 134.101L1343.1 133.517L1340.35 134.245L1340.68 134.829L1343.43 134.101ZM1314.46 141.793L1314.13 141.214L1311.38 141.942L1311.71 142.525L1314.46 141.793ZM1349.21 132.554L1348.89 131.975L1346.14 132.703L1346.47 133.291L1349.21 132.554ZM1201.65 171.765L1204.4 171.032L1204.07 170.453L1201.32 171.181L1201.65 171.765ZM1256.2 156.598L1253.46 157.335L1253.79 157.914L1256.53 157.186L1256.2 156.598ZM1248 159.447L1250.74 158.719L1250.41 158.135L1247.66 158.868L1248 159.447ZM1230.61 164.068L1233.37 163.336L1233.04 162.752L1230.28 163.48L1230.61 164.068ZM1320.26 140.251L1319.93 139.672L1317.17 140.4L1317.51 140.979L1320.26 140.251ZM1308.68 143.335L1308.35 142.751L1305.6 143.479L1305.92 144.063L1308.68 143.335ZM1326.05 138.713L1325.72 138.13L1322.97 138.862L1323.3 139.441L1326.05 138.713ZM1279.7 151.022L1279.37 150.443L1276.63 151.171L1276.96 151.755L1279.7 151.022ZM1337.64 135.638L1337.31 135.055L1334.56 135.783L1334.89 136.371L1337.64 135.638ZM1285.5 149.485L1285.17 148.901L1282.42 149.634L1282.75 150.217L1285.5 149.485ZM1219.03 167.143L1221.78 166.415L1221.45 165.832L1218.71 166.56L1219.03 167.143ZM1331.84 137.176L1331.51 136.592L1328.77 137.32L1329.1 137.904L1331.84 137.176ZM1224.82 165.606L1227.57 164.878L1227.23 164.294L1224.49 165.022L1224.82 165.606ZM1363.52 128.095L1363.85 128.674L1365.14 128.331V127.657L1363.52 128.095ZM1268.13 154.106L1267.8 153.518L1265.05 154.251L1265.37 154.834L1268.13 154.106ZM1291.29 147.947L1290.96 147.364L1288.22 148.096L1288.54 148.68L1291.29 147.947ZM1273.92 152.564L1273.59 151.981L1270.84 152.709L1271.17 153.292L1273.92 152.564ZM1302.88 144.872L1302.56 144.289L1299.8 145.021L1300.13 145.605L1302.88 144.872ZM1355.01 131.017L1354.68 130.438L1351.94 131.166L1352.27 131.754L1355.01 131.017ZM1360.8 129.484L1360.47 128.9L1357.73 129.633L1358.06 130.212L1360.8 129.484ZM1297.09 146.41L1296.76 145.826L1294.01 146.559L1294.34 147.142L1297.09 146.41ZM1262.33 155.644L1262 155.06L1259.25 155.788L1259.58 156.372L1262.33 155.644ZM1195.86 173.302L1198.61 172.57L1198.28 171.986L1195.53 172.719L1195.86 173.302ZM1126.51 290.413L1123.67 290.943L1123.91 291.544L1126.75 291.015L1126.51 290.413ZM1081.71 298.775L1081.94 299.372L1084.79 298.842L1084.56 298.241L1081.71 298.775ZM1336.54 251.877L1336.3 251.271L1333.46 251.8L1333.69 252.401L1336.54 251.877ZM1093.7 296.536L1093.93 297.138L1096.78 296.609L1096.54 296.007L1093.7 296.536ZM1273.75 263.589L1276.59 263.06L1276.36 262.458L1273.51 262.987L1273.75 263.589ZM1240.39 269.164L1237.55 269.694L1237.79 270.295L1240.63 269.766L1240.39 269.164ZM1228.41 271.403L1225.56 271.932L1225.8 272.533L1228.65 272.004L1228.41 271.403ZM1087.7 297.658L1087.95 298.255L1090.78 297.726L1090.55 297.124L1087.7 297.658ZM1360.51 247.404L1360.28 246.803L1357.43 247.332L1357.67 247.934L1360.51 247.404ZM1234.4 270.286L1231.56 270.815L1231.79 271.416L1234.64 270.887L1234.4 270.286ZM1330.54 252.998L1330.3 252.397L1327.46 252.926L1327.69 253.527L1330.54 252.998ZM1279.74 262.472L1282.59 261.943L1282.35 261.341L1279.51 261.87L1279.74 262.472ZM1267.75 264.706L1270.61 264.177L1270.37 263.575L1267.52 264.104L1267.75 264.706ZM1108.76 294.37L1108.52 293.769L1105.69 294.302L1105.92 294.899L1108.76 294.37ZM1120.52 291.53L1117.67 292.059L1117.91 292.661L1120.75 292.132L1120.52 291.53ZM1252.38 266.931L1249.54 267.46L1249.78 268.061L1252.63 267.532L1252.38 266.931ZM1264.37 264.692L1261.53 265.226L1261.76 265.827L1264.61 265.298L1264.37 264.692ZM1258.38 265.814L1255.53 266.343L1255.77 266.944L1258.62 266.415L1258.38 265.814ZM1102.77 295.487L1102.53 294.886L1099.69 295.419L1099.93 296.016L1102.77 295.487ZM1354.52 248.521L1354.28 247.92L1351.43 248.449L1351.68 249.05L1354.52 248.521ZM1363.66 246.817L1365.14 246.536V245.89L1363.42 246.211L1363.66 246.817ZM1246.39 268.048L1243.54 268.577L1243.77 269.178L1246.62 268.649L1246.39 268.048ZM1114.76 293.253L1114.53 292.652L1111.68 293.185L1111.92 293.782L1114.76 293.253ZM1342.54 250.76L1342.29 250.154L1339.45 250.687L1339.69 251.289L1342.54 250.76ZM1075.71 299.892L1075.95 300.488L1078.79 299.959L1078.55 299.358L1075.71 299.892ZM1348.52 249.643L1348.29 249.041L1345.45 249.571L1345.68 250.172L1348.52 249.643ZM1300.57 258.587L1300.34 257.986L1297.49 258.515L1297.73 259.117L1300.57 258.587ZM1162.71 284.304L1162.48 283.703L1159.63 284.232L1159.87 284.833L1162.71 284.304ZM1306.57 257.47L1306.33 256.869L1303.48 257.398L1303.73 258L1306.57 257.47ZM1156.73 285.421L1156.48 284.82L1153.64 285.349L1153.87 285.95L1156.73 285.421ZM1150.48 285.941L1147.64 286.47L1147.88 287.072L1150.72 286.543L1150.48 285.941ZM1168.71 283.187L1168.47 282.586L1165.63 283.115L1165.86 283.716L1168.71 283.187ZM1312.56 256.349L1312.32 255.748L1309.47 256.277L1309.72 256.883L1312.56 256.349ZM1201.83 277.006L1204.68 276.477L1204.43 275.875L1201.59 276.404L1201.83 277.006ZM1195.59 277.521L1195.83 278.123L1198.67 277.594L1198.44 276.992L1195.59 277.521ZM1132.5 289.292L1129.66 289.821L1129.89 290.422L1132.75 289.893L1132.5 289.292ZM1294.58 259.704L1294.35 259.103L1291.5 259.632L1291.73 260.233L1294.58 259.704ZM1207.82 275.889L1210.67 275.36L1210.43 274.758L1207.59 275.287L1207.82 275.889ZM1180.7 280.949L1180.45 280.347L1177.62 280.876L1177.85 281.478L1180.7 280.949ZM1174.7 282.07L1174.47 281.469L1171.61 281.998L1171.86 282.599L1174.7 282.07ZM1186.69 279.832L1186.46 279.23L1183.6 279.76L1183.84 280.361L1186.69 279.832ZM1288.34 260.22L1285.5 260.749L1285.74 261.35L1288.58 260.821L1288.34 260.22ZM1189.84 279.244L1192.68 278.715L1192.44 278.114L1189.6 278.643L1189.84 279.244ZM1144.49 287.054L1141.65 287.583L1141.88 288.184L1144.73 287.655L1144.49 287.054ZM1213.81 274.772L1216.66 274.243L1216.42 273.641L1213.58 274.17L1213.81 274.772ZM1138.49 288.175L1135.65 288.704L1135.89 289.306L1138.74 288.776L1138.49 288.175ZM1318.56 255.232L1318.32 254.631L1315.47 255.16L1315.71 255.761L1318.56 255.232ZM1324.54 254.115L1324.31 253.514L1321.46 254.043L1321.7 254.644L1324.54 254.115ZM1219.81 273.655L1222.65 273.121L1222.42 272.52L1219.57 273.049L1219.81 273.655ZM1175.74 87.9127L1175.34 87.352L1172.71 88.2383L1173.1 88.7945L1175.74 87.9127ZM1231.28 69.2955L1230.88 68.7393L1228.24 69.6256L1228.64 70.1818L1231.28 69.2955ZM1225.72 71.1586L1225.32 70.5979L1222.69 71.4842L1223.08 72.0404L1225.72 71.1586ZM1264.6 58.1261L1264.58 58.1035H1262.6L1261.57 58.4562L1261.97 59.0124L1264.6 58.1261ZM1170.19 89.7712L1169.79 89.215L1167.15 90.0968L1167.56 90.6576L1170.19 89.7712ZM1109.1 110.251L1108.7 109.691L1106.06 110.577L1106.46 111.138L1109.1 110.251ZM1131.32 102.799L1130.92 102.243L1128.27 103.129L1128.68 103.686L1131.32 102.799ZM1214.62 74.8802L1214.22 74.324L1211.58 75.2103L1211.98 75.7665L1214.62 74.8802ZM1192.4 82.328L1192.01 81.7673L1189.37 82.6536L1189.77 83.2098L1192.4 82.328ZM1181.3 86.0496L1180.9 85.4934L1178.25 86.3797L1178.66 86.9359L1181.3 86.0496ZM1103.55 112.11L1103.15 111.554L1100.51 112.436L1100.91 112.996L1103.55 112.11ZM1186.85 84.1865L1186.46 83.6303L1183.81 84.5121L1184.22 85.0729L1186.85 84.1865ZM1197.95 80.4649L1197.56 79.9087L1194.92 80.795L1195.32 81.3512L1197.95 80.4649ZM1136.87 100.941L1136.48 100.384L1133.83 101.266L1134.24 101.827L1136.87 100.941ZM1153.53 95.3559L1153.13 94.7997L1150.49 95.6815L1150.89 96.2423L1153.53 95.3559ZM1247.94 63.7108L1247.54 63.1546L1244.9 64.0409L1245.3 64.5971L1247.94 63.7108ZM1220.18 73.0171L1219.78 72.4609L1217.13 73.3427L1217.54 73.9035L1220.18 73.0171ZM1209.06 76.7433L1208.66 76.1826L1206.02 77.0689L1206.43 77.6251L1209.06 76.7433ZM1142.42 99.0821L1142.02 98.5214L1139.38 99.4077L1139.78 99.9684L1142.42 99.0821ZM1120.21 106.525L1119.81 105.969L1117.17 106.851L1117.57 107.412L1120.21 106.525ZM1147.98 97.219L1147.58 96.6628L1144.94 97.5491L1145.34 98.1053L1147.98 97.219ZM1242.38 65.5784L1241.98 65.0177L1239.34 65.904L1239.74 66.4647L1242.38 65.5784ZM1164.64 91.6343L1164.24 91.0781L1161.6 91.9644L1162 92.5206L1164.64 91.6343ZM1259.04 59.9892L1258.65 59.4285L1256.01 60.3148L1256.41 60.871L1259.04 59.9892ZM1125.76 104.667L1125.36 104.106L1122.72 104.992L1123.12 105.553L1125.76 104.667ZM1203.52 78.6064L1203.11 78.0502L1200.47 78.9274L1200.88 79.4882L1203.52 78.6064ZM1159.08 93.4974L1158.68 92.9367L1156.04 93.823L1156.44 94.3792L1159.08 93.4974ZM1253.5 61.8523L1253.1 61.2961L1250.45 62.1779L1250.86 62.7386L1253.5 61.8523ZM1114.65 108.388L1114.26 107.832L1111.62 108.719L1112.02 109.275L1114.65 108.388ZM1236.83 67.437L1236.44 66.8808L1233.8 67.7626L1234.2 68.3233L1236.83 67.437ZM964.705 158.646L964.309 158.09L961.668 158.976L962.07 159.533L964.705 158.646ZM953.598 162.368L953.203 161.812L950.561 162.693L950.963 163.254L953.598 162.368ZM959.151 160.509L958.749 159.949L956.108 160.835L956.51 161.391L959.151 160.509ZM942.485 166.094L942.089 165.533L939.454 166.42L939.85 166.98L942.485 166.094ZM948.045 164.226L947.643 163.67L945.008 164.556L945.403 165.113L948.045 164.226ZM986.924 151.198L986.523 150.642L983.881 151.524L984.289 152.085L986.924 151.198ZM981.365 153.057L980.963 152.501L978.328 153.387L978.73 153.943L981.365 153.057ZM975.811 154.925L975.409 154.364L972.774 155.25L973.176 155.806L975.811 154.925ZM970.265 156.788L969.856 156.231L967.221 157.113L967.623 157.674L970.265 156.788ZM936.945 167.953L936.543 167.396L933.901 168.278L934.303 168.839L936.945 167.953ZM992.471 149.34L992.069 148.779L989.434 149.665L989.83 150.222L992.471 149.34ZM1098 113.969L1097.6 113.412L1094.95 114.299L1095.36 114.855L1098 113.969ZM903.618 179.122L903.216 178.566L900.581 179.448L900.983 180.008L903.618 179.122ZM892.505 182.844L892.109 182.283L889.468 183.169L889.863 183.725L892.505 182.844ZM909.171 177.259L908.763 176.698L906.128 177.584L906.53 178.141L909.171 177.259ZM914.725 175.396L914.323 174.84L911.688 175.726L912.09 176.282L914.725 175.396ZM925.831 171.679L925.429 171.118L922.788 172.004L923.196 172.565L925.831 171.679ZM931.385 169.816L930.983 169.259L928.348 170.146L928.743 170.702L931.385 169.816ZM920.278 173.537L919.876 172.981L917.248 173.863L917.636 174.424L920.278 173.537ZM898.065 180.98L897.663 180.424L895.021 181.311L895.423 181.867L898.065 180.98ZM1070.22 123.279L1069.83 122.723L1067.19 123.605L1067.59 124.166L1070.22 123.279ZM1059.12 127.006L1058.72 126.445L1056.07 127.331L1056.48 127.892L1059.12 127.006ZM1053.56 128.864L1053.17 128.308L1050.53 129.19L1050.92 129.75L1053.56 128.864ZM1075.77 121.416L1075.38 120.856L1072.74 121.742L1073.14 122.298L1075.77 121.416ZM998.031 147.477L997.629 146.921L994.988 147.807L995.39 148.363L998.031 147.477ZM1092.44 115.832L1092.04 115.271L1089.39 116.157L1089.8 116.713L1092.44 115.832ZM1048.01 130.723L1047.61 130.166L1044.97 131.053L1045.38 131.609L1048.01 130.723ZM1086.89 117.695L1086.49 117.139L1083.85 118.02L1084.25 118.581L1086.89 117.695ZM1081.33 119.553L1080.93 118.997L1078.29 119.883L1078.69 120.44L1081.33 119.553ZM1064.67 125.138L1064.28 124.582L1061.63 125.468L1062.03 126.024L1064.67 125.138ZM1042.45 132.586L1042.05 132.025L1039.42 132.911L1039.82 133.468L1042.45 132.586ZM1009.13 143.755L1008.73 143.194L1006.09 144.081L1006.5 144.637L1009.13 143.755ZM1020.24 140.034L1019.84 139.477L1017.2 140.359L1017.6 140.92L1020.24 140.034ZM1003.58 145.614L1003.19 145.058L1000.55 145.939L1000.94 146.5L1003.58 145.614ZM1014.68 141.892L1014.29 141.336L1011.65 142.222L1012.05 142.778L1014.68 141.892ZM1025.79 138.17L1025.4 137.61L1022.75 138.496L1023.16 139.052L1025.79 138.17ZM1036.91 134.444L1036.5 133.888L1033.87 134.77L1034.27 135.331L1036.91 134.444ZM1031.35 136.307L1030.94 135.751L1028.31 136.637L1028.71 137.194L1031.35 136.307ZM1264.81 674.781L1226.6 682.835H1229.33L1265 675.315H1365.14V674.767H1264.93L1264.81 674.781ZM70.2895 553.672L59.8481 545.967H54.1169L64.5648 553.672H70.2895ZM20.8694 553.672H26.6006L16.1462 545.967H10.4281L20.8694 553.672ZM41.1658 553.672L30.7179 545.967H24.9867L35.4346 553.672H41.1658ZM12.0355 553.672L1.58761 545.967H0V549.023L6.30431 553.672H12.0355ZM68.6821 545.967L79.1234 553.672H84.8546L74.4067 545.967H68.6821ZM55.7309 553.672L45.2764 545.967H39.5518L49.9997 553.672H55.7309ZM116.673 503.55L119.597 503.288L119.479 502.668L116.554 502.926L116.673 503.55ZM110.401 503.482L110.513 504.102L113.438 503.839L113.32 503.22L110.401 503.482ZM122.839 503.003L125.757 502.741L125.645 502.121L122.72 502.383L122.839 503.003ZM98.1944 505.196L101.119 504.929L101.001 504.31L98.0759 504.576L98.1944 505.196ZM168.879 498.915L168.761 498.295L165.836 498.558L165.954 499.177L168.879 498.915ZM104.354 504.644L107.279 504.387L107.16 503.767L104.235 504.025L104.354 504.644ZM138.082 501.651L137.964 501.031L135.039 501.289L135.157 501.908L138.082 501.651ZM162.72 499.462L162.608 498.843L159.683 499.105L159.801 499.724L162.72 499.462ZM144.235 501.104L144.123 500.484L141.198 500.746L141.317 501.366L144.235 501.104ZM150.401 500.556L150.282 499.932L147.364 500.195L147.476 500.814L150.401 500.556ZM131.916 502.198L131.798 501.574L128.879 501.841L128.991 502.46L131.916 502.198ZM156.56 500.009L156.442 499.385L153.517 499.647L153.635 500.267L156.56 500.009ZM2.44399 513.064L0 513.281V513.91L2.56257 513.684L2.44399 513.064ZM39.5123 510.401L39.4003 509.781L36.482 510.039L36.6006 510.659L39.5123 510.401ZM92.0285 505.739L94.9533 505.476L94.8348 504.857L91.9165 505.119L92.0285 505.739ZM33.2409 510.328L30.316 510.595L30.4346 511.215L33.3595 510.948L33.2409 510.328ZM20.9287 511.423L17.9973 511.685L18.1158 512.305L21.0341 512.042L20.9287 511.423ZM175.045 498.363L174.927 497.744L171.995 498.006L172.114 498.625L175.045 498.363ZM51.8442 509.307L51.7257 508.687L48.8008 508.954L48.9193 509.573L51.8442 509.307ZM14.7628 511.97L11.8379 512.232L11.9565 512.852L14.8813 512.59L14.7628 511.97ZM45.6783 509.858L45.5597 509.234L42.6414 509.496L42.7534 510.116L45.6783 509.858ZM27.0815 510.88L24.1632 511.138L24.2752 511.757L27.2001 511.5L27.0815 510.88ZM82.6412 506.575L82.5226 505.951L79.5977 506.218L79.7163 506.837L82.6412 506.575ZM85.8757 506.281L88.8005 506.023L88.682 505.404L85.7571 505.662L85.8757 506.281ZM76.4752 507.122L76.3566 506.498L73.4383 506.761L73.5569 507.38L76.4752 507.122ZM70.3224 507.665L70.2038 507.046L67.2789 507.308L67.3975 507.923L70.3224 507.665ZM57.997 508.764L57.885 508.144L54.9602 508.402L55.0787 509.022L57.997 508.764ZM64.163 508.212L64.0444 507.588L61.1195 507.855L61.2381 508.474L64.163 508.212ZM292.08 487.972L291.961 487.352L289.037 487.61L289.155 488.234L292.08 487.972ZM267.436 490.165L267.324 489.536L264.399 489.803L264.518 490.423L267.436 490.165ZM261.283 490.707L261.165 490.088L258.24 490.346L258.358 490.965L261.283 490.707ZM285.914 488.519L285.795 487.895L282.877 488.162L282.996 488.781L285.914 488.519ZM273.602 489.613L273.483 488.994L270.558 489.256L270.677 489.875L273.602 489.613ZM248.958 491.806L248.846 491.187L245.921 491.445L246.039 492.064L248.958 491.806ZM279.761 489.07L279.643 488.451L276.718 488.709L276.836 489.328L279.761 489.07ZM224.32 493.99L224.202 493.371L221.277 493.633L221.395 494.253L224.32 493.99ZM218.161 494.542L218.042 493.918L215.124 494.18L215.236 494.8L218.161 494.542ZM209.077 495.347L212.001 495.085L211.883 494.465L208.958 494.723L209.077 495.347ZM230.48 493.443L230.368 492.824L227.443 493.081L227.561 493.701L230.48 493.443ZM242.798 492.349L242.68 491.729L239.748 491.992L239.867 492.611L242.798 492.349ZM236.639 492.892L236.52 492.272L233.602 492.534L233.714 493.158L236.639 492.892ZM341.362 483.594L341.243 482.975L338.325 483.233L338.437 483.852L341.362 483.594ZM335.196 484.146L335.084 483.522L332.159 483.789L332.277 484.408L335.196 484.146ZM347.521 483.047L347.402 482.428L344.478 482.69L344.596 483.309L347.521 483.047ZM353.674 482.5L353.562 481.88L350.637 482.147L350.756 482.767L353.674 482.5ZM329.043 484.693L328.924 484.074L325.999 484.331L326.118 484.951L329.043 484.693ZM310.558 486.33L310.44 485.711L307.515 485.968L307.633 486.588L310.558 486.33ZM322.877 485.236L322.758 484.616L319.84 484.874L319.952 485.498L322.877 485.236ZM298.239 487.429L298.121 486.809L295.196 487.067L295.315 487.687L298.239 487.429ZM304.399 486.877L304.28 486.258L301.362 486.52L301.474 487.144L304.399 486.877ZM316.724 485.783L316.606 485.163L313.681 485.426L313.799 486.045L316.724 485.783ZM255.117 491.255L254.999 490.635L252.074 490.897L252.192 491.517L255.117 491.255ZM184.432 497.536L187.357 497.273L187.239 496.649L184.314 496.912L184.432 497.536ZM178.28 498.083L181.198 497.821L181.086 497.201L178.161 497.459L178.28 498.083ZM190.598 496.984L193.523 496.722L193.405 496.102L190.48 496.364L190.598 496.984ZM5.79048 513.394L8.71537 513.137L8.59679 512.517L5.67849 512.775L5.79048 513.394ZM196.639 495.817L196.751 496.437L199.676 496.179L199.557 495.555L196.639 495.817ZM202.917 495.89L205.842 495.627L205.723 495.008L202.799 495.27L202.917 495.89ZM34.4003 501.506L34.2159 500.891L31.3305 501.312L31.515 501.927L34.4003 501.506ZM158.919 482.699L159.103 483.309L161.989 482.889L161.797 482.278L158.919 482.699ZM164.992 481.808L165.177 482.419L168.056 481.998L167.871 481.388L164.992 481.808ZM186.297 479.344L186.106 478.729L183.227 479.149L183.418 479.764L186.297 479.344ZM40.4807 500.62L40.2896 500.009L37.4043 500.43L37.5887 501.04L40.4807 500.62ZM58.7019 497.956L58.5174 497.346L55.6321 497.766L55.8231 498.386L58.7019 497.956ZM28.3266 502.392L28.129 501.777L25.2502 502.202L25.4412 502.813L28.3266 502.392ZM192.37 478.453L192.186 477.842L189.301 478.263L189.485 478.873L192.37 478.453ZM16.1791 504.16L15.9815 503.55L13.1027 503.975L13.2937 504.586L16.1791 504.16ZM7.2134 505.467L10.0922 505.047L9.90772 504.436L7.02236 504.857L7.2134 505.467ZM46.5544 499.733L46.37 499.123L43.4846 499.543L43.6625 500.149L46.5544 499.733ZM22.2528 503.279L22.0618 502.668L19.183 503.089L19.3675 503.699L22.2528 503.279ZM52.6282 498.843L52.4437 498.232L49.5583 498.653L49.756 499.263L52.6282 498.843ZM171.073 480.926L171.257 481.537L174.143 481.112L173.952 480.501L171.073 480.926ZM152.845 483.585L153.029 484.196L155.908 483.775L155.724 483.16L152.845 483.585ZM180.216 480.225L180.025 479.615L177.147 480.035L177.331 480.65L180.216 480.225ZM210.592 475.794L210.407 475.183L207.522 475.604L207.713 476.219L210.592 475.794ZM128.537 487.131L128.728 487.741L131.607 487.32L131.422 486.701L128.537 487.131ZM98.3459 492.173L101.231 491.752L101.04 491.142L98.1615 491.562L98.3459 492.173ZM64.7822 497.074L64.5978 496.459L61.7058 496.88L61.8969 497.495L64.7822 497.074ZM92.2722 493.059L95.1641 492.638L94.9665 492.028L92.0877 492.448L92.2722 493.059ZM122.648 488.627L125.533 488.207L125.348 487.596L122.463 488.012L122.648 488.627ZM134.611 486.244L134.808 486.855L137.687 486.434L137.503 485.824L134.611 486.244ZM116.574 489.514L119.466 489.093L119.275 488.478L116.389 488.899L116.574 489.514ZM110.5 490.4L113.385 489.979L113.194 489.369L110.309 489.789L110.5 490.4ZM104.426 491.286L107.312 490.861L107.121 490.251L104.242 490.676L104.426 491.286ZM204.525 476.68L204.333 476.07L201.448 476.49L201.646 477.101L204.525 476.68ZM76.9297 495.297L76.7453 494.687L73.8665 495.107L74.051 495.718L76.9297 495.297ZM86.1985 493.95L89.0772 493.529L88.8862 492.914L86.0074 493.335L86.1985 493.95ZM1.13965 506.358L4.01842 505.938L3.83397 505.323L0.955198 505.748L1.13965 506.358ZM70.856 496.188L70.6649 495.578L67.7862 495.998L67.9772 496.609L70.856 496.188ZM146.771 484.467L146.956 485.078L149.834 484.661L149.65 484.046L146.771 484.467ZM140.684 485.353L140.875 485.964L143.754 485.543L143.57 484.933L140.684 485.353ZM80.1247 494.831L83.0035 494.406L82.819 493.796L79.9402 494.221L80.1247 494.831ZM198.444 477.571L198.26 476.96L195.374 477.381L195.559 477.991L198.444 477.571ZM1.08036 491.752L0 492.028V492.693L1.39657 492.344L1.08036 491.752ZM123.814 461.436L123.504 460.848L120.744 461.545L121.053 462.128L123.814 461.436ZM112.16 464.38L111.844 463.792L109.084 464.489L109.393 465.072L112.16 464.38ZM117.984 462.901L117.667 462.314L114.901 463.01L115.217 463.598L117.984 462.901ZM106.324 465.845L106.007 465.257L103.241 465.954L103.557 466.546L106.324 465.845ZM135.467 458.493L135.157 457.905L132.391 458.601L132.7 459.184L135.467 458.493ZM129.644 459.958L129.327 459.37L126.561 460.071L126.877 460.659L129.644 459.958ZM141.304 457.018L140.987 456.426L138.221 457.127L138.537 457.715L141.304 457.018ZM147.134 455.549L146.824 454.961L144.051 455.662L144.36 456.241L147.134 455.549ZM100.5 467.319L100.184 466.736L97.4105 467.433L97.7201 468.016L100.5 467.319ZM88.8335 470.263L88.5239 469.68L85.7571 470.376L86.0667 470.96L88.8335 470.263ZM53.86 479.095L53.5438 478.507L50.7836 479.203L51.0998 479.787L53.86 479.095ZM94.6635 468.789L94.3539 468.201L91.5871 468.898L91.9033 469.486L94.6635 468.789ZM59.69 477.625L59.3804 477.037L56.6071 477.734L56.9167 478.322L59.69 477.625ZM48.03 480.565L47.7138 479.981L44.9405 480.678L45.2567 481.265L48.03 480.565ZM65.5135 476.151L65.2038 475.563L62.4305 476.264L62.7401 476.843L65.5135 476.151ZM152.957 454.07L152.647 453.487L149.887 454.183L150.197 454.771L152.957 454.07ZM83.0035 471.733L82.6873 471.145L79.9271 471.842L80.2433 472.429L83.0035 471.733ZM77.1735 473.207L76.8639 472.619L74.0971 473.316L74.4067 473.899L77.1735 473.207ZM71.3501 474.681L71.0404 474.093L68.2737 474.79L68.5833 475.378L71.3501 474.681ZM182.107 446.713L181.791 446.129L179.031 446.826L179.347 447.414L182.107 446.713ZM205.427 440.829L205.117 440.242L202.344 440.938L202.66 441.526L205.427 440.829ZM211.25 439.355L210.941 438.767L208.181 439.464L208.49 440.052L211.25 439.355ZM36.37 483.508L36.0538 482.921L33.2804 483.621L33.5966 484.209L36.37 483.508ZM199.597 442.299L199.287 441.711L196.514 442.408L196.824 442.996L199.597 442.299ZM158.794 452.605L158.484 452.017L155.711 452.713L156.027 453.297L158.794 452.605ZM193.767 443.769L193.457 443.185L190.684 443.882L191.007 444.47L193.767 443.769ZM24.7034 486.452L24.3938 485.864L21.627 486.561L21.9432 487.149L24.7034 486.452ZM30.54 484.983L30.2304 484.395L27.4636 485.091L27.7732 485.674L30.54 484.983ZM7.21999 490.87L6.91037 490.282L4.137 490.983L4.4532 491.567L7.21999 490.87ZM187.937 445.243L187.627 444.655L184.861 445.352L185.17 445.939L187.937 445.243ZM164.617 451.131L164.307 450.543L161.541 451.239L161.857 451.827L164.617 451.131ZM18.88 487.926L18.5704 487.339L15.797 488.035L16.1132 488.618L18.88 487.926ZM13.05 489.396L12.7404 488.808L9.98018 489.509L10.2898 490.092L13.05 489.396ZM42.2 482.039L41.8838 481.451L39.1236 482.147L39.4332 482.731L42.2 482.039ZM170.454 449.656L170.144 449.069L167.377 449.77L167.687 450.353L170.454 449.656ZM176.277 448.187L175.967 447.599L173.194 448.295L173.51 448.883L176.277 448.187ZM1228.55 487.569L1228.93 487.646V482.78L1237.63 484.521L1238.14 484.621V471.629L1237.88 471.557L1221.9 467.383L1221.36 467.243V472.827L1212.77 470.58L1212.36 470.48V484.327L1212.57 484.368L1228.55 487.569ZM1222.16 468.043L1237.34 472.009V483.893L1228.93 482.206V474.808L1228.74 474.763L1222.16 473.044V468.043ZM1222.16 473.46L1228.35 475.079V482.088L1222.16 480.849V473.46ZM1212.94 471.05L1221.36 473.252V481.261L1221.65 481.315L1228.35 482.663V487.117L1212.95 484.028V471.05H1212.94ZM127.074 465.967V482.767L127.397 482.78L136.883 483.083L136.969 483.079L171.06 477.675L171.323 477.63V458.859L171.007 458.841L160.579 458.303L160.447 458.312L127.305 465.913L127.074 465.967ZM160.888 458.777L170.651 459.284V477.205L160.888 476.838V458.777ZM160.572 477.291L168.616 477.589L136.877 482.618L129.782 482.387L160.572 477.291ZM127.746 466.302L160.21 458.854V476.879L127.746 482.256V466.302ZM1200.16 433.63L1199.95 433.549L1177.17 424.944L1176.57 424.718V431.365L1168.01 428.132L1167.58 427.969V444.592L1167.74 444.646L1190.53 451.859L1190.94 451.99V446.066L1199.58 448.806L1200.16 448.987V433.63ZM1190.37 451.379L1168.16 444.343V428.647L1176.57 431.822V441.526L1176.8 441.598L1190.37 445.899V451.379ZM1190.37 445.288L1177.37 441.169V432.125L1190.37 437.036V445.288ZM1199.36 448.133L1190.94 445.465V436.8L1190.8 436.742L1177.38 431.672V425.654L1199.36 433.961V448.133ZM1238.14 447.965L1237.93 447.884L1221.96 441.856L1221.36 441.63V448.277L1212.8 445.044L1212.36 444.886V458.768L1212.53 458.827L1228.51 463.883L1228.93 464.009V458.09L1237.56 460.826L1238.14 461.002V447.965ZM1228.35 463.394L1212.94 458.524V445.56L1221.36 448.738V455.702L1221.59 455.779L1228.35 457.918V463.394ZM1228.35 457.308L1222.16 455.35V449.042L1228.35 451.375V457.308ZM1237.34 460.148L1228.93 457.484V451.131L1228.78 451.076L1222.16 448.58V442.561L1237.34 448.291V460.148ZM1176.57 455.531V461.115L1167.98 458.868L1167.58 458.768V475.355L1167.78 475.396L1190.58 479.963L1190.94 480.04V475.174L1199.65 476.915L1200.16 477.019V461.708L1199.9 461.644L1177.11 455.68L1176.57 455.531ZM1190.37 479.506L1168.16 475.057V459.347L1176.57 461.549V472.285L1176.86 472.348L1190.37 475.057V479.506ZM1177.38 456.331L1199.36 462.083V476.282L1190.94 474.591V464.873L1190.76 464.828L1177.38 461.328V456.331ZM1177.38 461.753L1190.38 465.153V474.478L1177.38 471.873V461.753ZM568.837 547.079H564.549V549.833H558.541V547.079H554.252V549.833H548.264V547.079H543.982V549.833H537.974V547.079H533.693V549.833H527.691V547.079H523.403V549.833H517.395V547.079H513.106V549.833H158.609L158.491 549.846L114.11 559.212H0V559.759H114.163L114.281 559.745L158.662 550.389H1365.14V549.833H568.837V547.079Z" fill="#BFAFCF"/>
<path fill-rule="evenodd" clip-rule="evenodd" d="M676.839 266.142L677.012 266.139V249.85L676.843 249.847L654.054 249.202L653.871 249.195V266.364H654.051L676.839 266.142ZM654.224 249.536L676.663 250.174V265.815L654.224 266.033V249.536ZM611.487 252.297L611.332 252.3V255.715L611.49 255.712L614.478 255.661L614.629 255.657V252.215L614.467 252.218L611.487 252.297ZM614.319 255.367L611.649 255.415V252.593L614.319 252.525V255.367ZM590.237 252.836L590.082 252.839V256.077H590.241L592.89 256.029L593.048 256.026V252.767L592.886 252.771L590.237 252.836ZM592.731 255.732L590.399 255.773V253.133L592.731 253.075V255.732ZM597.042 252.665L596.887 252.669V255.961H597.045L599.802 255.913L599.957 255.91V252.59L599.799 252.593L597.042 252.665ZM599.647 255.616L597.207 255.657V252.959L599.647 252.894V255.616ZM604.124 252.484L603.969 252.491V255.842L604.127 255.838L606.992 255.787L607.147 255.784V252.406L606.989 252.413L604.124 252.484ZM606.834 255.494L604.286 255.541V252.781L606.834 252.713V255.494ZM623.427 205.659L615.494 201.138L615.357 201.111L528.892 215.004L528.726 215.031V239.468L528.943 239.454L549.94 237.816L558.11 240.051L558.179 240.058L562.223 239.778L650.587 233.695L650.771 233.681V201.697L650.544 201.728L623.427 205.659ZM529.815 239.01L529.126 239.065V215.345L529.815 215.236V239.01ZM531.678 235.984V238.864L530.132 238.987V215.185L615.357 201.493L616.54 202.165L537.715 214.577L537.581 214.598V229.894L531.721 235.885L531.678 235.984ZM647.747 233.514L599.842 236.813L602.015 235.438L647.747 232.094V233.514ZM650.375 233.333L648.061 233.493V224.974L650.375 223.264V233.333ZM650.375 222.886L647.805 224.783L647.747 224.83V231.791L601.95 235.138L601.875 235.165L599.208 236.854L562.19 239.403L558.182 239.679L550.012 237.451L549.94 237.444L531.988 238.84V236.045L537.852 230.051L537.891 229.952V214.85L616.95 202.404L623.279 206.01L623.413 206.037L650.371 202.131V222.886H650.375ZM650.598 197.75L650.731 197.729V195.423L650.544 195.454L648.814 195.73L648.839 195.877H648.681V198.047L648.868 198.016L650.598 197.75ZM649.001 196.01L650.418 195.784V197.48L649.001 197.705V196.01ZM638.077 199.705L638.214 199.684V197.436L638.031 197.47L636.405 197.729L636.43 197.876H636.272V199.985L636.456 199.954L638.077 199.705ZM636.589 198.002L637.897 197.787V199.425L636.589 199.633V198.002ZM644.237 198.739L644.37 198.719V196.443L644.19 196.477L642.514 196.743L642.539 196.89H642.381V199.029L642.565 199.002L644.237 198.739ZM642.698 198.364V197.02L644.057 196.798V198.466L642.694 198.681L642.698 198.364ZM667.112 251.068L666.885 251.061V264.713L667.108 264.709L675.016 264.661H675.232V251.266L675.019 251.263L667.112 251.068ZM674.792 264.249L667.328 264.296V251.488L674.792 251.672V264.249ZM656.001 250.792L655.773 250.785V264.777H655.993L664.146 264.726H664.366V250.993H664.153L656.001 250.792ZM663.933 264.317L656.213 264.365V251.212L663.933 251.406V264.317ZM520.696 117.501L520.538 117.518L504.593 125.652L504.644 126.034L509.174 127.078L509.329 127.061L525.407 119.05L525.36 118.668L520.696 117.501ZM509.196 126.655L505.296 125.764L520.664 117.92L524.697 118.934L509.196 126.655ZM617.581 73.0703L617.675 73.1078L617.765 73.0635L622.284 70.815L622.692 70.6137L622.27 70.4431L617.069 68.3482L616.968 68.3106L616.875 68.355L612.362 70.6546L611.955 70.8628L612.384 71.03L617.581 73.0703ZM616.994 68.7678L621.672 70.6478L617.657 72.6472L612.979 70.8082L616.994 68.7678ZM554.344 104.573L554.513 104.559L557.642 103.003L557.606 102.621L552.697 101.175L552.61 101.147L552.531 101.188L549.421 102.775L548.956 103.01L549.457 103.157L554.344 104.573ZM552.654 101.598L556.968 102.867L554.384 104.15L550.084 102.901L552.654 101.598ZM572.941 95.306L573.028 95.3367L573.11 95.2923L576.614 93.5454L577.064 93.3202L576.581 93.1633L571.561 91.5392L571.474 91.5153L571.391 91.5563L567.91 93.3373L567.466 93.5625L567.946 93.7126L572.941 95.306ZM571.514 91.9691L575.965 93.4055L572.995 94.8897L568.562 93.4772L571.514 91.9691ZM593.859 84.8859L593.949 84.92L594.032 84.8757L597.997 82.9001L598.425 82.6852L597.971 82.5248L592.843 80.6858L592.753 80.6551L592.666 80.696L588.723 82.7125L588.302 82.9308L588.756 83.0912L593.859 84.8859ZM592.789 81.1054L597.366 82.7432L593.913 84.4628L589.358 82.8558L592.789 81.1054ZM781.275 253.955L781.094 253.951L778.611 253.887L778.424 253.883V262.072H781.275V253.955ZM780.907 261.724H778.791V254.241L780.907 254.293V261.724ZM775.504 253.812L775.328 253.808L772.758 253.743L772.564 253.74V262.072H775.501V253.812H775.504ZM775.14 261.724H772.938V254.098L775.14 254.156V261.724ZM766.682 253.597L766.494 253.593V262.075H769.532V253.668L769.349 253.665L766.682 253.597ZM769.161 261.724H766.869V253.948L769.161 254.009V261.724ZM542.815 229.59H543.251V224.936H542.815V229.59ZM552.077 228.607H552.517V223.817H552.077V228.607ZM547.377 229.106H547.817V224.383H547.377V229.106ZM556.925 228.092H557.364V223.227H556.925V228.092ZM766.022 160.218L766.184 160.232L795.388 154.589L795.64 154.537V140.067L795.446 139.989L792.721 138.894L792.526 138.88L763.215 145.366L762.973 145.417V159.277L763.189 159.348L766.022 160.218ZM792.919 139.624L795.013 140.467V153.865L792.919 153.121V139.624ZM792.573 153.637L794.192 154.21L766.145 159.628L764.523 159.126L792.573 153.637ZM763.607 145.898L792.289 139.552V153.087L763.607 158.703V145.898ZM926.018 210.299L926.739 210.521V176.94L926.443 176.794L834.651 131.497L833.84 131.097V182.3L834.229 182.416L926.018 210.299ZM845.766 184.825L844.476 184.436V172.662L845.766 173.115V184.825ZM845.766 172.798L844.476 172.344V155.213L845.766 155.755V172.798ZM845.766 155.428L844.476 154.885V153.565L845.766 154.114V155.428ZM863.325 190.158L849.265 185.89V174.351L863.325 179.295V190.158ZM863.325 178.97L849.265 174.03V157.229L863.325 163.163V178.97ZM863.325 162.842L849.265 156.909V155.619L863.325 161.648V162.842ZM864.806 190.609L863.642 190.25V179.404L864.806 179.813V190.609ZM864.806 179.496L863.642 179.086V163.299L864.806 163.791V179.496ZM864.806 163.463L863.642 162.968V161.778L864.806 162.276V163.463ZM877.781 194.549L867.866 191.533V180.888L877.781 184.378V194.549ZM879.969 195.211L878.102 194.648V184.406L879.969 184.18V195.211ZM879.969 183.877L877.968 184.119L867.87 180.571V165.077L879.969 170.188V183.877ZM879.969 169.854L867.87 164.753V163.586L879.969 168.772V169.854ZM881.169 195.58L880.286 195.314V184.143L881.169 184.034V195.58ZM881.169 183.73L880.286 183.839V170.318L881.169 170.69V183.73ZM881.169 170.365L880.286 169.994V168.912L881.169 169.291V170.365ZM894.442 199.609L883.875 196.402L883.872 183.703L894.442 182.42V199.609ZM894.442 182.116L883.872 183.403L883.868 171.829L894.442 176.292V182.116ZM894.442 175.964L883.868 171.505V170.447L894.442 174.982V175.964ZM895.38 199.896L894.76 199.708V182.382L895.38 182.307V199.896ZM895.38 182.007L894.76 182.082V176.425L895.38 176.684V182.007ZM895.38 176.364L894.76 176.104V175.122L895.38 175.384V176.364ZM907.147 203.472L897.798 200.629V182.017L905.73 181.052L907.147 181.649V203.472ZM897.798 181.717V177.708L905.175 180.82L897.798 181.717ZM907.147 181.325L906.329 180.977L907.147 180.881V181.325ZM907.147 180.577L905.777 180.745L897.801 177.38V176.422L907.15 180.427V180.577H907.147ZM907.839 203.68L907.46 203.564V181.785L907.839 181.942V203.68ZM907.839 181.618L907.46 181.458V180.84L907.839 180.792V181.618ZM924.54 208.753L910.109 204.369V179.567L924.54 177.793V208.753ZM924.857 177.749L925.632 177.657V209.084L924.857 208.852V177.749ZM834.95 132.824L924.673 177.097L924.407 177.128L834.95 133.465V132.824ZM834.95 133.806L923.855 177.2L909.807 178.929L834.946 146.025V133.806H834.95ZM834.95 146.768L909.396 179.489V204.154L908.275 203.809V180.458L908.149 180.4L897.668 175.906L897.358 175.777V200.493L895.819 200.026V175.115L895.693 175.057L883.742 169.932L883.432 169.802V170.123L883.439 196.262L881.612 195.706V169.014L881.482 168.96L867.736 163.078L867.426 162.944V191.407L865.242 190.742V162.01L865.116 161.952L849.139 155.107L848.833 154.971V185.753L846.206 184.952V153.845L846.079 153.79L834.954 149.017V146.768H834.95ZM834.95 149.474L844.158 153.425V154.746L834.95 150.859V149.474ZM834.95 151.194L844.158 155.08V172.232L834.95 168.994V151.194ZM834.95 169.311L844.158 172.546V184.334L834.95 181.54V169.311ZM909.569 271.148L909.49 271.131H879.406L851.824 261.714L851.749 261.703H843.946V259.393H843.506V273.4H835.732V272.089H835.235V273.4H827.457V254.218H827.017V261.707H787.629V237.806L795.489 234.101L795.557 234.067L795.572 233.991L795.81 232.913L801.447 230.29L801.63 230.204V224.991L835.235 222.759V223.414H835.732V222.729L843.477 222.213V222.705H843.978V222.179L931.197 216.386L931.716 216.352V174.832L931.427 174.682L857.284 136.072L897.755 127.818L898.137 127.743V91.9827L897.974 91.8463L794.833 4.36047L794.595 4.15575L794.314 4.28882L708.087 44.1438V38.8962H707.719V44.3178L707.611 44.3656L649.556 12.0237L649.812 11.8702L649.546 11.4744L649.254 11.6518V3.46313C649.686 3.42219 650.086 3.26524 650.375 2.98546C650.71 2.66814 650.919 2.23141 650.919 1.75033C650.919 1.26924 650.71 0.829104 650.375 0.515204C650.043 0.201305 649.578 0 649.07 0C648.562 0 648.1 0.197893 647.765 0.515204C647.434 0.832515 647.221 1.26924 647.221 1.75033C647.221 2.23141 647.43 2.67156 647.765 2.98546C648.054 3.26524 648.454 3.42219 648.886 3.46313V11.6518L643.866 8.85742L643.678 9.15767L648.731 11.9691L648.187 12.3035L648.454 12.6993L648.886 12.4366V26.8998L648.803 26.9476L549.334 83.7054L549.078 83.8487V88.233L514.76 107.333V106.477H514.263V107.606L478.042 127.771L477.783 127.914V132.994L478.19 133.08L514.263 140.613V141.896H514.76V140.716L525.692 142.998L514.76 147.495V146.601H514.263V147.703L478.093 162.586L477.779 162.716V167.861L478.219 167.933L497.85 170.925L425.412 196.143L425.07 196.266V224.646L425.567 224.677L508.306 229.317H508.403L522.744 227.563V248.315L523.327 248.332L585.981 249.878V252.941L583.905 253.01L583.692 253.017V259.823L582.413 259.864L582.2 259.871V261.714H509.664L464.39 268.783H309.051V269.196H464.404L464.437 269.193L509.715 262.126H582.193V270.196H504.096V273.403H309.051V274H919.66V273.403H915.324L909.569 271.148ZM795.28 233.862L787.398 237.574L787.311 237.618V261.703H786.695V237.158L795.449 233.081L795.28 233.862ZM787.311 262.12V267.756H786.695V262.12H787.311ZM800.974 229.812L786.223 236.684L786.039 236.769V269.537H753.184V259.806L753.163 259.738L751.465 256.756V247.411L769.673 246.878L770.257 246.858V210.371L800.974 215.236V229.812ZM707.359 247.581L611.278 243.965L621.524 243.453L717.342 247.284L707.359 247.581ZM715.889 248.455V272.072H706.025V248.745L715.889 248.455ZM632.257 265.63L628.57 262.161V246.138L679.113 247.882V271.185H653.654L650.883 270.203L650.811 270.189H632.304V265.671L632.257 265.63ZM631.262 266.811L627.572 263.341V246.104L628.253 246.128V262.283L628.3 262.328L631.99 265.798V270.189H631.313V266.849L631.262 266.811ZM627.305 263.508L630.995 266.978V270.189H626.361V246.06L627.254 246.09V263.461L627.305 263.508ZM699.851 271.516V272.072H656.145L654.584 271.516H699.851ZM679.993 271.185V260.697H682.847L693.231 267.848L693.393 267.903H699.851V271.185H679.993ZM693.479 267.381L683.1 260.226L682.937 260.175H679.993V258.994H685.604L696.247 266.627L696.381 266.671H699.851V267.381H693.479ZM679.993 248.383V247.841L688.398 248.141L679.993 248.383ZM692.726 249.137V263.583L685.806 258.622L685.673 258.578H681.186V249.475L692.726 249.137ZM680.869 249.485V258.578H679.993V249.509L680.869 249.485ZM693.04 263.812V249.13L699.051 248.953V266.258H696.456L693.04 263.812ZM699.368 266.258V248.943L699.851 248.926V266.258H699.368ZM693.007 248.001L679.993 247.537V247.08L679.571 247.066L625.939 245.213H625.907L620.706 245.439L597.834 244.627L607.875 244.128L702.929 247.704L693.007 248.001ZM557.851 246.616L567.459 246.138L589.037 246.81L586.399 246.923L585.977 246.94V247.435L557.851 246.616ZM585.977 247.731V248.404L544.627 247.274L554.049 246.807L585.977 247.731ZM602.959 246.21L593.019 246.64L571.128 245.957L580.848 245.473L602.959 246.21ZM584.47 245.292L594.342 244.804L616.932 245.602L606.884 246.039L584.47 245.292ZM586.853 247.735L625.485 246.066V270.189H586.853V247.735ZM700.291 271.516H705.398V272.072H700.291V271.516ZM700.291 271.185V248.915L705.398 248.765V271.185H700.291ZM625.672 191.025V192.038L624.375 192.267L600.137 188.732V136.669L625.78 143.148H625.672V144.66H626.17V143.247L705.178 163.217V194.085L679.553 189.694V188.374H679.056V189.612L658.851 186.149H658.635L626.17 191.953V191.028H625.672V191.025ZM520.123 205.665L526.178 204.447L545.193 206.43L538.915 207.549L520.123 205.665ZM537.834 207.743L531.617 208.856L513.153 207.068L519.125 205.867L537.834 207.743ZM527.162 204.246L533.285 203.014L552.614 205.096L546.264 206.232L527.162 204.246ZM534.259 202.823L540.465 201.571L560.082 203.765L553.659 204.911L534.259 202.823ZM541.427 201.38L547.716 200.114L567.629 202.421L561.12 203.588L541.427 201.38ZM548.66 199.923L555.029 198.64L575.222 201.063L568.645 202.236L548.66 199.923ZM555.962 198.453L562.414 197.156L582.881 199.691L576.228 200.879L555.962 198.453ZM563.347 196.965L569.892 195.651L590.623 198.306L583.879 199.51L563.347 196.965ZM570.807 195.467L577.45 194.13L598.436 196.904L591.607 198.128L570.807 195.467ZM578.354 193.949L585.09 192.594L606.329 195.498L599.406 196.736L578.354 193.949ZM585.977 192.417L592.828 191.038L614.298 194.072L607.288 195.331L585.977 192.417ZM593.711 190.854L599.629 189.667L621.264 192.826L615.246 193.904L593.711 190.854ZM488.368 164.497L507.459 167.571L503.505 168.949L484.562 165.985L488.368 164.497ZM483.971 165.896L483.704 165.848L487.492 164.36L487.784 164.405L483.971 165.896ZM488.036 164.149L491.842 162.651L492.156 162.702L488.332 164.193L488.036 164.149ZM488.916 164.289L492.736 162.798L512.018 165.991L508.05 167.373L488.916 164.289ZM492.386 162.436L496.203 160.935L496.538 160.996L492.704 162.491L492.386 162.436ZM493.28 162.583L497.115 161.092L516.581 164.401L512.609 165.787L493.28 162.583ZM496.74 160.727L500.568 159.219L500.928 159.283L497.079 160.785L496.74 160.727ZM497.656 160.88L501.501 159.382L521.147 162.811L517.172 164.197L497.656 160.88ZM501.097 159.01L504.943 157.496L505.329 157.567L501.465 159.075L501.097 159.01ZM502.035 159.174L505.894 157.666L525.713 161.221L521.72 162.61L502.035 159.174ZM505.476 157.291L509.329 155.773L509.736 155.848L505.862 157.363L505.476 157.291ZM506.424 157.461L510.295 155.953L530.287 159.628L526.286 161.02L506.424 157.461ZM509.863 155.564L513.73 154.043L514.159 154.121L510.273 155.639L509.863 155.564ZM510.832 155.742L514.717 154.227L534.871 158.031L530.86 159.427L510.832 155.742ZM514.252 153.838L518.138 152.306L518.592 152.391L514.681 153.916L514.252 153.838ZM515.243 154.026L519.143 152.504L539.466 156.434L535.444 157.833L515.243 154.026ZM518.664 152.108L522.571 150.566L523.043 150.661L519.114 152.193L518.664 152.108ZM519.666 152.299L523.587 150.767L544.062 154.831L540.032 156.24L519.666 152.299ZM523.086 150.365L527.007 148.822L527.501 148.921L523.565 150.457L523.086 150.365ZM524.109 150.566L528.038 149.034L548.668 153.227L544.62 154.64L524.109 150.566ZM745.742 135.642L741.745 136.635L646.288 102.942L650.447 101.321L745.742 135.642ZM649.582 99.9633V28.1929L650.764 28.8105V100.386L649.582 99.9633ZM784.259 125.553V123.257L789.586 125.618L786.277 126.43L784.259 125.553ZM785.798 126.549L784.262 126.928V125.884L785.798 126.549ZM784.259 122.926V120.571L793.363 124.683L790.061 125.495L784.259 122.926ZM784.259 120.241V118.562L783.967 118.425L775.086 114.379V113.611L797.136 123.751L793.846 124.563L784.259 120.241ZM783.228 119.179V127.18L775.086 129.187V115.471L783.228 119.179ZM775.086 113.284V110.738L800.884 122.834L797.605 123.646L775.086 113.284ZM775.086 110.4V107.79L804.622 121.912L801.353 122.721L775.086 110.4ZM775.086 107.456V104.778L808.348 120.991L805.087 121.796L775.086 107.456ZM775.086 104.443V101.707L812.061 120.084L808.81 120.885L775.086 104.443ZM775.086 101.369V98.561L815.762 119.173L812.518 119.971L775.086 101.369ZM775.086 98.2198V95.3401L819.456 118.265L816.216 119.06L775.086 98.2198ZM775.086 94.9989V92.0442L847.453 130.173V130.947L822.112 117.753L821.716 117.709L819.903 118.152L775.086 94.9989ZM775.086 91.6996V88.6663L847.453 127.556V129.831L775.086 91.6996ZM775.086 88.3217V85.2066L847.453 124.871V127.211L775.086 88.3217ZM754.06 73.3399L757.765 71.9853L847.445 122.127V124.533L754.06 73.3399ZM774.769 85.036V88.158L749.988 74.8377L753.685 73.4832L774.769 85.036ZM774.769 88.4957V91.5324L745.915 76.3253L749.606 74.9742L774.769 88.4957ZM774.769 91.8736V94.8351L741.839 77.8197L745.533 76.4686L774.769 91.8736ZM774.769 95.1729V98.0594L737.77 79.3108L741.457 77.963L774.769 95.1729ZM774.769 98.4006V101.212L733.701 80.8018L737.384 79.4507L774.769 98.4006ZM774.769 101.55V104.29L735.795 85.2885L733.135 81.0065L733.312 80.9451L774.769 101.55ZM774.769 104.627V107.306L738.779 90.0925L736.09 85.773L774.769 104.627ZM774.769 107.637V110.25L741.648 94.7123L739.071 90.5668L774.769 107.637ZM774.769 110.588V113.137L744.408 99.1683L741.94 95.1866L774.769 110.588ZM774.769 113.468V114.239L745.482 100.902L744.697 99.6357L774.769 113.468ZM821.294 118.889V185.18L725.956 197.641L706.241 194.263V193.171L807.354 178.213L807.545 177.316L793.071 168.939L792.707 168.874L761.117 174.146L721.306 151.129L720.914 151.067L689.562 158.233L679.553 155.704V155.042H679.056V155.581L675.682 154.728L821.294 118.889ZM827.49 204.642V203.516C829.065 203.591 830.69 203.697 832.37 203.844C836.107 204.174 839.96 204.669 843.474 205.263V206.283H843.975V205.341C845.478 205.604 846.934 205.877 848.26 206.174C851.868 206.986 854.153 207.76 855.162 208.429C855.475 208.634 855.641 208.808 855.663 208.951C855.677 209.043 855.587 209.149 855.4 209.262C854.848 209.582 853.68 209.831 851.907 209.982C848.746 210.244 844.252 210.149 839.361 209.753H839.358C834.564 209.364 829.407 208.678 824.758 207.76C820.483 206.921 817.445 206 816.039 205.188C815.636 204.952 815.387 204.741 815.315 204.56C815.275 204.461 815.34 204.355 815.506 204.243C815.953 203.949 816.944 203.71 818.523 203.55C820.703 203.328 823.691 203.332 826.992 203.485V204.635H827.49V204.642ZM843.477 210.613V211.224L838.828 210.299C838.987 210.313 839.152 210.34 839.307 210.354C840.742 210.466 842.129 210.548 843.477 210.613ZM814.728 204.775C814.85 205.082 815.185 205.396 815.715 205.703C815.719 205.703 815.722 205.706 815.729 205.706L758.825 194.403L766.84 193.352L815.697 203.495C815.474 203.577 815.293 203.666 815.146 203.758C814.706 204.048 814.573 204.389 814.728 204.775ZM818.454 202.96C817.568 203.052 816.854 203.171 816.299 203.315L767.748 193.232L775.897 192.171L824.866 202.806C822.393 202.741 820.184 202.786 818.454 202.96ZM699.062 160.635L697.584 160.263L700.846 159.539V160.246L699.062 160.635ZM700.846 160.553V161.088L699.711 160.802L700.846 160.553ZM695.465 159.73L691.648 158.768L720.946 152.074L723.433 153.51L695.465 159.73ZM726.212 187.449C724.532 185.852 722.272 184.498 719.663 183.457V156.424L726.049 155.025L728.954 156.704V187.029L726.212 187.449ZM728.951 187.452V188.824L719.659 190.199V183.907C722.186 184.938 724.359 186.258 725.974 187.818L726.053 187.893L726.165 187.872L728.951 187.452ZM719.659 156.121V155.356L724.691 154.237L725.667 154.804L719.659 156.121ZM718.25 182.908C715.821 182.089 713.122 181.546 710.267 181.338L710.274 158.488L719.22 156.523V183.287C718.895 183.16 718.585 183.02 718.25 182.908ZM719.22 183.733V190.264L710.263 191.588L710.267 181.751C713.067 181.959 715.72 182.492 718.102 183.3C718.492 183.43 718.848 183.59 719.22 183.733ZM710.274 158.178V157.441L719.22 155.452V156.216L710.274 158.178ZM709.838 157.537V158.27L701.282 160.143V159.437L709.838 157.537ZM701.282 160.461L709.838 158.581L709.835 181.321C709.125 181.277 708.415 181.239 707.69 181.239C707.38 181.239 707.052 181.243 706.71 181.253C706.548 181.256 706.396 181.263 706.241 181.27V162.453L705.848 162.354L701.286 161.204V160.461H701.282ZM709.835 181.734L709.831 191.653L706.241 192.181V181.686C706.404 181.679 706.569 181.666 706.728 181.662C707.027 181.652 707.351 181.649 707.69 181.649C708.415 181.649 709.125 181.693 709.835 181.734ZM769.064 206.167V245.725L659.345 240.512V187.374L769.064 206.167ZM739.1 185.91V187.323L729.394 188.756V187.381L739.1 185.91ZM729.394 186.965V156.956L739.1 162.566V185.487L729.394 186.965ZM749.663 184.3V185.76L739.539 187.255V185.842L749.663 184.3ZM739.539 185.422V162.822L749.663 168.677V183.884L739.539 185.422ZM760.692 182.625V184.133L750.099 185.695V184.235L760.692 182.625ZM750.103 183.815V168.929L760.695 175.053V182.205L750.103 183.815ZM784.673 178.558L784.67 174.129L796.689 172.191L796.823 172.266L796.826 176.708L784.673 178.558ZM796.826 177.131V178.79L784.673 180.584V178.981L796.826 177.131ZM767.666 175.883L763.373 174.767L792.692 169.881L795.345 171.416L767.666 175.883ZM772.646 180.39V176.07L784.23 174.204V178.626L772.646 180.39ZM784.233 179.045V180.649L772.65 182.358V180.803L784.233 179.045ZM767.507 176.855L767.727 176.865L772.21 176.138V180.455L761.131 182.14V175.207L767.507 176.855ZM772.21 180.871V182.427L761.131 184.064V182.556L772.21 180.871ZM803.479 176.118L805.8 177.455L797.255 178.721V177.063L803.479 176.118ZM797.259 176.643V172.522L802.906 175.787L797.259 176.643ZM737.359 138.471L732.811 139.586L732.086 139.341L736.624 138.211L737.359 138.471ZM737.157 138.085L741.731 136.949L742.473 137.208L737.892 138.337L737.157 138.085ZM677.045 152.705L660.325 148.222L664.629 147.062L681.334 151.644L679.557 152.081V152.009H679.059V152.207L677.045 152.705ZM679.059 152.514V152.821L678.227 153.026L677.643 152.866L679.059 152.514ZM626.173 131.899V130.606L673.772 144.233L669.433 145.404L621.654 132.015L625.672 130.654V131.896H626.173V131.899ZM679.557 144.36V143.155L696.063 147.983L691.728 149.058L674.994 144.267L679.063 143.172V144.36H679.557ZM691.137 149.205L686.823 150.279L670.089 145.588L674.421 144.421L691.137 149.205ZM686.224 150.426L681.921 151.497L665.195 146.908L669.516 145.745L686.224 150.426ZM626.09 133.574H625.672V135.089H626.17V133.598L668.856 145.561L664.528 146.727L616.842 133.653L621.149 132.193L626.09 133.574ZM663.962 146.878L659.651 148.044L612.056 135.274L616.338 133.823L663.962 146.878ZM679.557 152.391L681.921 151.804L682.519 151.968L679.557 152.698V152.391ZM682.516 151.658L686.812 150.59L687.424 150.76L683.118 151.822L682.516 151.658ZM687.41 150.443L691.717 149.372L692.344 149.549L688.023 150.614L687.41 150.443ZM692.304 149.225L696.633 148.15L697.274 148.335L692.935 149.402L692.304 149.225ZM697.213 148.004L701.563 146.922L702.216 147.116L697.855 148.191L697.213 148.004ZM702.14 146.782L706.512 145.697L707.175 145.902L702.796 146.98L702.14 146.782ZM707.077 145.554L711.478 144.462L712.159 144.673L707.748 145.758L707.077 145.554ZM712.037 144.322L716.459 143.227L717.147 143.449L712.721 144.537L712.037 144.322ZM717.018 143.087L721.469 141.978L722.168 142.203L717.706 143.305L717.018 143.087ZM722.013 141.845L726.493 140.733L727.203 140.968L722.719 142.074L722.013 141.845ZM727.04 140.596L731.542 139.48L732.266 139.723L727.75 140.832L727.04 140.596ZM731.556 139.167L636.218 106.869L640.799 105.085L736.101 138.037L731.556 139.167ZM731.016 139.3L726.503 140.419L631.244 108.804L635.785 107.036L731.016 139.3ZM725.956 140.555L721.476 141.668L626.299 110.735L630.801 108.981L725.956 140.555ZM720.924 141.804L716.466 142.913L621.391 112.642L625.856 110.905L720.924 141.804ZM715.911 143.049L711.485 144.151L616.518 114.546L620.944 112.823L715.911 143.049ZM710.923 144.291L706.519 145.387L611.674 116.436L616.067 114.727L710.923 144.291ZM705.953 145.526L701.578 146.615L606.863 118.309L611.224 116.61L705.953 145.526ZM701.001 146.758L696.64 147.84L602.076 120.176L606.408 118.487L701.001 146.758ZM678.703 142.903L674.338 144.083L597.323 122.032L601.622 120.357L678.703 142.903ZM625.388 130.381L621.055 131.851L592.59 123.878L596.861 122.213L625.388 130.381ZM620.551 132.022L616.237 133.482L587.88 125.71L592.122 124.055L620.551 132.022ZM615.732 133.656L611.447 135.11L583.202 127.532L587.415 125.887L615.732 133.656ZM610.935 135.284L606.668 136.73L578.538 129.35L582.726 127.716L610.935 135.284ZM606.769 137.065L632.372 143.783L606.354 137.208L606.769 137.065ZM607.284 136.891L611.544 135.448L659.078 148.198L654.782 149.355L607.284 136.891ZM659.752 148.375L676.446 152.852L672.32 153.879L664.312 151.852L655.46 149.532L659.752 148.375ZM677.048 153.016L677.632 153.176L673.524 154.186L672.943 154.036L677.048 153.016ZM743.007 137.078L742.26 136.819L746.25 135.826L747 136.099L743.007 137.078ZM741.215 136.765L736.634 137.901L641.231 104.914L645.855 103.109L741.215 136.765ZM640.795 104.764L639.872 104.443L644.489 102.631L645.426 102.959L640.795 104.764ZM640.362 104.931L635.782 106.716L634.877 106.408L639.447 104.61L640.362 104.931ZM635.338 106.89L630.794 108.66L629.903 108.367L634.434 106.582L635.338 106.89ZM630.358 108.834L625.849 110.592L624.973 110.305L629.471 108.538L630.358 108.834ZM625.409 110.762L620.933 112.506L620.075 112.229L624.533 110.476L625.409 110.762ZM620.493 112.676L616.06 114.403L615.217 114.14L619.635 112.4L620.493 112.676ZM615.613 114.58L611.213 116.293L610.384 116.04L614.77 114.314L615.613 114.58ZM610.762 116.467L606.394 118.173L605.58 117.927L609.93 116.218L610.762 116.467ZM605.94 118.35L601.608 120.039L600.811 119.807L605.129 118.108L605.94 118.35ZM601.147 120.217L596.843 121.895L596.061 121.67L600.35 119.985L601.147 120.217ZM596.382 122.076L592.108 123.738L591.343 123.523L595.6 121.851L596.382 122.076ZM591.643 123.922L587.401 125.573L586.655 125.372L590.886 123.707L591.643 123.922ZM586.932 125.758L582.712 127.399L581.984 127.201L586.186 125.549L586.932 125.758ZM582.24 127.59L578.048 129.224L577.338 129.037L581.512 127.395L582.24 127.59ZM577.576 129.405L573.41 131.029L572.714 130.852L576.866 129.221L577.576 129.405ZM572.93 131.217L568.789 132.831L568.115 132.66L572.238 131.039L572.93 131.217ZM568.303 133.018L564.187 134.622L563.531 134.462L567.632 132.851L568.303 133.018ZM563.7 134.813L559.602 136.41L558.968 136.256L563.048 134.653L563.7 134.813ZM559.116 136.601L555.043 138.187L554.423 138.041L558.482 136.447L559.116 136.601ZM554.553 138.378L550.498 139.958L549.9 139.818L553.933 138.232L554.553 138.378ZM550.005 140.156L545.972 141.726L545.392 141.596L549.403 140.02L550.005 140.156ZM545.471 141.92L541.459 143.483L540.901 143.36L544.898 141.79L545.471 141.92ZM540.955 143.681L536.965 145.236L536.425 145.12L540.396 143.558L540.955 143.681ZM536.457 145.431L532.482 146.983L531.963 146.874L535.92 145.318L536.457 145.431ZM531.97 147.181L528.013 148.723L527.515 148.625L531.455 147.075L531.97 147.181ZM528.557 148.836L532.507 147.297L553.281 151.62L549.219 153.036L528.557 148.836ZM533.019 147.093L536.99 145.547L557.905 150.01L553.829 151.426L533.019 147.093ZM537.499 145.349L541.488 143.797L562.547 148.399L558.456 149.826L537.499 145.349ZM541.989 143.595L545.997 142.036L567.193 146.779L563.091 148.208L541.989 143.595ZM546.494 141.845L550.52 140.272L571.853 145.158L567.73 146.594L546.494 141.845ZM551.017 140.081L555.068 138.501L576.527 143.534L572.386 144.97L551.017 140.081ZM555.559 138.307L559.631 136.724L581.209 141.896L577.053 143.343L555.559 138.307ZM560.118 136.529L564.205 134.936L585.912 140.262L581.731 141.719L560.118 136.529ZM564.691 134.748L568.804 133.145L590.623 138.621L586.428 140.081L564.691 134.748ZM569.29 132.957L573.424 131.343L595.355 136.969L591.142 138.436L569.29 132.957ZM573.907 131.159L578.07 129.538L606.156 136.904L605.727 137.051L599.755 135.54L599.438 135.557L595.874 136.799L573.907 131.159ZM658.75 241.61L754.986 246.182L750.132 246.322L652.27 241.931L658.75 241.61ZM751.17 256.869L752.871 259.851V269.541H750.28V247.448L751.145 247.424V256.794L751.17 256.869ZM749.84 247.462V269.541H748.676V247.499L749.84 247.462ZM746.077 246.445L735.899 246.745L638.485 242.617L649.084 242.091L746.077 246.445ZM748.049 247.516V269.544H730.825V248.025L748.049 247.516ZM731.715 246.868L721.667 247.162L624.84 243.292L635.252 242.774L731.715 246.868ZM730.504 248.028V269.537H729.365V248.059L730.504 248.028ZM728.933 248.076V269.544H724.5L719.486 266.084L719.364 266.043H717.547V248.41L728.933 248.076ZM717.227 248.417V266.043H716.444V248.441L717.227 248.417ZM716.444 266.46H719.288L724.301 269.913L724.427 269.957H791.297L796.019 272.076H716.444V266.46ZM801.356 214.663L770.26 209.739V209.193L826.992 218.348V219.75L801.63 215.809V214.707L801.356 214.663ZM802.221 223.899L801.63 223.824V222.674L807.974 223.517L802.221 223.899ZM809.484 223.411L801.63 222.37V221.152L815.236 223.029L809.484 223.411ZM816.721 222.937L801.63 220.852V219.559L822.494 222.555L816.721 222.937ZM826.992 222.251L823.94 222.456L801.63 219.255V217.877L826.992 221.664V222.251ZM827.49 222.22V221.736L829.721 222.074L827.49 222.22ZM831.115 221.978L827.49 221.439V221.364H826.989V221.367L801.627 217.577V216.116L836.925 221.596L831.115 221.978ZM838.291 221.5L827.129 219.77H827.493V218.43L835.238 219.685V220.275H835.736V219.764L844.119 221.115L838.291 221.5ZM845.452 221.026L835.732 219.46V218.788H835.235V219.378L770.257 208.886V207.02L826.989 216.556V216.744H827.49V216.642L843.474 219.33V219.965H843.975V219.416L851.284 220.644L845.452 221.026ZM852.588 220.552L843.978 219.105V218.665H843.477V219.023L827.493 216.338V215.311H826.992V216.256L770.26 206.72V205.236L769.767 205.154L729.437 198.244L731.596 197.961L835.238 216.106V217.147H835.736V216.191L858.445 220.166L852.588 220.552ZM859.696 220.081L835.732 215.884V215.652H835.235V215.799L732.583 197.828L740.267 196.825L826.989 212.653V213.725H827.49V212.745L865.567 219.695L859.696 220.081ZM866.803 219.607L835.732 213.936V212.517H835.235V213.844L827.49 212.431V212.281H826.989V212.343L741.248 196.695L749.036 195.675L826.989 210.517V210.691H827.49V210.613L843.474 213.66V214.492H843.975V213.748L872.677 219.214L866.803 219.607ZM873.867 219.139L843.975 213.445V213.189H843.474V213.353L827.49 210.306V209.255H826.989V210.214L749.984 195.556L757.895 194.519L816.872 206.239C818.555 206.935 821.186 207.668 824.632 208.351C828.016 209.019 831.645 209.511 835.238 209.91V210.876H835.736V209.992L843.481 211.534V211.759H843.982V211.636L879.792 218.754L873.867 219.139ZM880.934 218.665L843.975 211.322V210.633C846.281 210.729 848.397 210.739 850.228 210.664L886.878 218.273L880.934 218.665ZM887.998 218.201L851.421 210.606C851.59 210.596 851.795 210.592 851.961 210.579C853.832 210.422 855.097 210.142 855.731 209.767C855.839 209.698 855.89 209.623 855.969 209.552L893.949 217.802L887.998 218.201ZM895.037 217.734L856.203 209.303C856.279 209.166 856.315 209.019 856.29 208.862C856.236 208.555 855.983 208.245 855.518 207.941C854.448 207.235 852.095 206.423 848.404 205.597C843.863 204.58 837.995 203.741 832.431 203.25C830.416 203.072 828.477 202.956 826.621 202.878L776.773 192.055L785.041 190.974L900.998 217.338L895.037 217.734ZM902.043 217.266L785.899 190.858L794.296 189.762L908.051 216.867L902.043 217.266ZM909.061 216.799L795.129 189.657L803.638 188.541L915.087 216.399L909.061 216.799ZM916.056 216.335L804.452 188.435L813.102 187.306L922.107 215.935L916.056 216.335ZM923.044 215.871L813.891 187.203L821.806 186.17L928.043 215.543L923.044 215.871ZM930.602 175.449V215.161L822.397 185.248V119.098L930.602 175.449ZM847.763 131.114V130.34L857.007 135.212L856.016 135.413L847.763 131.114ZM857.475 135.117L847.766 129.999V127.726L860.409 134.52L857.475 135.117ZM860.863 134.424L847.763 127.382V125.045L863.779 133.827L860.863 134.424ZM864.244 133.735L847.766 124.703V122.305L867.156 133.141L864.244 133.735ZM867.607 133.049L758.136 71.8454L761.849 70.484L870.497 132.455L867.607 133.049ZM870.951 132.367L762.223 70.3476L765.936 68.9896L873.834 131.776L870.951 132.367ZM874.285 131.688L766.307 68.8531L770.026 67.4884L877.161 131.097L874.285 131.688ZM877.604 131.012L770.394 67.3553L774.12 65.9905L880.469 130.429L877.604 131.012ZM880.906 130.336L774.488 65.8574L778.222 64.4893L883.76 129.756L880.906 130.336ZM884.2 129.668L778.586 64.3562L782.327 62.9846L887.047 129.084L884.2 129.668ZM887.476 128.999L782.687 62.8549L786.439 61.4799L890.319 128.416L887.476 128.999ZM890.745 128.33L786.789 61.3503L790.544 59.9718L893.57 127.754L890.745 128.33ZM794.992 5.69454L897.185 92.3785V126.512L794.992 57.8087V5.69454ZM794.455 58.5422L896.511 127.157L893.999 127.672L790.908 59.8456L794.455 58.5422ZM708.083 45.1469L708.195 45.0991L713.54 48.0778L713.723 47.7775L708.591 44.9149L794.047 5.41476V57.7302L732.652 80.2252L728.165 73.0021L727.967 72.8212L708.083 62.6843V45.1469ZM727.35 73.6162L744.679 101.523L744.899 101.72L774.773 115.327V129.262L758.587 133.247L709.215 114.539L694.207 93.7672L694.139 93.7126L673.96 85.309C673.992 85.2032 674.086 85.1281 674.086 85.0155C674.086 84.688 673.945 84.3912 673.722 84.1762C673.495 83.9612 673.181 83.8282 672.839 83.8282C672.489 83.8282 672.179 83.9612 671.952 84.1762C671.725 84.3912 671.585 84.688 671.585 85.0155C671.585 85.3397 671.725 85.6365 671.952 85.8515C672.179 86.0664 672.489 86.1961 672.839 86.1961C673.181 86.1961 673.495 86.0664 673.722 85.8515C673.794 85.7798 673.783 85.6638 673.837 85.5819L685.374 90.3859L700.619 113.362L700.695 113.423L728.972 124.011L729.026 124.021L733.859 124.195L758.075 133.373L748.737 135.673L651.088 100.502V28.9743L666.935 37.2585V42.8097L667.206 42.9496L727.35 73.6162ZM732.98 123.867L729.062 123.721L700.853 113.161L685.882 90.6009L693.969 93.9685L708.977 114.74L709.053 114.798L732.98 123.867ZM673.769 85.0155C673.769 85.2578 673.664 85.4796 673.495 85.6399C673.325 85.8003 673.091 85.8992 672.835 85.8992C672.572 85.8992 672.341 85.8003 672.172 85.6399C672.003 85.4796 671.898 85.2578 671.898 85.0155C671.898 84.7733 672.003 84.5481 672.172 84.3912C672.341 84.2308 672.572 84.1284 672.835 84.1284C673.091 84.1284 673.325 84.2308 673.495 84.3912C673.664 84.5481 673.769 84.7699 673.769 85.0155ZM707.715 45.3175V62.4967L690.041 53.4857L707.715 45.3175ZM707.218 44.5532L689.021 52.9603L667.966 42.2263V36.6819L667.696 36.5386L649.315 26.9305L649.25 26.8964V12.2591L707.218 44.5532ZM648.021 2.7398C647.754 2.48731 647.589 2.13588 647.589 1.75033C647.589 1.36478 647.754 1.01335 648.021 0.760865C648.288 0.50838 648.659 0.351431 649.066 0.351431C649.474 0.351431 649.848 0.50838 650.111 0.760865C650.375 1.01335 650.544 1.36478 650.544 1.75033C650.544 2.13588 650.378 2.49072 650.111 2.7398C649.845 2.98887 649.474 3.14923 649.066 3.14923C648.659 3.14582 648.288 2.98887 648.021 2.7398ZM649.074 100.827L650.018 101.168L645.851 102.792L644.918 102.464L649.074 100.827ZM479.722 132.397L634.178 49.2651V50.1727L480.078 132.472L479.722 132.397ZM480.54 132.571L634.178 50.5105V74.5374L546.426 115.999L546.458 116.347L549.284 117.078V133.288L527.306 142.329L480.54 132.571ZM622.746 86.4179L622.638 86.469V103.106L620.23 104.099V87.5711L619.963 87.6939L604.978 94.5144L604.873 94.5622V110.414L602.703 111.308L602.707 95.8314V95.5482L602.444 95.6711L588.77 101.898L588.669 101.949V117.081L586.719 117.886L586.723 103.113V102.836L586.456 102.956L573.936 108.66L573.828 108.708V123.188L572.072 123.915V109.51L571.806 109.629L560.312 114.867L560.208 114.914V128.791L558.673 129.422V114.624L634.171 79.9079V81.2146L622.746 86.4179ZM634.178 81.5968V98.3563L623.009 102.952V86.6874L634.178 81.5968ZM619.855 88.1204V104.249L605.237 110.264V94.784L619.855 88.1204ZM602.343 96.1044L602.336 111.458L589.037 116.928V102.164L602.343 96.1044ZM586.359 103.389L586.352 118.036L574.202 123.035V108.923L586.359 103.389ZM571.708 110.059V124.058L560.586 128.637V115.129L571.708 110.059ZM558.453 114.396L558.363 114.437V129.552L549.915 133.032V116.313L634.178 76.8849V79.5701L558.453 114.396ZM549.457 115.86L549.28 115.945V116.692L547.057 116.115L634.178 74.9537V76.2195L549.457 115.86ZM478.821 163.347L636.106 98.6258L636.42 98.4996V98.1788L636.405 47.7844V46.945L635.63 47.3579L478.821 131.759V128.47L549.861 88.929L550.116 88.7857V84.398L648.551 28.2305V99.9701L478.821 166.708V163.347ZM635.367 49.8793L635.374 73.9745L634.491 74.3873V50.3433L635.367 49.8793ZM634.495 50.0021V49.0945L635.367 48.6271V49.5381L634.495 50.0021ZM635.378 74.3907V75.66L634.495 76.0728V74.8104L635.378 74.3907ZM635.378 76.3219V79.0207L634.495 79.4268V76.7382L635.378 76.3219ZM635.378 79.3517V80.6619L634.495 81.0645V79.7577L635.378 79.3517ZM635.378 81.0474L635.382 97.8581L634.491 98.2266V81.4535L635.378 81.0474ZM480.183 167.233L483.156 166.066L483.419 166.107L480.432 167.274L480.183 167.233ZM481.023 167.363L484.007 166.203L502.91 169.158L499.836 170.232L481.023 167.363ZM426.122 196.958L599.089 136.734V188.756L426.122 223.554V196.958ZM508.316 228.321L429.506 223.899L432.22 223.356L510.839 228.014L508.316 228.321ZM512.497 227.809L433.366 223.121L438.642 222.056L518.811 227.035L512.497 227.809ZM522.74 226.55L520.448 226.833L439.789 221.831L445.112 220.757L522.744 225.793V226.55H522.74ZM522.74 225.499L446.225 220.535L451.61 219.45L522.74 224.278V225.499ZM522.74 223.974L452.72 219.228L458.148 218.133L522.74 222.705V223.974ZM522.74 222.405L459.254 217.911L464.736 216.805L522.74 221.087V222.405ZM522.74 220.787L465.821 216.587L471.36 215.475L522.74 219.419V220.787ZM522.74 219.126L472.445 215.256L478.031 214.134L522.74 217.713V219.126ZM522.74 217.409L479.098 213.916L484.746 212.783L522.74 215.946V217.409ZM522.74 215.642L485.809 212.571L491.521 211.421L522.74 214.12V215.642ZM522.74 213.82L492.563 211.21L498.355 210.046L522.744 212.244V213.82H522.74ZM523.226 210.354L522.74 210.439V211.94L499.364 209.838L505.217 208.661L523.259 210.347L523.226 210.354ZM506.233 208.46L512.137 207.273L530.525 209.05L524.358 210.152L506.233 208.46ZM523.936 211.374L658.152 187.377V240.512L523.936 247.162V211.374ZM538.537 247.571L540.728 247.462L585.977 248.697V248.745L538.537 247.571ZM584.121 253.405L585.973 253.347V270.189H584.121V253.405ZM582.629 260.263L583.685 260.229V270.189H582.629V260.263ZM827.017 273.4H504.532V270.605H650.771L656.033 272.475L656.112 272.489H827.025V273.4H827.017ZM827.017 272.072H797.046L791.434 269.558L791.344 269.537H786.699V268.172H800.625L805.717 270.66L805.818 270.684H827.021V272.072H827.017ZM827.017 270.274H805.869L800.773 267.783L800.672 267.76H787.629V262.123H827.017V270.274ZM843.946 273.4V272.035H851.698L855.738 273.4H843.946ZM857.039 273.4L851.799 271.632L851.723 271.622H843.942V262.123H851.709L879.298 271.537L879.37 271.55H909.446L914.178 273.403H857.039V273.4ZM805.007 19.3867L804.222 18.7384V58.7401L804.42 58.8766L878.693 110.431V110.472H878.75L892.655 120.121L893.412 120.643V92.4434L893.25 92.3069L805.007 19.3867ZM811.797 62.8856L805.173 58.2863V44.4406L811.801 49.3607L811.797 62.8856ZM811.801 48.9785L805.173 44.0585V42.5334L811.801 47.508V48.9785ZM813.369 63.9775L812.115 63.1074V49.5927L813.369 50.5276V63.9775ZM813.369 50.1454L812.115 49.2105V47.74L813.369 48.6851V50.1454ZM831.079 76.2673L816.868 66.3999V53.1206L831.079 63.6772V76.2673ZM831.079 63.2985L816.868 52.7453V51.3089L831.079 61.9746V63.2985ZM832.499 77.2499L831.396 76.4857V63.9126L832.499 64.7315V77.2499ZM832.499 64.3528L831.396 63.5339V62.2135L832.499 63.0392V64.3528ZM847.917 87.9566L835.588 79.4029V67.0346L847.917 76.1922V87.9566ZM847.917 75.8101L835.588 66.6524V65.3661L847.917 74.6227V75.8101ZM849.201 88.8472L848.235 88.175V76.4243L849.201 77.1408V88.8472ZM849.201 76.762L848.235 76.0455V74.8582L849.201 75.5849V76.762ZM862.77 98.2641L851.986 90.7749L851.972 79.1982L862.77 87.2197V98.2641ZM862.77 86.8409L851.972 78.8194V77.6696L862.77 85.7764V86.8409ZM863.93 99.0659L863.087 98.4825V87.4551L863.93 88.0829V99.0659ZM863.93 87.7042L863.087 87.0764V86.0152L863.93 86.6465V87.7042ZM875.954 107.415L866.442 100.813V89.9492L875.954 97.0154V107.415ZM875.954 96.6332L866.442 89.5671V88.5264L875.954 95.6676V96.6332ZM877.01 108.149L876.271 107.633V97.2474L877.01 97.8001V108.149ZM877.01 97.4214L876.271 96.8721V95.9031L877.01 96.4592V97.4214ZM878.696 109.315L877.449 108.452V96.2647L877.37 96.1999L866.359 87.9362L866.006 87.6666V100.509L864.374 99.3764V86.452L864.291 86.3871L851.893 77.0793L851.536 76.8132V77.2397L851.547 90.4747L849.644 89.1542V75.3904L849.561 75.3256L835.509 64.7759L835.155 64.5063V79.0958L832.935 77.5536V62.8379L832.856 62.7799L816.789 50.7186L816.429 50.4525V66.0997L813.812 64.2811V48.4872L813.733 48.4258L805.177 42.0079V40.7148L878.696 96.3944V109.315ZM805.173 39.9164V21.9115L891.419 92.7129L879.093 95.8997L805.173 39.9164ZM891.747 118.374L879.352 109.773V96.4763L891.747 93.2759V118.374ZM805.173 21.5158V20.7071L892.089 92.5389L891.783 92.6174L805.173 21.5158ZM892.464 118.876L892.064 118.596V93.1974L892.464 93.0916V118.876ZM427.773 199.623L427.416 199.736V220.04L428.061 219.897L591.333 183.754L591.74 183.662V146.775L591.041 147L427.773 199.623ZM429.257 218.61L428.468 218.784V200.483L429.257 200.558V218.61ZM455.78 212.735L429.575 218.539V200.582L455.78 203.001V212.735ZM516.811 199.227L456.493 212.578V202.95L516.811 186.579V199.227ZM516.811 185.876L456.101 202.359L430.022 199.95L556.964 159.034L562.15 160.065L562.23 160.058L587.858 151.996V157.874L513.575 179.926L513.604 180.287L516.808 180.728V185.876H516.811ZM516.811 179.946V180.352L514.523 180.038L587.862 158.267V159.099L516.941 179.902L516.811 179.946ZM529.144 196.494L518.948 198.749V181.349L520.938 180.779L529.148 181.929L529.144 196.494ZM529.152 181.628L521.644 180.574L529.152 178.418V181.628ZM542.761 193.481L531.563 195.958V182.27L542.764 183.843L542.761 193.481ZM542.764 183.539L531.563 181.966V177.725L542.768 174.504L542.764 183.539ZM553.901 191.011L545.355 192.901V184.204L553.901 185.402V191.011ZM557.71 190.168L554.218 190.946V176.224L557.71 175.275V190.168ZM557.71 174.965L554.016 175.968L553.901 175.999V185.102L545.355 183.904V173.754L557.707 170.205V174.965H557.71ZM574.199 186.518L570.27 187.388V186.238L574.199 185.34V186.518ZM574.199 184.986L570.051 185.931L569.906 185.965V187.47L560.529 189.544V174.511L574.202 170.799V184.986H574.199ZM574.199 170.492L560.525 174.2V169.396L574.199 165.466V170.492ZM576.83 185.934L574.639 186.419V185.242L576.83 184.743V185.934ZM576.83 164.275V184.385L574.639 184.883V164.906L574.357 164.988L560.244 169.045L560.085 169.089V189.646L558.143 190.073V169.649L557.862 169.727L545.071 173.402L544.912 173.446V193L543.193 193.379L543.2 174.224V173.945L542.916 174.026L531.271 177.374L531.116 177.418V196.057L529.577 196.402L529.58 178.141V177.865L529.299 177.943L518.667 181.004L518.512 181.045V198.852L517.179 199.145V180.202L587.862 159.464V161.102L576.985 164.231L576.83 164.275ZM577.27 169.656V164.582L587.862 161.535V166.779L577.27 169.656ZM587.862 167.09V181.867L577.27 184.286V169.966L587.862 167.09ZM590.684 182.87L577.27 185.839V184.641L590.684 181.581V182.87ZM590.684 181.222L588.179 181.792V167.005L590.684 166.326V181.222ZM590.684 166.012L588.179 166.691V161.44L590.684 160.723V166.012ZM590.684 160.29L588.179 161.013V159.372L590.684 158.639V160.29ZM590.684 158.274L588.179 159.01V158.175L590.684 157.431V158.274ZM590.684 157.042L588.179 157.786V151.589L587.97 151.658L562.176 159.771L557.552 158.85L590.684 148.167V157.042ZM763.528 240.853L764.166 240.897V209.924L763.665 209.849L669.235 195.293L668.546 195.191V195.856L668.536 234.183V234.708L669.087 234.746L763.528 240.853ZM682.941 234.507L681.528 234.418L681.532 206.512L682.948 206.699L682.941 234.507ZM682.952 206.396L681.535 206.208V204.775L682.952 204.973V206.396ZM699.21 235.561L686.174 234.718V224.226L699.21 225.424V235.561ZM699.21 225.124L686.174 223.923V207.129L699.21 208.866V225.124ZM699.21 208.566L686.174 206.829V205.413L699.21 207.208V208.566ZM700.796 235.66L699.523 235.581V208.91L700.796 209.077V235.66ZM700.796 208.777L699.523 208.607V207.252L700.796 207.429V208.777ZM715.724 236.629L703.794 235.858V225.844L705.773 226.031V233.302L705.921 233.316L715.724 234.036V236.629ZM715.724 233.732L706.09 233.029V225.758L705.946 225.745L703.794 225.544V209.477L715.724 211.067V233.732ZM715.724 210.77L703.794 209.18V207.842L715.724 209.487V210.77ZM717.187 236.721L716.034 236.646V211.111L717.187 211.264V236.721ZM717.187 210.968L716.034 210.814V209.528L717.187 209.688V210.968ZM730.915 237.612L719.976 236.902V234.346L730.915 235.148V237.612ZM730.915 234.851L719.976 234.043L719.969 211.64L730.915 213.1V234.851ZM730.915 212.8L719.969 211.336V210.07L730.915 211.578V212.8ZM732.27 237.697L731.232 237.629V213.141L732.27 213.278V237.697ZM732.27 212.981L731.232 212.841V211.623L732.27 211.766V212.981ZM744.942 238.519L734.876 237.867V235.435L744.942 236.172V238.519ZM744.942 235.878L734.876 235.138V213.632L744.942 214.973V235.878ZM744.942 214.67L734.876 213.329V212.124L744.942 213.513V214.67ZM746.189 238.601L745.259 238.536V236.196L746.189 236.267V238.601ZM746.189 235.967L745.259 235.899V215.011L746.189 215.13V235.967ZM746.189 214.837L745.259 214.714V213.557L746.189 213.684V214.837ZM762.35 210.903L762.793 210.855L762.977 210.886V239.686L762.35 239.642V210.903ZM762.032 239.625L748.755 238.768V212.233L762.032 210.93V239.625ZM669.736 196.511L759.819 210.394L748.377 211.517L669.732 200.264L669.736 196.511ZM669.732 201.018L747.969 212.216V238.717L746.632 238.632V213.329L746.438 213.301L734.688 211.681L734.44 211.647V237.844L732.713 237.728V211.411L732.522 211.38L719.782 209.627L719.533 209.593V209.831L719.544 236.875L717.627 236.752V209.327L717.439 209.299L703.607 207.395L703.358 207.361V235.827L701.242 235.694V207.071L701.048 207.044L685.983 204.969L685.731 204.932V234.688L683.377 234.531L683.384 204.789V204.608L683.197 204.584L669.732 202.721V201.018ZM669.732 203.151L681.218 204.734V206.164L669.732 204.628V203.151ZM669.732 204.935L681.218 206.467L681.215 223.472L669.725 222.415L669.732 204.935ZM669.728 222.712L681.218 223.773V234.398L669.728 233.654V222.712ZM958.281 273.925H959.896V273.454H958.281V273.925ZM954.886 273.925H956.501V273.454H954.886V273.925ZM961.684 273.925H963.298V273.454H961.684V273.925ZM978.673 273.925H980.288V273.454H978.673V273.925ZM975.275 273.925H976.889V273.454H975.275V273.925ZM971.876 273.925H973.491V273.454H971.876V273.925ZM968.477 273.925H970.092V273.454H968.477V273.925ZM965.079 273.925H966.693V273.454H965.079V273.925ZM951.484 273.925H953.102V273.454H951.484V273.925ZM924.299 273.925H925.917V273.454H924.299V273.925ZM934.498 273.925H936.113V273.454H934.498V273.925ZM937.893 273.925H939.511V273.454H937.893V273.925ZM927.701 273.925H929.315V273.454H927.701V273.925ZM944.694 273.925H946.309V273.454H944.694V273.925ZM920.904 273.925H922.518V273.454H920.904V273.925ZM948.089 273.925H949.704V273.454H948.089V273.925ZM931.096 273.925H932.711V273.454H931.096V273.925ZM1050.03 273.925H1051.65V273.454H1050.03V273.925ZM982.072 273.925H983.687V273.454H982.072V273.925ZM1033.05 273.925H1034.66V273.454H1033.05V273.925ZM1039.84 273.925H1041.46V273.454H1039.84V273.925ZM1036.44 273.925H1038.06V273.454H1036.44V273.925ZM1043.24 273.925H1044.86V273.454H1043.24V273.925ZM1046.64 273.925H1048.25V273.454H1046.64V273.925ZM1022.85 273.925H1024.46V273.454H1022.85V273.925ZM1019.45 273.925H1021.07V273.454H1019.45V273.925ZM1029.65 273.925H1031.26V273.454H1029.65V273.925ZM1053.44 273.454V273.925H1055.05V273.454H1053.44ZM1026.25 273.925H1027.87V273.454H1026.25V273.925ZM1005.86 273.925H1007.48V273.454H1005.86V273.925ZM1016.05 273.925H1017.67V273.454H1016.05V273.925ZM999.065 273.925H1000.68V273.454H999.065V273.925ZM992.268 273.925H993.882V273.454H992.268V273.925ZM988.869 273.925H990.484V273.454H988.869V273.925ZM995.663 273.925H997.278V273.454H995.663V273.925ZM1009.26 273.925H1010.87V273.454H1009.26V273.925ZM1002.46 273.925H1004.07V273.454H1002.46V273.925ZM1012.66 273.925H1014.27V273.454H1012.66V273.925ZM985.467 273.925H987.085V273.454H985.467V273.925ZM941.292 273.925H942.906V273.454H941.292V273.925ZM835.732 256.408H835.235V257.896H835.732V256.408ZM835.732 259.544H835.235V261.031H835.732V259.544ZM835.732 253.272H835.235V254.763H835.732V253.272ZM835.732 250.137H835.235V251.628H835.732V250.137ZM835.235 270.435H835.732V268.947H835.235V270.435ZM835.732 265.815H835.235V267.302H835.732V265.815ZM835.732 206.246H835.235V207.737H835.732V206.246ZM835.732 247.001H835.235V248.492H835.732V247.001ZM835.732 262.679H835.235V264.167H835.732V262.679ZM835.732 228.191H835.235V229.679H835.732V228.191ZM835.732 237.595H835.235V239.086H835.732V237.595ZM835.732 225.056H835.235V226.543H835.732V225.056ZM835.732 240.73H835.235V242.221H835.732V240.73ZM835.732 231.327H835.235V232.814H835.732V231.327ZM835.732 243.866H835.235V245.357H835.732V243.866ZM835.732 234.462H835.235V235.95H835.732V234.462ZM843.978 237.816H843.477V239.116H843.978V237.816ZM843.978 235.083H843.477V236.383H843.978V235.083ZM843.978 226.874H843.477V228.167H843.978V226.874ZM843.978 232.344H843.477V233.643H843.978V232.344ZM843.477 258.271H843.978V256.974H843.477V258.271ZM843.978 248.762H843.477V250.062H843.978V248.762ZM843.978 251.502H843.477V252.802H843.978V251.502ZM843.978 254.238H843.477V255.535H843.978V254.238ZM843.978 224.138H843.477V225.438H843.978V224.138ZM843.978 240.553H843.477V241.853H843.978V240.553ZM843.978 243.292H843.477V244.592H843.978V243.292ZM843.978 246.029H843.477V247.322H843.978V246.029ZM843.978 229.611H843.477V230.907H843.978V229.611ZM843.978 207.716H843.477V209.013H843.978V207.716ZM843.978 215.929H843.477V217.229H843.978V215.929ZM826.992 207.668H827.493V206.232H826.992V207.668ZM827.49 242.538H826.989V243.975H827.49V242.538ZM827.49 224.383H826.989V225.82H827.49V224.383ZM826.992 253.051H827.493V251.618H826.992V253.051ZM827.49 245.568H826.989V246.998H827.49V245.568ZM827.49 227.413H826.989V228.846H827.49V227.413ZM827.49 233.463H826.989V234.896H827.49V233.463ZM827.49 239.509H826.989V240.945H827.49V239.509ZM827.49 236.489H826.989V237.925H827.49V236.489ZM827.49 230.436H826.989V231.873H827.49V230.436ZM827.49 248.588H826.989V250.024H827.49V248.588ZM889.238 270.121H891.584V267.899H889.238V270.121ZM891.584 257.241H889.238V259.458H891.584V257.241ZM891.584 262.567H889.238V264.784H891.584V262.567ZM891.584 251.911H889.238V254.129H891.584V251.911ZM679.557 148.986H679.059V150.423H679.557V148.986ZM679.557 145.953H679.059V147.393H679.557V145.953ZM679.557 176.251H679.059V177.684H679.557V176.251ZM679.557 179.281H679.059V180.717H679.557V179.281ZM679.557 173.221H679.059V174.661H679.557V173.221ZM679.557 182.314H679.059V183.751H679.557V182.314ZM679.557 185.337H679.059V186.777H679.557V185.337ZM679.557 158.072H679.059V159.512H679.557V158.072ZM679.557 170.191H679.059V171.628H679.557V170.191ZM679.557 161.102H679.059V162.538H679.557V161.102ZM679.557 164.135H679.059V165.568H679.557V164.135ZM679.557 167.162H679.059V168.601H679.557V167.162ZM626.173 171.874H625.676V173.388H626.173V171.874ZM626.173 178.257H625.676V179.772H626.173V178.257ZM626.173 175.064H625.676V176.579H626.173V175.064ZM625.672 141.473H626.17V139.958H625.672V141.473ZM626.173 187.835H625.676V189.35H626.173V187.835ZM626.173 136.765H625.676V138.279H626.173V136.765ZM626.173 184.638H625.676V186.156H626.173V184.638ZM626.173 181.451H625.676V182.966H626.173V181.451ZM626.173 149.532H625.676V151.05H626.173V149.532ZM626.173 155.912H625.676V157.431H626.173V155.912ZM626.173 152.726H625.676V154.241H626.173V152.726ZM626.173 168.68H625.676V170.198H626.173V168.68ZM626.173 165.49H625.676V167.008H626.173V165.49ZM626.173 162.3H625.676V163.815H626.173V162.3ZM626.173 146.339H625.676V147.853H626.173V146.339ZM626.173 159.109H625.676V160.624H626.173V159.109ZM514.263 138.812H514.76V137.348H514.263V138.812ZM514.263 135.731H514.76V134.267H514.263V135.731ZM514.263 129.565H514.76V128.102H514.263V129.565ZM514.76 143.51H514.263V144.974H514.76V143.51ZM514.263 132.65H514.76V131.183H514.263V132.65ZM514.263 123.403H514.76V121.94H514.263V123.403ZM514.263 126.484H514.76V125.021H514.263V126.484ZM514.76 99.7586H514.263V101.355H514.76V99.7586ZM514.76 96.3978H514.263V97.9912H514.76V96.3978ZM514.76 86.3223H514.263V87.9191H514.76V86.3223ZM514.76 89.6831H514.263V91.2799H514.76V89.6831ZM514.263 104.713H514.76V103.116H514.263V104.713ZM598.314 43.1816L598.047 42.7858L596.688 43.6081L596.955 44.0039L598.314 43.1816ZM601.172 41.4415L600.905 41.0457L599.546 41.8714L599.817 42.2672L601.172 41.4415ZM606.895 37.9648L606.628 37.5656L605.27 38.3913L605.536 38.787L606.895 37.9648ZM575.424 57.0956L575.154 56.6998L573.795 57.5255L574.062 57.9213L575.424 57.0956ZM595.449 44.9183L595.182 44.5225L593.823 45.3482L594.093 45.744L595.449 44.9183ZM581.148 53.6188L580.877 53.223L579.522 54.0487L579.792 54.4445L581.148 53.6188ZM584.006 51.8753L583.739 51.4795L582.38 52.3052L582.65 52.701L584.006 51.8753ZM609.753 36.2247L609.486 35.8289L608.128 36.6546L608.394 37.0504L609.753 36.2247ZM578.282 55.3589L578.016 54.9597L576.657 55.7854L576.927 56.1812L578.282 55.3589ZM592.587 46.6584L592.32 46.2626L590.961 47.0883L591.228 47.4841L592.587 46.6584ZM586.867 50.142L586.597 49.7428L585.238 50.5685L585.508 50.9643L586.867 50.142ZM589.729 48.3985L589.459 48.0027L588.103 48.825L588.37 49.2242L589.729 48.3985ZM604.037 39.7014L603.763 39.3057L602.404 40.1313L602.675 40.5271L604.037 39.7014ZM641.227 17.087L640.961 16.6913L639.602 17.5169L639.869 17.9127L641.227 17.087ZM638.366 18.8271L638.092 18.4314L636.737 19.2536L637.003 19.6528L638.366 18.8271ZM612.618 34.4812L612.348 34.0854L610.989 34.9111L611.26 35.3069L612.618 34.4812ZM655.532 8.3934L655.262 7.9942L653.903 8.81989L654.173 9.21568L655.532 8.3934ZM632.643 22.3073L632.376 21.9115L631.017 22.7372L631.287 23.133L632.643 22.3073ZM652.67 10.1301L652.4 9.73429L651.041 10.56L651.315 10.9558L652.67 10.1301ZM635.501 20.5706L635.234 20.1714L633.875 20.9971L634.145 21.3929L635.501 20.5706ZM618.338 31.0044L618.068 30.6086L616.709 31.4309L616.976 31.8301L618.338 31.0044ZM621.2 29.2643L620.929 28.8685L619.574 29.6942L619.841 30.09L621.2 29.2643ZM624.061 27.5242L623.795 27.1284L622.436 27.9541L622.703 28.3499L624.061 27.5242ZM626.919 25.7875L626.653 25.3883L625.294 26.214L625.564 26.6098L626.919 25.7875ZM629.785 24.0474L629.514 23.6516L628.159 24.4773L628.426 24.8731L629.785 24.0474ZM615.476 32.7411L615.21 32.3453L613.851 33.171L614.118 33.5668L615.476 32.7411ZM526.787 86.6669L526.521 86.2711L525.162 87.0968L525.429 87.4926L526.787 86.6669ZM535.372 81.4501L535.105 81.0543L533.747 81.88L534.013 82.2757L535.372 81.4501ZM521.064 90.1471L520.797 89.7513L519.439 90.5736L519.705 90.9728L521.064 90.1471ZM532.511 83.1867L532.24 82.791L530.885 83.6166L531.152 84.0124L532.511 83.1867ZM518.206 91.8838L517.939 91.488L516.581 92.3137L516.851 92.7095L518.206 91.8838ZM572.563 58.8357L572.292 58.4399L570.934 59.2656L571.204 59.6613L572.563 58.8357ZM523.929 88.407L523.659 88.0112L522.304 88.8369L522.571 89.2327L523.929 88.407ZM643.819 14.9512L642.46 15.7769L642.73 16.1726L644.085 15.3469L643.819 14.9512ZM646.677 13.2145L645.322 14.0368L645.588 14.4325L646.947 13.6103L646.677 13.2145ZM509.621 97.1041L509.351 96.7049L507.996 97.5306L508.262 97.9264L509.621 97.1041ZM512.483 95.364L512.216 94.9682L510.857 95.7905L511.124 96.1897L512.483 95.364ZM514.263 94.2824V94.6338H514.76V93.9787L515.341 93.6239L515.074 93.2281L514.76 93.4158V93.0405H514.263V93.7194L513.712 94.0538L513.982 94.4496L514.263 94.2824ZM529.649 84.9268L529.379 84.5276L528.02 85.3533L528.287 85.7491L529.649 84.9268ZM561.12 65.7926L560.853 65.3968L559.494 66.2191L559.761 66.6183L561.12 65.7926ZM563.981 64.0559L563.711 63.6602L562.352 64.4858L562.623 64.8816L563.981 64.0559ZM538.23 79.71L537.96 79.3108L536.601 80.1365L536.871 80.5322L538.23 79.71ZM555.396 69.2694L555.13 68.8736L553.771 69.6993L554.045 70.0951L555.396 69.2694ZM566.839 62.3124L566.573 61.9166L565.214 62.7423L565.481 63.1381L566.839 62.3124ZM569.701 60.5757L569.434 60.18L568.076 61.0022L568.342 61.4014L569.701 60.5757ZM558.258 67.5361L557.991 67.1369L556.633 67.9626L556.899 68.3584L558.258 67.5361ZM543.953 76.2298L543.687 75.834L542.328 76.6597L542.598 77.0555L543.953 76.2298ZM541.095 77.9699L540.825 77.5741L539.47 78.3964L539.737 78.7956L541.095 77.9699ZM549.677 72.753L549.406 72.3572L548.051 73.1795L548.318 73.5753L549.677 72.753ZM552.535 71.0129L552.268 70.6171L550.909 71.4428L551.18 71.8386L552.535 71.0129ZM546.812 74.4897L546.545 74.0939L545.186 74.9196L545.46 75.3154L546.812 74.4897Z" fill="#BFAFCF"/>
</mask>
<g mask="url(#mask0_871_325)">
<rect x="14.0508" y="-14" width="1334" height="288" fill="#BFAFCF"/>
</g>
</svg>
