<svg width="1365" height="94" viewBox="0 0 1365 94" fill="none" xmlns="http://www.w3.org/2000/svg">
<mask id="mask0_895_320" style="mask-type:alpha" maskUnits="userSpaceOnUse" x="0" y="-617" width="1366" height="683">
<path fill-rule="evenodd" clip-rule="evenodd" d="M1330.48 -307.616L1330.3 -308.227L1327.42 -307.802L1327.6 -307.191L1330.48 -307.616ZM1127.22 -277.558L1130.11 -277.983L1129.91 -278.594L1127.03 -278.169L1127.22 -277.558ZM1239.2 -294.756L1236.32 -294.33L1236.51 -293.72L1239.4 -294.145L1239.2 -294.756ZM1230.45 -292.82L1233.33 -293.245L1233.14 -293.856L1230.26 -293.431L1230.45 -292.82ZM1324.41 -306.716L1324.22 -307.327L1321.34 -306.902L1321.53 -306.291L1324.41 -306.716ZM1318.34 -305.821L1318.15 -306.431L1315.27 -306.006L1315.45 -305.396L1318.34 -305.821ZM1133.29 -278.454L1136.18 -278.879L1135.98 -279.489L1133.1 -279.064L1133.29 -278.454ZM1333.48 -308.701L1333.67 -308.091L1336.55 -308.516L1336.36 -309.127L1333.48 -308.701ZM1109.01 -274.859L1111.89 -275.288L1111.7 -275.899L1108.82 -275.469L1109.01 -274.859ZM1339.55 -309.592L1339.74 -308.982L1342.62 -309.411L1342.43 -310.022L1339.55 -309.592ZM1214.92 -291.165L1212.04 -290.74L1212.23 -290.13L1215.11 -290.555L1214.92 -291.165ZM1279.02 -300.006L1281.91 -300.431L1281.72 -301.041L1278.83 -300.616L1279.02 -300.006ZM1120.96 -277.269L1121.15 -276.658L1124.03 -277.083L1123.84 -277.694L1120.96 -277.269ZM1220.99 -292.065L1218.12 -291.64L1218.3 -291.029L1221.18 -291.454L1220.99 -292.065ZM1224.37 -291.92L1227.26 -292.35L1227.07 -292.96L1224.18 -292.531L1224.37 -291.92ZM1139.36 -279.354L1142.25 -279.779L1142.06 -280.389L1139.18 -279.964L1139.36 -279.354ZM1364.03 -312.577L1365.14 -312.74V-313.382L1363.84 -313.187L1364.03 -312.577ZM1190.82 -286.96L1190.64 -287.575L1187.75 -287.145L1187.94 -286.535L1190.82 -286.96ZM1184.76 -286.069L1184.56 -286.679L1181.68 -286.254L1181.87 -285.639L1184.76 -286.069ZM1145.43 -280.249L1148.32 -280.678L1148.14 -281.289L1145.25 -280.859L1145.43 -280.249ZM1172.42 -284.879L1169.53 -284.454L1169.72 -283.844L1172.61 -284.269L1172.42 -284.879ZM1178.49 -285.779L1175.61 -285.354L1175.8 -284.744L1178.68 -285.169L1178.49 -285.779ZM1196.9 -287.859L1196.71 -288.47L1193.83 -288.045L1194.02 -287.434L1196.9 -287.859ZM1291.17 -301.801L1294.05 -302.226L1293.87 -302.836L1290.98 -302.411L1291.17 -301.801ZM1297.24 -302.696L1300.12 -303.126L1299.93 -303.736L1297.04 -303.311L1297.24 -302.696ZM1306.19 -304.026L1306 -304.636L1303.12 -304.207L1303.31 -303.596L1306.19 -304.026ZM1312.27 -304.921L1312.07 -305.532L1309.19 -305.106L1309.38 -304.496L1312.27 -304.921ZM1151.51 -281.144L1154.39 -281.569L1154.21 -282.18L1151.32 -281.755L1151.51 -281.144ZM1285.1 -300.906L1287.98 -301.331L1287.79 -301.941L1284.91 -301.516L1285.1 -300.906ZM1209.04 -289.655L1208.85 -290.265L1205.97 -289.84L1206.15 -289.23L1209.04 -289.655ZM1202.97 -288.759L1202.78 -289.365L1199.9 -288.94L1200.09 -288.33L1202.97 -288.759ZM1163.66 -282.944L1166.53 -283.369L1166.34 -283.98L1163.46 -283.555L1163.66 -282.944ZM1157.58 -282.044L1160.47 -282.469L1160.28 -283.08L1157.39 -282.655L1157.58 -282.044ZM1105.82 -274.393L1105.63 -275.003L1102.75 -274.578L1102.93 -273.963L1105.82 -274.393ZM1351.88 -310.782L1354.77 -311.207L1354.58 -311.817L1351.7 -311.392L1351.88 -310.782ZM1117.96 -276.184L1117.77 -276.794L1114.89 -276.369L1115.07 -275.759L1117.96 -276.184ZM1099.74 -273.493L1099.55 -274.103L1096.67 -273.678L1096.86 -273.068L1099.74 -273.493ZM1254.73 -296.415L1257.61 -296.84L1257.42 -297.451L1254.54 -297.026L1254.73 -296.415ZM1266.88 -298.206L1269.76 -298.631L1269.57 -299.241L1266.69 -298.816L1266.88 -298.206ZM1248.66 -295.52L1251.55 -295.945L1251.35 -296.555L1248.47 -296.13L1248.66 -295.52ZM1081.52 -270.798L1081.34 -271.408L1078.46 -270.983L1078.64 -270.373L1081.52 -270.798ZM1087.6 -271.698L1087.4 -272.308L1084.53 -271.883L1084.72 -271.273L1087.6 -271.698ZM1272.95 -299.106L1275.84 -299.531L1275.64 -300.141L1272.76 -299.716L1272.95 -299.106ZM1345.62 -310.492L1345.81 -309.882L1348.7 -310.307L1348.5 -310.917L1345.62 -310.492ZM1357.77 -312.292L1357.96 -311.681L1360.84 -312.107L1360.65 -312.717L1357.77 -312.292ZM1093.67 -272.593L1093.49 -273.204L1090.6 -272.779L1090.79 -272.168L1093.67 -272.593ZM1260.8 -297.31L1263.69 -297.74L1263.5 -298.351L1260.62 -297.921L1260.8 -297.31ZM1242.59 -294.62L1245.48 -295.045L1245.28 -295.655L1242.4 -295.23L1242.59 -294.62ZM891.589 -362.975L891.266 -363.563L888.513 -362.83L888.849 -362.247L891.589 -362.975ZM1152.27 -432.221L1151.94 -432.808L1149.19 -432.076L1149.52 -431.493L1152.27 -432.221ZM1190.07 -442.264L1192.81 -442.997L1192.48 -443.58L1189.74 -442.852L1190.07 -442.264ZM1146.47 -430.683L1146.14 -431.266L1143.4 -430.538L1143.73 -429.95L1146.47 -430.683ZM914.771 -369.134L914.441 -369.717L911.688 -368.985L912.017 -368.406L914.771 -369.134ZM1068.42 -409.95L1071.17 -410.682L1070.84 -411.265L1068.09 -410.537L1068.42 -409.95ZM908.974 -367.596L908.644 -368.175L905.897 -367.447L906.227 -366.864L908.974 -367.596ZM1062.62 -408.412L1065.37 -409.14L1065.05 -409.723L1062.29 -408.991L1062.62 -408.412ZM903.177 -366.05L902.847 -366.633L900.107 -365.905L900.43 -365.322L903.177 -366.05ZM897.386 -364.512L897.057 -365.1L894.316 -364.368L894.639 -363.784L897.386 -364.512ZM1175.43 -438.38L1175.11 -438.963L1172.36 -438.23L1172.69 -437.651L1175.43 -438.38ZM1085.79 -414.567L1088.54 -415.295L1088.21 -415.882L1085.46 -415.15L1085.79 -414.567ZM1181.23 -439.917L1180.9 -440.5L1178.16 -439.772L1178.48 -439.189L1181.23 -439.917ZM1103.18 -419.184L1105.92 -419.912L1105.59 -420.495L1102.85 -419.762L1103.18 -419.184ZM1091.59 -416.104L1094.33 -416.837L1094.01 -417.415L1091.26 -416.687L1091.59 -416.104ZM1183.95 -441.31L1184.28 -440.722L1187.03 -441.455L1186.69 -442.038L1183.95 -441.31ZM1080.01 -413.025L1082.75 -413.757L1082.42 -414.34L1079.68 -413.608L1080.01 -413.025ZM1074.22 -411.487L1076.96 -412.22L1076.63 -412.803L1073.89 -412.075L1074.22 -411.487ZM917.478 -370.527L917.801 -369.943L920.555 -370.671L920.225 -371.255L917.478 -370.527ZM1163.86 -435.305L1163.53 -435.883L1160.78 -435.155L1161.11 -434.572L1163.86 -435.305ZM1158.06 -433.763L1157.73 -434.346L1154.99 -433.618L1155.31 -433.035L1158.06 -433.763ZM1169.65 -436.842L1169.32 -437.425L1166.57 -436.693L1166.9 -436.109L1169.65 -436.842ZM946.767 -377.635L949.52 -378.363L949.191 -378.942L946.437 -378.214L946.767 -377.635ZM1030.62 -399.911L1030.29 -400.494L1027.54 -399.757L1027.87 -399.178L1030.62 -399.911ZM1097.38 -417.646L1100.13 -418.374L1099.8 -418.953L1097.06 -418.225L1097.38 -417.646ZM1056.83 -406.87L1059.58 -407.603L1059.26 -408.181L1056.5 -407.453L1056.83 -406.87ZM1042.2 -402.986L1041.87 -403.569L1039.13 -402.841L1039.46 -402.258L1042.2 -402.986ZM1129.1 -426.071L1128.77 -426.649L1126.02 -425.921L1126.35 -425.338L1129.1 -426.071ZM981.523 -386.865L984.276 -387.597L983.947 -388.176L981.2 -387.448L981.523 -386.865ZM1024.83 -398.373L1024.5 -398.957L1021.75 -398.224L1022.08 -397.645L1024.83 -398.373ZM990.073 -389.139L989.751 -389.723L986.997 -388.985L987.326 -388.407L990.073 -389.139ZM995.864 -390.677L995.534 -391.265L992.781 -390.532L993.117 -389.949L995.864 -390.677ZM1007.44 -393.752L1007.12 -394.335L1004.38 -393.607L1004.7 -393.024L1007.44 -393.752ZM1123.31 -424.529L1122.97 -425.112L1120.23 -424.384L1120.55 -423.801L1123.31 -424.529ZM1019.04 -396.831L1018.71 -397.41L1015.96 -396.682L1016.29 -396.099L1019.04 -396.831ZM1001.65 -392.214L1001.33 -392.798L998.571 -392.07L998.907 -391.486L1001.65 -392.214ZM1117.52 -422.991L1117.18 -423.574L1114.43 -422.846L1114.76 -422.263L1117.52 -422.991ZM975.739 -385.327L978.486 -386.055L978.156 -386.639L975.409 -385.906L975.739 -385.327ZM940.976 -376.093L943.73 -376.826L943.394 -377.409L940.647 -376.677L940.976 -376.093ZM935.192 -374.556L937.933 -375.284L937.603 -375.867L934.863 -375.139L935.192 -374.556ZM1050.72 -405.916L1051.04 -405.333L1053.8 -406.065L1053.47 -406.644L1050.72 -405.916ZM1140.68 -429.146L1140.35 -429.733L1137.6 -429.001L1137.94 -428.422L1140.68 -429.146ZM1013.25 -395.289L1012.91 -395.873L1010.17 -395.144L1010.49 -394.561L1013.25 -395.289ZM923.605 -371.481L926.345 -372.209L926.022 -372.792L923.269 -372.06L923.605 -371.481ZM929.395 -373.018L932.142 -373.746L931.813 -374.33L929.059 -373.602L929.395 -373.018ZM1108.97 -420.721L1111.71 -421.454L1111.38 -422.037L1108.64 -421.309L1108.97 -420.721ZM952.564 -379.173L955.311 -379.901L954.988 -380.489L952.234 -379.752L952.564 -379.173ZM964.151 -382.252L966.898 -382.98L966.569 -383.564L963.828 -382.836L964.151 -382.252ZM1048 -404.523L1047.67 -405.107L1044.92 -404.378L1045.25 -403.795L1048 -404.523ZM969.948 -383.79L972.689 -384.518L972.366 -385.101L969.619 -384.373L969.948 -383.79ZM958.361 -380.715L961.101 -381.443L960.778 -382.031L958.025 -381.298L958.361 -380.715ZM1134.89 -427.608L1134.56 -428.187L1131.81 -427.454L1132.13 -426.871L1134.89 -427.608ZM1036.41 -401.448L1036.08 -402.032L1033.33 -401.303L1033.66 -400.72L1036.41 -401.448ZM1207.45 -446.885L1210.19 -447.614L1209.86 -448.192L1207.11 -447.464L1207.45 -446.885ZM1242.21 -456.119L1244.95 -456.847L1244.62 -457.426L1241.87 -456.698L1242.21 -456.119ZM1213.24 -448.423L1215.98 -449.151L1215.66 -449.734L1212.91 -449.002L1213.24 -448.423ZM1236.4 -454.577L1239.16 -455.31L1238.83 -455.889L1236.08 -455.161L1236.4 -454.577ZM1343.43 -483.003L1343.1 -483.586L1340.35 -482.858L1340.68 -482.275L1343.43 -483.003ZM1314.46 -475.311L1314.13 -475.89L1311.38 -475.162L1311.71 -474.578L1314.46 -475.311ZM1349.21 -484.549L1348.89 -485.128L1346.14 -484.4L1346.47 -483.812L1349.21 -484.549ZM1201.65 -445.339L1204.4 -446.072L1204.07 -446.65L1201.32 -445.922L1201.65 -445.339ZM1256.2 -460.506L1253.46 -459.769L1253.79 -459.19L1256.53 -459.918L1256.2 -460.506ZM1248 -457.657L1250.74 -458.385L1250.41 -458.968L1247.66 -458.236L1248 -457.657ZM1230.61 -453.035L1233.37 -453.768L1233.04 -454.351L1230.28 -453.623L1230.61 -453.035ZM1320.26 -476.853L1319.93 -477.432L1317.17 -476.704L1317.51 -476.125L1320.26 -476.853ZM1308.68 -473.769L1308.35 -474.352L1305.6 -473.624L1305.92 -473.041L1308.68 -473.769ZM1326.05 -478.39L1325.72 -478.974L1322.97 -478.241L1323.3 -477.662L1326.05 -478.39ZM1279.7 -466.081L1279.37 -466.66L1276.63 -465.932L1276.96 -465.349L1279.7 -466.081ZM1337.64 -481.465L1337.31 -482.049L1334.56 -481.321L1334.89 -480.733L1337.64 -481.465ZM1285.5 -467.619L1285.17 -468.202L1282.42 -467.47L1282.75 -466.886L1285.5 -467.619ZM1219.03 -449.96L1221.78 -450.688L1221.45 -451.272L1218.71 -450.544L1219.03 -449.96ZM1331.84 -479.928L1331.51 -480.511L1328.77 -479.783L1329.1 -479.2L1331.84 -479.928ZM1224.82 -451.498L1227.57 -452.226L1227.23 -452.809L1224.49 -452.081L1224.82 -451.498ZM1363.52 -489.008L1363.85 -488.429L1365.14 -488.773V-489.447L1363.52 -489.008ZM1268.13 -462.997L1267.8 -463.585L1265.05 -462.853L1265.37 -462.269L1268.13 -462.997ZM1291.29 -469.156L1290.96 -469.74L1288.22 -469.007L1288.54 -468.424L1291.29 -469.156ZM1273.92 -464.539L1273.59 -465.123L1270.84 -464.395L1271.17 -463.811L1273.92 -464.539ZM1302.88 -472.231L1302.56 -472.815L1299.8 -472.082L1300.13 -471.499L1302.88 -472.231ZM1355.01 -486.087L1354.68 -486.666L1351.94 -485.938L1352.27 -485.35L1355.01 -486.087ZM1360.8 -487.62L1360.47 -488.203L1357.73 -487.471L1358.06 -486.892L1360.8 -487.62ZM1297.09 -470.694L1296.76 -471.277L1294.01 -470.545L1294.34 -469.961L1297.09 -470.694ZM1262.33 -461.46L1262 -462.043L1259.25 -461.315L1259.58 -460.732L1262.33 -461.46ZM1195.86 -443.801L1198.61 -444.534L1198.28 -445.117L1195.53 -444.385L1195.86 -443.801ZM1126.51 -326.69L1123.67 -326.161L1123.91 -325.56L1126.75 -326.089L1126.51 -326.69ZM1081.71 -318.329L1081.94 -317.732L1084.79 -318.261L1084.56 -318.862L1081.71 -318.329ZM1336.54 -365.227L1336.3 -365.833L1333.46 -365.304L1333.69 -364.702L1336.54 -365.227ZM1093.7 -320.567L1093.93 -319.966L1096.78 -320.495L1096.54 -321.096L1093.7 -320.567ZM1273.75 -353.515L1276.59 -354.044L1276.36 -354.645L1273.51 -354.116L1273.75 -353.515ZM1240.39 -347.939L1237.55 -347.41L1237.79 -346.809L1240.63 -347.338L1240.39 -347.939ZM1228.41 -345.701L1225.56 -345.172L1225.8 -344.57L1228.65 -345.099L1228.41 -345.701ZM1087.7 -319.446L1087.95 -318.849L1090.78 -319.378L1090.55 -319.979L1087.7 -319.446ZM1360.51 -369.699L1360.28 -370.3L1357.43 -369.771L1357.67 -369.17L1360.51 -369.699ZM1234.4 -346.818L1231.56 -346.289L1231.79 -345.687L1234.64 -346.216L1234.4 -346.818ZM1330.54 -364.105L1330.3 -364.707L1327.46 -364.178L1327.69 -363.576L1330.54 -364.105ZM1279.74 -354.632L1282.59 -355.161L1282.35 -355.762L1279.51 -355.233L1279.74 -354.632ZM1267.75 -352.398L1270.61 -352.927L1270.37 -353.528L1267.52 -352.999L1267.75 -352.398ZM1108.76 -322.733L1108.52 -323.335L1105.69 -322.801L1105.92 -322.204L1108.76 -322.733ZM1120.52 -325.573L1117.67 -325.044L1117.91 -324.443L1120.75 -324.972L1120.52 -325.573ZM1252.38 -350.173L1249.54 -349.644L1249.78 -349.042L1252.63 -349.572L1252.38 -350.173ZM1264.37 -352.411L1261.53 -351.878L1261.76 -351.276L1264.61 -351.805L1264.37 -352.411ZM1258.38 -351.29L1255.53 -350.761L1255.77 -350.159L1258.62 -350.688L1258.38 -351.29ZM1102.77 -321.616L1102.53 -322.218L1099.69 -321.684L1099.93 -321.087L1102.77 -321.616ZM1354.52 -368.582L1354.28 -369.184L1351.43 -368.654L1351.68 -368.053L1354.52 -368.582ZM1363.66 -370.287L1365.14 -370.567V-371.214L1363.42 -370.893L1363.66 -370.287ZM1246.39 -349.056L1243.54 -348.527L1243.77 -347.926L1246.62 -348.455L1246.39 -349.056ZM1114.76 -323.85L1114.53 -324.452L1111.68 -323.918L1111.92 -323.321L1114.76 -323.85ZM1342.54 -366.344L1342.29 -366.95L1339.45 -366.416L1339.69 -365.815L1342.54 -366.344ZM1075.71 -317.212L1075.95 -316.615L1078.79 -317.144L1078.55 -317.746L1075.71 -317.212ZM1348.52 -367.461L1348.29 -368.062L1345.45 -367.533L1345.68 -366.932L1348.52 -367.461ZM1300.57 -358.516L1300.34 -359.118L1297.49 -358.588L1297.73 -357.987L1300.57 -358.516ZM1162.71 -332.799L1162.48 -333.401L1159.63 -332.872L1159.87 -332.27L1162.71 -332.799ZM1306.57 -359.633L1306.33 -360.234L1303.48 -359.705L1303.73 -359.104L1306.57 -359.633ZM1156.73 -331.682L1156.48 -332.284L1153.64 -331.755L1153.87 -331.153L1156.73 -331.682ZM1150.48 -331.162L1147.64 -330.633L1147.88 -330.032L1150.72 -330.561L1150.48 -331.162ZM1168.71 -333.916L1168.47 -334.518L1165.63 -333.989L1165.86 -333.387L1168.71 -333.916ZM1312.56 -360.754L1312.32 -361.356L1309.47 -360.827L1309.72 -360.221L1312.56 -360.754ZM1201.83 -340.098L1204.68 -340.627L1204.43 -341.228L1201.59 -340.699L1201.83 -340.098ZM1195.59 -339.582L1195.83 -338.981L1198.67 -339.51L1198.44 -340.111L1195.59 -339.582ZM1132.5 -327.812L1129.66 -327.282L1129.89 -326.681L1132.75 -327.21L1132.5 -327.812ZM1294.58 -357.399L1294.35 -358.001L1291.5 -357.471L1291.73 -356.87L1294.58 -357.399ZM1207.82 -341.215L1210.67 -341.744L1210.43 -342.345L1207.59 -341.816L1207.82 -341.215ZM1180.7 -336.155L1180.45 -336.756L1177.62 -336.227L1177.85 -335.626L1180.7 -336.155ZM1174.7 -335.033L1174.47 -335.635L1171.61 -335.106L1171.86 -334.504L1174.7 -335.033ZM1186.69 -337.272L1186.46 -337.873L1183.6 -337.344L1183.84 -336.743L1186.69 -337.272ZM1288.34 -356.884L1285.5 -356.355L1285.74 -355.753L1288.58 -356.282L1288.34 -356.884ZM1189.84 -337.859L1192.68 -338.389L1192.44 -338.99L1189.6 -338.461L1189.84 -337.859ZM1144.49 -330.05L1141.65 -329.521L1141.88 -328.919L1144.73 -329.449L1144.49 -330.05ZM1213.81 -342.332L1216.66 -342.861L1216.42 -343.462L1213.58 -342.933L1213.81 -342.332ZM1138.49 -328.928L1135.65 -328.399L1135.89 -327.798L1138.74 -328.327L1138.49 -328.928ZM1318.56 -361.871L1318.32 -362.473L1315.47 -361.944L1315.71 -361.342L1318.56 -361.871ZM1324.54 -362.988L1324.31 -363.59L1321.46 -363.061L1321.7 -362.459L1324.54 -362.988ZM1219.81 -343.449L1222.65 -343.982L1222.42 -344.584L1219.57 -344.055L1219.81 -343.449ZM1175.74 -529.191L1175.34 -529.752L1172.71 -528.865L1173.1 -528.309L1175.74 -529.191ZM1231.28 -547.808L1230.88 -548.364L1228.24 -547.478L1228.64 -546.922L1231.28 -547.808ZM1225.72 -545.945L1225.32 -546.506L1222.69 -545.619L1223.08 -545.063L1225.72 -545.945ZM1264.6 -558.977L1264.58 -559H1262.6L1261.57 -558.647L1261.97 -558.091L1264.6 -558.977ZM1170.19 -527.332L1169.79 -527.888L1167.15 -527.007L1167.56 -526.446L1170.19 -527.332ZM1109.1 -506.852L1108.7 -507.413L1106.06 -506.526L1106.46 -505.966L1109.1 -506.852ZM1131.32 -514.304L1130.92 -514.861L1128.27 -513.974L1128.68 -513.418L1131.32 -514.304ZM1214.62 -542.223L1214.22 -542.78L1211.58 -541.893L1211.98 -541.337L1214.62 -542.223ZM1192.4 -534.776L1192.01 -535.336L1189.37 -534.45L1189.77 -533.894L1192.4 -534.776ZM1181.3 -531.054L1180.9 -531.61L1178.25 -530.724L1178.66 -530.168L1181.3 -531.054ZM1103.55 -504.993L1103.15 -505.55L1100.51 -504.668L1100.91 -504.107L1103.55 -504.993ZM1186.85 -532.917L1186.46 -533.473L1183.81 -532.591L1184.22 -532.031L1186.85 -532.917ZM1197.95 -536.639L1197.56 -537.195L1194.92 -536.308L1195.32 -535.752L1197.95 -536.639ZM1136.87 -516.163L1136.48 -516.719L1133.83 -515.837L1134.24 -515.277L1136.87 -516.163ZM1153.53 -521.748L1153.13 -522.304L1150.49 -521.422L1150.89 -520.861L1153.53 -521.748ZM1247.94 -553.393L1247.54 -553.949L1244.9 -553.063L1245.3 -552.506L1247.94 -553.393ZM1220.18 -544.086L1219.78 -544.643L1217.13 -543.761L1217.54 -543.2L1220.18 -544.086ZM1209.06 -540.36L1208.66 -540.921L1206.02 -540.035L1206.43 -539.478L1209.06 -540.36ZM1142.42 -518.021L1142.02 -518.582L1139.38 -517.696L1139.78 -517.135L1142.42 -518.021ZM1120.21 -510.578L1119.81 -511.134L1117.17 -510.253L1117.57 -509.692L1120.21 -510.578ZM1147.98 -519.884L1147.58 -520.441L1144.94 -519.554L1145.34 -518.998L1147.98 -519.884ZM1242.38 -551.525L1241.98 -552.086L1239.34 -551.2L1239.74 -550.639L1242.38 -551.525ZM1164.64 -525.469L1164.24 -526.025L1161.6 -525.139L1162 -524.583L1164.64 -525.469ZM1259.04 -557.114L1258.65 -557.675L1256.01 -556.789L1256.41 -556.233L1259.04 -557.114ZM1125.76 -512.437L1125.36 -512.997L1122.72 -512.111L1123.12 -511.55L1125.76 -512.437ZM1203.52 -538.497L1203.11 -539.053L1200.47 -538.176L1200.88 -537.615L1203.52 -538.497ZM1159.08 -523.606L1158.68 -524.167L1156.04 -523.281L1156.44 -522.724L1159.08 -523.606ZM1253.5 -555.251L1253.1 -555.807L1250.45 -554.926L1250.86 -554.365L1253.5 -555.251ZM1114.65 -508.715L1114.26 -509.271L1111.62 -508.385L1112.02 -507.829L1114.65 -508.715ZM1236.83 -549.667L1236.44 -550.223L1233.8 -549.341L1234.2 -548.78L1236.83 -549.667ZM964.705 -458.457L964.309 -459.014L961.668 -458.127L962.07 -457.571L964.705 -458.457ZM953.598 -454.736L953.203 -455.292L950.561 -454.41L950.963 -453.849L953.598 -454.736ZM959.151 -456.594L958.749 -457.155L956.108 -456.269L956.51 -455.712L959.151 -456.594ZM942.485 -451.01L942.089 -451.57L939.454 -450.684L939.85 -450.123L942.485 -451.01ZM948.045 -452.877L947.643 -453.433L945.008 -452.547L945.403 -451.991L948.045 -452.877ZM986.924 -465.905L986.523 -466.461L983.881 -465.58L984.289 -465.019L986.924 -465.905ZM981.365 -464.047L980.963 -464.603L978.328 -463.716L978.73 -463.16L981.365 -464.047ZM975.811 -462.179L975.409 -462.74L972.774 -461.853L973.176 -461.297L975.811 -462.179ZM970.265 -460.316L969.856 -460.872L967.221 -459.99L967.623 -459.43L970.265 -460.316ZM936.945 -449.151L936.543 -449.707L933.901 -448.825L934.303 -448.265L936.945 -449.151ZM992.471 -467.764L992.069 -468.324L989.434 -467.438L989.83 -466.882L992.471 -467.764ZM1098 -503.135L1097.6 -503.691L1094.95 -502.805L1095.36 -502.249L1098 -503.135ZM903.618 -437.982L903.216 -438.538L900.581 -437.656L900.983 -437.095L903.618 -437.982ZM892.505 -434.26L892.109 -434.821L889.468 -433.934L889.863 -433.378L892.505 -434.26ZM909.171 -439.845L908.763 -440.405L906.128 -439.519L906.53 -438.963L909.171 -439.845ZM914.725 -441.708L914.323 -442.264L911.688 -441.378L912.09 -440.821L914.725 -441.708ZM925.831 -445.425L925.429 -445.986L922.788 -445.099L923.196 -444.539L925.831 -445.425ZM931.385 -447.288L930.983 -447.844L928.348 -446.958L928.743 -446.402L931.385 -447.288ZM920.278 -443.566L919.876 -444.123L917.248 -443.241L917.636 -442.68L920.278 -443.566ZM898.065 -436.123L897.663 -436.679L895.021 -435.793L895.423 -435.237L898.065 -436.123ZM1070.22 -493.824L1069.83 -494.38L1067.19 -493.498L1067.59 -492.938L1070.22 -493.824ZM1059.12 -490.098L1058.72 -490.659L1056.07 -489.772L1056.48 -489.212L1059.12 -490.098ZM1053.56 -488.239L1053.17 -488.796L1050.53 -487.914L1050.92 -487.353L1053.56 -488.239ZM1075.77 -495.687L1075.38 -496.248L1072.74 -495.362L1073.14 -494.805L1075.77 -495.687ZM998.031 -469.627L997.629 -470.183L994.988 -469.297L995.39 -468.74L998.031 -469.627ZM1092.44 -501.272L1092.04 -501.833L1089.39 -500.946L1089.8 -500.39L1092.44 -501.272ZM1048.01 -486.381L1047.61 -486.937L1044.97 -486.051L1045.38 -485.495L1048.01 -486.381ZM1086.89 -499.409L1086.49 -499.965L1083.85 -499.083L1084.25 -498.522L1086.89 -499.409ZM1081.33 -497.55L1080.93 -498.106L1078.29 -497.22L1078.69 -496.664L1081.33 -497.55ZM1064.67 -491.966L1064.28 -492.522L1061.63 -491.635L1062.03 -491.079L1064.67 -491.966ZM1042.45 -484.518L1042.05 -485.078L1039.42 -484.192L1039.82 -483.636L1042.45 -484.518ZM1009.13 -473.348L1008.73 -473.909L1006.09 -473.023L1006.5 -472.467L1009.13 -473.348ZM1020.24 -477.07L1019.84 -477.626L1017.2 -476.744L1017.6 -476.184L1020.24 -477.07ZM1003.58 -471.49L1003.19 -472.046L1000.55 -471.164L1000.94 -470.603L1003.58 -471.49ZM1014.68 -475.211L1014.29 -475.768L1011.65 -474.881L1012.05 -474.325L1014.68 -475.211ZM1025.79 -478.933L1025.4 -479.494L1022.75 -478.607L1023.16 -478.051L1025.79 -478.933ZM1036.91 -482.659L1036.5 -483.215L1033.87 -482.334L1034.27 -481.773L1036.91 -482.659ZM1031.35 -480.796L1030.94 -481.352L1028.31 -480.466L1028.71 -479.91L1031.35 -480.796ZM1264.81 57.6774L1226.6 65.7311H1229.33L1265 58.211H1365.14V57.6638H1264.93L1264.81 57.6774ZM70.2895 -63.4314L59.8481 -71.137H54.1169L64.5648 -63.4314H70.2895ZM20.8694 -63.4314H26.6006L16.1462 -71.137H10.4281L20.8694 -63.4314ZM41.1658 -63.4314L30.7179 -71.137H24.9867L35.4346 -63.4314H41.1658ZM12.0355 -63.4314L1.58761 -71.137H0V-68.0801L6.30431 -63.4314H12.0355ZM68.6821 -71.137L79.1234 -63.4314H84.8546L74.4067 -71.137H68.6821ZM55.7309 -63.4314L45.2764 -71.137H39.5518L49.9997 -63.4314H55.7309ZM116.673 -113.554L119.597 -113.816L119.479 -114.435L116.554 -114.178L116.673 -113.554ZM110.401 -113.621L110.513 -113.002L113.438 -113.264L113.32 -113.884L110.401 -113.621ZM122.839 -114.101L125.757 -114.363L125.645 -114.983L122.72 -114.72L122.839 -114.101ZM98.1944 -111.908L101.119 -112.174L101.001 -112.794L98.0759 -112.527L98.1944 -111.908ZM168.879 -118.189L168.761 -118.808L165.836 -118.546L165.954 -117.926L168.879 -118.189ZM104.354 -112.459L107.279 -112.717L107.16 -113.336L104.235 -113.079L104.354 -112.459ZM138.082 -115.453L137.964 -116.072L135.039 -115.815L135.157 -115.195L138.082 -115.453ZM162.72 -117.641L162.608 -118.261L159.683 -117.999L159.801 -117.379L162.72 -117.641ZM144.235 -116L144.123 -116.619L141.198 -116.357L141.317 -115.738L144.235 -116ZM150.401 -116.547L150.282 -117.171L147.364 -116.909L147.476 -116.289L150.401 -116.547ZM131.916 -114.906L131.798 -115.53L128.879 -115.263L128.991 -114.643L131.916 -114.906ZM156.56 -117.094L156.442 -117.718L153.517 -117.456L153.635 -116.837L156.56 -117.094ZM2.44399 -104.039L0 -103.822V-103.194L2.56257 -103.42L2.44399 -104.039ZM39.5123 -106.703L39.4003 -107.322L36.482 -107.064L36.6006 -106.445L39.5123 -106.703ZM92.0285 -111.365L94.9533 -111.627L94.8348 -112.247L91.9165 -111.984L92.0285 -111.365ZM33.2409 -106.775L30.316 -106.508L30.4346 -105.889L33.3595 -106.156L33.2409 -106.775ZM20.9287 -105.681L17.9973 -105.418L18.1158 -104.799L21.0341 -105.061L20.9287 -105.681ZM175.045 -118.74L174.927 -119.36L171.995 -119.098L172.114 -118.478L175.045 -118.74ZM51.8442 -107.797L51.7257 -108.417L48.8008 -108.15L48.9193 -107.53L51.8442 -107.797ZM14.7628 -105.134L11.8379 -104.871L11.9565 -104.252L14.8813 -104.514L14.7628 -105.134ZM45.6783 -107.245L45.5597 -107.869L42.6414 -107.607L42.7534 -106.988L45.6783 -107.245ZM27.0815 -106.223L24.1632 -105.966L24.2752 -105.346L27.2001 -105.604L27.0815 -106.223ZM82.6412 -110.528L82.5226 -111.152L79.5977 -110.886L79.7163 -110.266L82.6412 -110.528ZM85.8757 -110.822L88.8005 -111.08L88.682 -111.7L85.7571 -111.442L85.8757 -110.822ZM76.4752 -109.981L76.3566 -110.605L73.4383 -110.343L73.5569 -109.723L76.4752 -109.981ZM70.3224 -109.439L70.2038 -110.058L67.2789 -109.796L67.3975 -109.181L70.3224 -109.439ZM57.997 -108.34L57.885 -108.959L54.9602 -108.701L55.0787 -108.082L57.997 -108.34ZM64.163 -108.891L64.0444 -109.515L61.1195 -109.249L61.2381 -108.629L64.163 -108.891ZM292.08 -129.132L291.961 -129.751L289.037 -129.494L289.155 -128.87L292.08 -129.132ZM267.436 -126.939L267.324 -127.567L264.399 -127.301L264.518 -126.681L267.436 -126.939ZM261.283 -126.396L261.165 -127.016L258.24 -126.758L258.358 -126.138L261.283 -126.396ZM285.914 -128.585L285.795 -129.209L282.877 -128.942L282.996 -128.322L285.914 -128.585ZM273.602 -127.49L273.483 -128.11L270.558 -127.848L270.677 -127.228L273.602 -127.49ZM248.958 -125.297L248.846 -125.917L245.921 -125.659L246.039 -125.039L248.958 -125.297ZM279.761 -128.033L279.643 -128.653L276.718 -128.395L276.836 -127.775L279.761 -128.033ZM224.32 -123.113L224.202 -123.733L221.277 -123.47L221.395 -122.851L224.32 -123.113ZM218.161 -122.561L218.042 -123.185L215.124 -122.923L215.236 -122.304L218.161 -122.561ZM209.077 -121.757L212.001 -122.019L211.883 -122.638L208.958 -122.381L209.077 -121.757ZM230.48 -123.66L230.368 -124.28L227.443 -124.022L227.561 -123.402L230.48 -123.66ZM242.798 -124.755L242.68 -125.374L239.748 -125.112L239.867 -124.492L242.798 -124.755ZM236.639 -124.212L236.52 -124.831L233.602 -124.569L233.714 -123.945L236.639 -124.212ZM341.362 -133.509L341.243 -134.129L338.325 -133.871L338.437 -133.251L341.362 -133.509ZM335.196 -132.958L335.084 -133.582L332.159 -133.315L332.277 -132.695L335.196 -132.958ZM347.521 -134.056L347.402 -134.676L344.478 -134.414L344.596 -133.794L347.521 -134.056ZM353.674 -134.604L353.562 -135.223L350.637 -134.956L350.756 -134.337L353.674 -134.604ZM329.043 -132.41L328.924 -133.03L325.999 -132.772L326.118 -132.153L329.043 -132.41ZM310.558 -130.773L310.44 -131.393L307.515 -131.135L307.633 -130.516L310.558 -130.773ZM322.877 -131.868L322.758 -132.487L319.84 -132.229L319.952 -131.605L322.877 -131.868ZM298.239 -129.675L298.121 -130.294L295.196 -130.036L295.315 -129.417L298.239 -129.675ZM304.399 -130.226L304.28 -130.846L301.362 -130.583L301.474 -129.959L304.399 -130.226ZM316.724 -131.321L316.606 -131.94L313.681 -131.678L313.799 -131.058L316.724 -131.321ZM255.117 -125.849L254.999 -126.468L252.074 -126.206L252.192 -125.587L255.117 -125.849ZM184.432 -119.568L187.357 -119.83L187.239 -120.454L184.314 -120.192L184.432 -119.568ZM178.28 -119.021L181.198 -119.283L181.086 -119.902L178.161 -119.645L178.28 -119.021ZM190.598 -120.12L193.523 -120.382L193.405 -121.001L190.48 -120.739L190.598 -120.12ZM5.79048 -103.709L8.71537 -103.967L8.59679 -104.586L5.67849 -104.329L5.79048 -103.709ZM196.639 -121.286L196.751 -120.667L199.676 -120.924L199.557 -121.548L196.639 -121.286ZM202.917 -121.214L205.842 -121.476L205.723 -122.096L202.799 -121.833L202.917 -121.214ZM34.4003 -115.598L34.2159 -116.212L31.3305 -115.792L31.515 -115.177L34.4003 -115.598ZM158.919 -134.405L159.103 -133.794L161.989 -134.215L161.797 -134.825L158.919 -134.405ZM164.992 -135.295L165.177 -134.685L168.056 -135.105L167.871 -135.716L164.992 -135.295ZM186.297 -137.76L186.106 -138.375L183.227 -137.954L183.418 -137.339L186.297 -137.76ZM40.4807 -116.484L40.2896 -117.094L37.4043 -116.674L37.5887 -116.063L40.4807 -116.484ZM58.7019 -119.147L58.5174 -119.758L55.6321 -119.337L55.8231 -118.718L58.7019 -119.147ZM28.3266 -114.711L28.129 -115.326L25.2502 -114.901L25.4412 -114.291L28.3266 -114.711ZM192.37 -138.651L192.186 -139.261L189.301 -138.841L189.485 -138.23L192.37 -138.651ZM16.1791 -112.943L15.9815 -113.554L13.1027 -113.128L13.2937 -112.518L16.1791 -112.943ZM7.2134 -111.636L10.0922 -112.057L9.90772 -112.667L7.02236 -112.247L7.2134 -111.636ZM46.5544 -117.37L46.37 -117.981L43.4846 -117.56L43.6625 -116.954L46.5544 -117.37ZM22.2528 -113.825L22.0618 -114.435L19.183 -114.015L19.3675 -113.404L22.2528 -113.825ZM52.6282 -118.261L52.4437 -118.871L49.5583 -118.451L49.756 -117.84L52.6282 -118.261ZM171.073 -136.177L171.257 -135.567L174.143 -135.992L173.952 -136.602L171.073 -136.177ZM152.845 -133.518L153.029 -132.908L155.908 -133.328L155.724 -133.943L152.845 -133.518ZM180.216 -136.878L180.025 -137.489L177.147 -137.068L177.331 -136.453L180.216 -136.878ZM210.592 -141.31L210.407 -141.92L207.522 -141.5L207.713 -140.885L210.592 -141.31ZM128.537 -129.973L128.728 -129.363L131.607 -129.783L131.422 -130.403L128.537 -129.973ZM98.3459 -124.931L101.231 -125.352L101.04 -125.962L98.1615 -125.541L98.3459 -124.931ZM64.7822 -120.029L64.5978 -120.644L61.7058 -120.224L61.8969 -119.609L64.7822 -120.029ZM92.2722 -124.045L95.1641 -124.465L94.9665 -125.076L92.0877 -124.655L92.2722 -124.045ZM122.648 -128.476L125.533 -128.897L125.348 -129.507L122.463 -129.091L122.648 -128.476ZM134.611 -130.859L134.808 -130.249L137.687 -130.669L137.503 -131.28L134.611 -130.859ZM116.574 -127.59L119.466 -128.01L119.275 -128.625L116.389 -128.205L116.574 -127.59ZM110.5 -126.704L113.385 -127.124L113.194 -127.735L110.309 -127.314L110.5 -126.704ZM104.426 -125.817L107.312 -126.242L107.121 -126.853L104.242 -126.428L104.426 -125.817ZM204.525 -140.423L204.333 -141.034L201.448 -140.613L201.646 -140.003L204.525 -140.423ZM76.9297 -121.806L76.7453 -122.417L73.8665 -121.996L74.051 -121.386L76.9297 -121.806ZM86.1985 -123.154L89.0772 -123.574L88.8862 -124.189L86.0074 -123.769L86.1985 -123.154ZM1.13965 -110.745L4.01842 -111.166L3.83397 -111.781L0.955198 -111.356L1.13965 -110.745ZM70.856 -120.915L70.6649 -121.526L67.7862 -121.105L67.9772 -120.495L70.856 -120.915ZM146.771 -132.636L146.956 -132.026L149.834 -132.442L149.65 -133.057L146.771 -132.636ZM140.684 -131.75L140.875 -131.14L143.754 -131.56L143.57 -132.171L140.684 -131.75ZM80.1247 -122.272L83.0035 -122.697L82.819 -123.308L79.9402 -122.883L80.1247 -122.272ZM198.444 -139.533L198.26 -140.143L195.374 -139.723L195.559 -139.112L198.444 -139.533ZM1.08036 -125.352L0 -125.076V-124.411L1.39657 -124.759L1.08036 -125.352ZM123.814 -155.667L123.504 -156.255L120.744 -155.559L121.053 -154.975L123.814 -155.667ZM112.16 -152.723L111.844 -153.311L109.084 -152.615L109.393 -152.031L112.16 -152.723ZM117.984 -154.202L117.667 -154.79L114.901 -154.094L115.217 -153.506L117.984 -154.202ZM106.324 -151.258L106.007 -151.846L103.241 -151.15L103.557 -150.557L106.324 -151.258ZM135.467 -158.611L135.157 -159.199L132.391 -158.502L132.7 -157.919L135.467 -158.611ZM129.644 -157.146L129.327 -157.734L126.561 -157.033L126.877 -156.445L129.644 -157.146ZM141.304 -160.085L140.987 -160.678L138.221 -159.977L138.537 -159.389L141.304 -160.085ZM147.134 -161.555L146.824 -162.143L144.051 -161.442L144.36 -160.863L147.134 -161.555ZM100.5 -149.784L100.184 -150.367L97.4105 -149.671L97.7201 -149.088L100.5 -149.784ZM88.8335 -146.84L88.5239 -147.424L85.7571 -146.727L86.0667 -146.144L88.8335 -146.84ZM53.86 -138.009L53.5438 -138.596L50.7836 -137.9L51.0998 -137.317L53.86 -138.009ZM94.6635 -148.314L94.3539 -148.902L91.5871 -148.206L91.9033 -147.618L94.6635 -148.314ZM59.69 -139.478L59.3804 -140.066L56.6071 -139.37L56.9167 -138.782L59.69 -139.478ZM48.03 -136.539L47.7138 -137.122L44.9405 -136.426L45.2567 -135.838L48.03 -136.539ZM65.5135 -140.953L65.2038 -141.54L62.4305 -140.839L62.7401 -140.261L65.5135 -140.953ZM152.957 -163.034L152.647 -163.617L149.887 -162.92L150.197 -162.333L152.957 -163.034ZM83.0035 -145.371L82.6873 -145.958L79.9271 -145.262L80.2433 -144.674L83.0035 -145.371ZM77.1735 -143.896L76.8639 -144.484L74.0971 -143.788L74.4067 -143.204L77.1735 -143.896ZM71.3501 -142.422L71.0404 -143.01L68.2737 -142.314L68.5833 -141.726L71.3501 -142.422ZM182.107 -170.391L181.791 -170.974L179.031 -170.278L179.347 -169.69L182.107 -170.391ZM205.427 -176.274L205.117 -176.862L202.344 -176.165L202.66 -175.578L205.427 -176.274ZM211.25 -177.748L210.941 -178.336L208.181 -177.64L208.49 -177.052L211.25 -177.748ZM36.37 -133.595L36.0538 -134.183L33.2804 -133.482L33.5966 -132.894L36.37 -133.595ZM199.597 -174.804L199.287 -175.392L196.514 -174.696L196.824 -174.108L199.597 -174.804ZM158.794 -164.499L158.484 -165.087L155.711 -164.39L156.027 -163.807L158.794 -164.499ZM193.767 -173.335L193.457 -173.918L190.684 -173.222L191.007 -172.634L193.767 -173.335ZM24.7034 -130.651L24.3938 -131.239L21.627 -130.543L21.9432 -129.955L24.7034 -130.651ZM30.54 -132.121L30.2304 -132.709L27.4636 -132.012L27.7732 -131.429L30.54 -132.121ZM7.21999 -126.233L6.91037 -126.821L4.137 -126.12L4.4532 -125.537L7.21999 -126.233ZM187.937 -171.861L187.627 -172.448L184.861 -171.752L185.17 -171.164L187.937 -171.861ZM164.617 -165.973L164.307 -166.561L161.541 -165.864L161.857 -165.276L164.617 -165.973ZM18.88 -129.177L18.5704 -129.765L15.797 -129.069L16.1132 -128.485L18.88 -129.177ZM13.05 -127.707L12.7404 -128.295L9.98018 -127.594L10.2898 -127.011L13.05 -127.707ZM42.2 -135.065L41.8838 -135.653L39.1236 -134.956L39.4332 -134.373L42.2 -135.065ZM170.454 -167.447L170.144 -168.035L167.377 -167.334L167.687 -166.751L170.454 -167.447ZM176.277 -168.917L175.967 -169.505L173.194 -168.808L173.51 -168.22L176.277 -168.917ZM1228.55 -129.534L1228.93 -129.458V-134.323L1237.63 -132.582L1238.14 -132.483V-145.474L1237.88 -145.547L1221.9 -149.721L1221.36 -149.861V-144.276L1212.77 -146.524L1212.36 -146.623V-132.777L1212.57 -132.736L1228.55 -129.534ZM1222.16 -149.06L1237.34 -145.095V-133.211L1228.93 -134.897V-142.296L1228.74 -142.341L1222.16 -144.059V-149.06ZM1222.16 -143.643L1228.35 -142.024V-135.015L1222.16 -136.254V-143.643ZM1212.94 -146.053L1221.36 -143.851V-135.843L1221.65 -135.788L1228.35 -134.441V-129.987L1212.95 -133.075V-146.053H1212.94ZM127.074 -151.136V-134.337L127.397 -134.323L136.883 -134.02L136.969 -134.025L171.06 -139.429L171.323 -139.474V-158.245L171.007 -158.263L160.579 -158.801L160.447 -158.792L127.305 -151.19L127.074 -151.136ZM160.888 -158.326L170.651 -157.82V-139.899L160.888 -140.265V-158.326ZM160.572 -139.813L168.616 -139.514L136.877 -134.486L129.782 -134.717L160.572 -139.813ZM127.746 -150.801L160.21 -158.249V-140.224L127.746 -134.848V-150.801ZM1200.16 -183.473L1199.95 -183.554L1177.17 -192.16L1176.57 -192.386V-185.739L1168.01 -188.972L1167.58 -189.135V-172.512L1167.74 -172.457L1190.53 -165.245L1190.94 -165.114V-171.038L1199.58 -168.297L1200.16 -168.116V-183.473ZM1190.37 -165.724L1168.16 -172.76V-188.456L1176.57 -185.282V-175.578L1176.8 -175.505L1190.37 -171.205V-165.724ZM1190.37 -171.815L1177.37 -175.935V-184.979L1190.37 -180.068V-171.815ZM1199.36 -168.971L1190.94 -171.639V-180.303L1190.8 -180.362L1177.38 -185.431V-191.45L1199.36 -183.143V-168.971ZM1238.14 -169.138L1237.93 -169.22L1221.96 -175.247L1221.36 -175.474V-168.826L1212.8 -172.059L1212.36 -172.218V-158.335L1212.53 -158.276L1228.51 -153.221L1228.93 -153.094V-159.013L1237.56 -156.278L1238.14 -156.101V-169.138ZM1228.35 -153.709L1212.94 -158.579V-171.544L1221.36 -168.365V-161.401L1221.59 -161.324L1228.35 -159.185V-153.709ZM1228.35 -159.796L1222.16 -161.754V-168.062L1228.35 -165.729V-159.796ZM1237.34 -156.956L1228.93 -159.619V-165.973L1228.78 -166.027L1222.16 -168.523V-174.542L1237.34 -168.813V-156.956ZM1176.57 -161.573V-155.988L1167.98 -158.236L1167.58 -158.335V-141.748L1167.78 -141.708L1190.58 -137.14L1190.94 -137.064V-141.929L1199.65 -140.188L1200.16 -140.084V-155.396L1199.9 -155.459L1177.11 -161.424L1176.57 -161.573ZM1190.37 -137.597L1168.16 -142.047V-157.756L1176.57 -155.554V-144.819L1176.86 -144.756L1190.37 -142.047V-137.597ZM1177.38 -160.773L1199.36 -155.02V-140.821L1190.94 -142.513V-152.23L1190.76 -152.276L1177.38 -155.776V-160.773ZM1177.38 -155.351L1190.38 -151.95V-142.626L1177.38 -145.23V-155.351ZM568.837 -70.0245H564.549V-67.2707H558.541V-70.0245H554.252V-67.2707H548.264V-70.0245H543.982V-67.2707H537.974V-70.0245H533.693V-67.2707H527.691V-70.0245H523.403V-67.2707H517.395V-70.0245H513.106V-67.2707H158.609L158.491 -67.257L114.11 -57.8919H0V-57.3448H114.163L114.281 -57.3584L158.662 -66.7144H1365.14V-67.2707H568.837V-70.0245Z" fill="#BFAFCF"/>
</mask>
<g mask="url(#mask0_895_320)">
<rect x="0.550781" y="0.5" width="1348" height="93" fill="#BFAFCF" stroke="black"/>
</g>
</svg>
