<svg width="1365" height="270" viewBox="0 0 1365 270" fill="none" xmlns="http://www.w3.org/2000/svg">
<mask id="mask0_895_318" style="mask-type:alpha" maskUnits="userSpaceOnUse" x="0" y="-34" width="1366" height="683">
<path fill-rule="evenodd" clip-rule="evenodd" d="M1330.48 275.487L1330.3 274.877L1327.42 275.302L1327.6 275.912L1330.48 275.487ZM1127.22 305.545L1130.11 305.12L1129.91 304.51L1127.03 304.935L1127.22 305.545ZM1239.2 288.348L1236.32 288.773L1236.51 289.384L1239.4 288.958L1239.2 288.348ZM1230.45 290.283L1233.33 289.858L1233.14 289.248L1230.26 289.673L1230.45 290.283ZM1324.41 276.387L1324.22 275.777L1321.34 276.202L1321.53 276.812L1324.41 276.387ZM1318.34 277.283L1318.15 276.672L1315.27 277.097L1315.45 277.708L1318.34 277.283ZM1133.29 304.65L1136.18 304.225L1135.98 303.614L1133.1 304.039L1133.29 304.65ZM1333.48 274.402L1333.67 275.013L1336.55 274.587L1336.36 273.977L1333.48 274.402ZM1109.01 308.245L1111.89 307.815L1111.7 307.205L1108.82 307.634L1109.01 308.245ZM1339.55 273.511L1339.74 274.122L1342.62 273.692L1342.43 273.082L1339.55 273.511ZM1214.92 291.938L1212.04 292.364L1212.23 292.974L1215.11 292.549L1214.92 291.938ZM1279.02 283.098L1281.91 282.673L1281.72 282.062L1278.83 282.487L1279.02 283.098ZM1120.96 305.835L1121.15 306.445L1124.03 306.02L1123.84 305.41L1120.96 305.835ZM1220.99 291.039L1218.12 291.464L1218.3 292.074L1221.18 291.649L1220.99 291.039ZM1224.37 291.183L1227.26 290.754L1227.07 290.143L1224.18 290.573L1224.37 291.183ZM1139.36 303.75L1142.25 303.325L1142.06 302.714L1139.18 303.139L1139.36 303.75ZM1364.03 270.527L1365.14 270.364V269.722L1363.84 269.916L1364.03 270.527ZM1190.82 296.144L1190.64 295.529L1187.75 295.959L1187.94 296.569L1190.82 296.144ZM1184.76 297.035L1184.56 296.424L1181.68 296.849L1181.87 297.464L1184.76 297.035ZM1145.43 302.855L1148.32 302.425L1148.14 301.815L1145.25 302.244L1145.43 302.855ZM1172.42 298.224L1169.53 298.649L1169.72 299.26L1172.61 298.835L1172.42 298.224ZM1178.49 297.324L1175.61 297.749L1175.8 298.36L1178.68 297.935L1178.49 297.324ZM1196.9 295.244L1196.71 294.634L1193.83 295.059L1194.02 295.669L1196.9 295.244ZM1291.17 281.303L1294.05 280.878L1293.87 280.267L1290.98 280.692L1291.17 281.303ZM1297.24 280.407L1300.12 279.978L1299.93 279.367L1297.04 279.792L1297.24 280.407ZM1306.19 279.078L1306 278.467L1303.12 278.897L1303.31 279.507L1306.19 279.078ZM1312.27 278.182L1312.07 277.572L1309.19 277.997L1309.38 278.608L1312.27 278.182ZM1151.51 301.959L1154.39 301.534L1154.21 300.924L1151.32 301.349L1151.51 301.959ZM1285.1 282.198L1287.98 281.773L1287.79 281.162L1284.91 281.588L1285.1 282.198ZM1209.04 293.449L1208.85 292.838L1205.97 293.263L1206.15 293.874L1209.04 293.449ZM1202.97 294.344L1202.78 293.738L1199.9 294.163L1200.09 294.774L1202.97 294.344ZM1163.66 300.159L1166.53 299.734L1166.34 299.124L1163.46 299.549L1163.66 300.159ZM1157.58 301.059L1160.47 300.634L1160.28 300.024L1157.39 300.449L1157.58 301.059ZM1105.82 308.711L1105.63 308.1L1102.75 308.525L1102.93 309.14L1105.82 308.711ZM1351.88 272.322L1354.77 271.897L1354.58 271.286L1351.7 271.711L1351.88 272.322ZM1117.96 306.92L1117.77 306.309L1114.89 306.734L1115.07 307.345L1117.96 306.92ZM1099.74 309.611L1099.55 309L1096.67 309.425L1096.86 310.036L1099.74 309.611ZM1254.73 286.688L1257.61 286.263L1257.42 285.653L1254.54 286.078L1254.73 286.688ZM1266.88 284.898L1269.76 284.473L1269.57 283.862L1266.69 284.287L1266.88 284.898ZM1248.66 287.584L1251.55 287.159L1251.35 286.548L1248.47 286.973L1248.66 287.584ZM1081.52 312.306L1081.34 311.695L1078.46 312.12L1078.64 312.731L1081.52 312.306ZM1087.6 311.406L1087.4 310.795L1084.53 311.22L1084.72 311.831L1087.6 311.406ZM1272.95 283.998L1275.84 283.573L1275.64 282.962L1272.76 283.387L1272.95 283.998ZM1345.62 272.611L1345.81 273.222L1348.7 272.797L1348.5 272.186L1345.62 272.611ZM1357.77 270.812L1357.96 271.422L1360.84 270.997L1360.65 270.386L1357.77 270.812ZM1093.67 310.51L1093.49 309.9L1090.6 310.325L1090.79 310.935L1093.67 310.51ZM1260.8 285.793L1263.69 285.363L1263.5 284.753L1260.62 285.183L1260.8 285.793ZM1242.59 288.484L1245.48 288.059L1245.28 287.448L1242.4 287.873L1242.59 288.484ZM891.589 220.129L891.266 219.541L888.513 220.273L888.849 220.857L891.589 220.129ZM1152.27 150.883L1151.94 150.295L1149.19 151.028L1149.52 151.611L1152.27 150.883ZM1190.07 140.84L1192.81 140.107L1192.48 139.524L1189.74 140.252L1190.07 140.84ZM1146.47 152.42L1146.14 151.837L1143.4 152.565L1143.73 153.153L1146.47 152.42ZM914.771 213.97L914.441 213.386L911.688 214.119L912.017 214.698L914.771 213.97ZM1068.42 173.154L1071.17 172.421L1070.84 171.838L1068.09 172.566L1068.42 173.154ZM908.974 215.507L908.644 214.928L905.897 215.656L906.227 216.24L908.974 215.507ZM1062.62 174.691L1065.37 173.963L1065.05 173.38L1062.29 174.113L1062.62 174.691ZM903.177 217.054L902.847 216.47L900.107 217.198L900.43 217.782L903.177 217.054ZM897.386 218.591L897.057 218.003L894.316 218.736L894.639 219.319L897.386 218.591ZM1175.43 144.724L1175.11 144.141L1172.36 144.873L1172.69 145.452L1175.43 144.724ZM1085.79 168.537L1088.54 167.809L1088.21 167.221L1085.46 167.954L1085.79 168.537ZM1181.23 143.186L1180.9 142.603L1178.16 143.331L1178.48 143.915L1181.23 143.186ZM1103.18 163.92L1105.92 163.192L1105.59 162.609L1102.85 163.341L1103.18 163.92ZM1091.59 166.999L1094.33 166.267L1094.01 165.688L1091.26 166.416L1091.59 166.999ZM1183.95 141.794L1184.28 142.382L1187.03 141.649L1186.69 141.066L1183.95 141.794ZM1080.01 170.079L1082.75 169.346L1082.42 168.763L1079.68 169.496L1080.01 170.079ZM1074.22 171.616L1076.96 170.884L1076.63 170.301L1073.89 171.029L1074.22 171.616ZM917.478 212.577L917.801 213.16L920.555 212.432L920.225 211.849L917.478 212.577ZM1163.86 147.799L1163.53 147.22L1160.78 147.948L1161.11 148.532L1163.86 147.799ZM1158.06 149.341L1157.73 148.758L1154.99 149.486L1155.31 150.069L1158.06 149.341ZM1169.65 146.261L1169.32 145.678L1166.57 146.411L1166.9 146.994L1169.65 146.261ZM946.767 205.468L949.52 204.74L949.191 204.161L946.437 204.889L946.767 205.468ZM1030.62 183.193L1030.29 182.609L1027.54 183.347L1027.87 183.925L1030.62 183.193ZM1097.38 165.457L1100.13 164.729L1099.8 164.151L1097.06 164.879L1097.38 165.457ZM1056.83 176.233L1059.58 175.501L1059.26 174.922L1056.5 175.65L1056.83 176.233ZM1042.2 180.118L1041.87 179.535L1039.13 180.263L1039.46 180.846L1042.2 180.118ZM1129.1 157.033L1128.77 156.454L1126.02 157.182L1126.35 157.765L1129.1 157.033ZM981.523 196.239L984.276 195.506L983.947 194.927L981.2 195.656L981.523 196.239ZM1024.83 184.73L1024.5 184.147L1021.75 184.88L1022.08 185.458L1024.83 184.73ZM990.073 193.964L989.751 193.381L986.997 194.118L987.326 194.697L990.073 193.964ZM995.864 192.427L995.534 191.839L992.781 192.572L993.117 193.155L995.864 192.427ZM1007.44 189.352L1007.12 188.768L1004.38 189.497L1004.7 190.08L1007.44 189.352ZM1123.31 158.575L1122.97 157.992L1120.23 158.72L1120.55 159.303L1123.31 158.575ZM1019.04 186.272L1018.71 185.694L1015.96 186.422L1016.29 187.005L1019.04 186.272ZM1001.65 190.889L1001.33 190.306L998.571 191.034L998.907 191.617L1001.65 190.889ZM1117.52 160.112L1117.18 159.529L1114.43 160.257L1114.76 160.84L1117.52 160.112ZM975.739 197.776L978.486 197.048L978.156 196.465L975.409 197.198L975.739 197.776ZM940.976 207.01L943.73 206.278L943.394 205.694L940.647 206.427L940.976 207.01ZM935.192 208.548L937.933 207.82L937.603 207.236L934.863 207.964L935.192 208.548ZM1050.72 177.188L1051.04 177.771L1053.8 177.038L1053.47 176.46L1050.72 177.188ZM1140.68 153.958L1140.35 153.37L1137.6 154.103L1137.94 154.681L1140.68 153.958ZM1013.25 187.814L1012.91 187.231L1010.17 187.959L1010.49 188.542L1013.25 187.814ZM923.605 211.623L926.345 210.895L926.022 210.311L923.269 211.044L923.605 211.623ZM929.395 210.085L932.142 209.357L931.813 208.774L929.059 209.502L929.395 210.085ZM1108.97 162.382L1111.71 161.65L1111.38 161.067L1108.64 161.795L1108.97 162.382ZM952.564 203.931L955.311 203.203L954.988 202.615L952.234 203.352L952.564 203.931ZM964.151 200.851L966.898 200.123L966.569 199.54L963.828 200.268L964.151 200.851ZM1048 178.58L1047.67 177.997L1044.92 178.725L1045.25 179.308L1048 178.58ZM969.948 199.314L972.689 198.586L972.366 198.002L969.619 198.73L969.948 199.314ZM958.361 202.389L961.101 201.661L960.778 201.073L958.025 201.805L958.361 202.389ZM1134.89 155.495L1134.56 154.917L1131.81 155.649L1132.13 156.233L1134.89 155.495ZM1036.41 181.655L1036.08 181.072L1033.33 181.8L1033.66 182.383L1036.41 181.655ZM1207.45 136.218L1210.19 135.49L1209.86 134.911L1207.11 135.639L1207.45 136.218ZM1242.21 126.984L1244.95 126.256L1244.62 125.677L1241.87 126.405L1242.21 126.984ZM1213.24 134.681L1215.98 133.953L1215.66 133.369L1212.91 134.102L1213.24 134.681ZM1236.4 128.526L1239.16 127.794L1238.83 127.215L1236.08 127.943L1236.4 128.526ZM1343.43 100.101L1343.1 99.5173L1340.35 100.245L1340.68 100.829L1343.43 100.101ZM1314.46 107.793L1314.13 107.214L1311.38 107.942L1311.71 108.525L1314.46 107.793ZM1349.21 98.5541L1348.89 97.9753L1346.14 98.7033L1346.47 99.2912L1349.21 98.5541ZM1201.65 137.765L1204.4 137.032L1204.07 136.453L1201.32 137.181L1201.65 137.765ZM1256.2 122.598L1253.46 123.335L1253.79 123.914L1256.53 123.186L1256.2 122.598ZM1248 125.447L1250.74 124.719L1250.41 124.135L1247.66 124.868L1248 125.447ZM1230.61 130.068L1233.37 129.336L1233.04 128.752L1230.28 129.48L1230.61 130.068ZM1320.26 106.251L1319.93 105.672L1317.17 106.4L1317.51 106.979L1320.26 106.251ZM1308.68 109.335L1308.35 108.751L1305.6 109.479L1305.92 110.063L1308.68 109.335ZM1326.05 104.713L1325.72 104.13L1322.97 104.862L1323.3 105.441L1326.05 104.713ZM1279.7 117.022L1279.37 116.443L1276.63 117.171L1276.96 117.755L1279.7 117.022ZM1337.64 101.638L1337.31 101.055L1334.56 101.783L1334.89 102.371L1337.64 101.638ZM1285.5 115.485L1285.17 114.901L1282.42 115.634L1282.75 116.217L1285.5 115.485ZM1219.03 133.143L1221.78 132.415L1221.45 131.832L1218.71 132.56L1219.03 133.143ZM1331.84 103.176L1331.51 102.592L1328.77 103.32L1329.1 103.904L1331.84 103.176ZM1224.82 131.606L1227.57 130.878L1227.23 130.294L1224.49 131.022L1224.82 131.606ZM1363.52 94.0954L1363.85 94.6742L1365.14 94.3305V93.6568L1363.52 94.0954ZM1268.13 120.106L1267.8 119.518L1265.05 120.251L1265.37 120.834L1268.13 120.106ZM1291.29 113.947L1290.96 113.364L1288.22 114.096L1288.54 114.68L1291.29 113.947ZM1273.92 118.564L1273.59 117.981L1270.84 118.709L1271.17 119.292L1273.92 118.564ZM1302.88 110.872L1302.56 110.289L1299.8 111.021L1300.13 111.605L1302.88 110.872ZM1355.01 97.0166L1354.68 96.4378L1351.94 97.1659L1352.27 97.7537L1355.01 97.0166ZM1360.8 95.4837L1360.47 94.9003L1357.73 95.6329L1358.06 96.2117L1360.8 95.4837ZM1297.09 112.41L1296.76 111.826L1294.01 112.559L1294.34 113.142L1297.09 112.41ZM1262.33 121.644L1262 121.06L1259.25 121.788L1259.58 122.372L1262.33 121.644ZM1195.86 139.302L1198.61 138.57L1198.28 137.986L1195.53 138.719L1195.86 139.302ZM1126.51 256.413L1123.67 256.943L1123.91 257.544L1126.75 257.015L1126.51 256.413ZM1081.71 264.775L1081.94 265.372L1084.79 264.842L1084.56 264.241L1081.71 264.775ZM1336.54 217.877L1336.3 217.271L1333.46 217.8L1333.69 218.401L1336.54 217.877ZM1093.7 262.536L1093.93 263.138L1096.78 262.609L1096.54 262.007L1093.7 262.536ZM1273.75 229.589L1276.59 229.06L1276.36 228.458L1273.51 228.987L1273.75 229.589ZM1240.39 235.164L1237.55 235.694L1237.79 236.295L1240.63 235.766L1240.39 235.164ZM1228.41 237.403L1225.56 237.932L1225.8 238.533L1228.65 238.004L1228.41 237.403ZM1087.7 263.658L1087.95 264.255L1090.78 263.726L1090.55 263.124L1087.7 263.658ZM1360.51 213.404L1360.28 212.803L1357.43 213.332L1357.67 213.934L1360.51 213.404ZM1234.4 236.286L1231.56 236.815L1231.79 237.416L1234.64 236.887L1234.4 236.286ZM1330.54 218.998L1330.3 218.397L1327.46 218.926L1327.69 219.527L1330.54 218.998ZM1279.74 228.472L1282.59 227.943L1282.35 227.341L1279.51 227.87L1279.74 228.472ZM1267.75 230.706L1270.61 230.177L1270.37 229.575L1267.52 230.104L1267.75 230.706ZM1108.76 260.37L1108.52 259.769L1105.69 260.302L1105.92 260.899L1108.76 260.37ZM1120.52 257.53L1117.67 258.059L1117.91 258.661L1120.75 258.132L1120.52 257.53ZM1252.38 232.931L1249.54 233.46L1249.78 234.061L1252.63 233.532L1252.38 232.931ZM1264.37 230.692L1261.53 231.226L1261.76 231.827L1264.61 231.298L1264.37 230.692ZM1258.38 231.814L1255.53 232.343L1255.77 232.944L1258.62 232.415L1258.38 231.814ZM1102.77 261.487L1102.53 260.886L1099.69 261.419L1099.93 262.016L1102.77 261.487ZM1354.52 214.521L1354.28 213.92L1351.43 214.449L1351.68 215.05L1354.52 214.521ZM1363.66 212.817L1365.14 212.536V211.89L1363.42 212.211L1363.66 212.817ZM1246.39 234.048L1243.54 234.577L1243.77 235.178L1246.62 234.649L1246.39 234.048ZM1114.76 259.253L1114.53 258.652L1111.68 259.185L1111.92 259.782L1114.76 259.253ZM1342.54 216.76L1342.29 216.154L1339.45 216.687L1339.69 217.289L1342.54 216.76ZM1075.71 265.892L1075.95 266.488L1078.79 265.959L1078.55 265.358L1075.71 265.892ZM1348.52 215.643L1348.29 215.041L1345.45 215.571L1345.68 216.172L1348.52 215.643ZM1300.57 224.587L1300.34 223.986L1297.49 224.515L1297.73 225.117L1300.57 224.587ZM1162.71 250.304L1162.48 249.703L1159.63 250.232L1159.87 250.833L1162.71 250.304ZM1306.57 223.47L1306.33 222.869L1303.48 223.398L1303.73 224L1306.57 223.47ZM1156.73 251.421L1156.48 250.82L1153.64 251.349L1153.87 251.95L1156.73 251.421ZM1150.48 251.941L1147.64 252.47L1147.88 253.072L1150.72 252.543L1150.48 251.941ZM1168.71 249.187L1168.47 248.586L1165.63 249.115L1165.86 249.716L1168.71 249.187ZM1312.56 222.349L1312.32 221.748L1309.47 222.277L1309.72 222.883L1312.56 222.349ZM1201.83 243.006L1204.68 242.477L1204.43 241.875L1201.59 242.404L1201.83 243.006ZM1195.59 243.521L1195.83 244.123L1198.67 243.594L1198.44 242.992L1195.59 243.521ZM1132.5 255.292L1129.66 255.821L1129.89 256.422L1132.75 255.893L1132.5 255.292ZM1294.58 225.704L1294.35 225.103L1291.5 225.632L1291.73 226.233L1294.58 225.704ZM1207.82 241.889L1210.67 241.36L1210.43 240.758L1207.59 241.287L1207.82 241.889ZM1180.7 246.949L1180.45 246.347L1177.62 246.876L1177.85 247.478L1180.7 246.949ZM1174.7 248.07L1174.47 247.469L1171.61 247.998L1171.86 248.599L1174.7 248.07ZM1186.69 245.832L1186.46 245.23L1183.6 245.76L1183.84 246.361L1186.69 245.832ZM1288.34 226.22L1285.5 226.749L1285.74 227.35L1288.58 226.821L1288.34 226.22ZM1189.84 245.244L1192.68 244.715L1192.44 244.114L1189.6 244.643L1189.84 245.244ZM1144.49 253.054L1141.65 253.583L1141.88 254.184L1144.73 253.655L1144.49 253.054ZM1213.81 240.772L1216.66 240.243L1216.42 239.641L1213.58 240.17L1213.81 240.772ZM1138.49 254.175L1135.65 254.704L1135.89 255.306L1138.74 254.776L1138.49 254.175ZM1318.56 221.232L1318.32 220.631L1315.47 221.16L1315.71 221.761L1318.56 221.232ZM1324.54 220.115L1324.31 219.514L1321.46 220.043L1321.7 220.644L1324.54 220.115ZM1219.81 239.655L1222.65 239.121L1222.42 238.52L1219.57 239.049L1219.81 239.655ZM1175.74 53.9127L1175.34 53.352L1172.71 54.2383L1173.1 54.7945L1175.74 53.9127ZM1231.28 35.2955L1230.88 34.7393L1228.24 35.6256L1228.64 36.1818L1231.28 35.2955ZM1225.72 37.1586L1225.32 36.5979L1222.69 37.4842L1223.08 38.0404L1225.72 37.1586ZM1264.6 24.1261L1264.58 24.1035H1262.6L1261.57 24.4562L1261.97 25.0124L1264.6 24.1261ZM1170.19 55.7712L1169.79 55.215L1167.15 56.0968L1167.56 56.6576L1170.19 55.7712ZM1109.1 76.2515L1108.7 75.6908L1106.06 76.5771L1106.46 77.1378L1109.1 76.2515ZM1131.32 68.7992L1130.92 68.243L1128.27 69.1293L1128.68 69.6855L1131.32 68.7992ZM1214.62 40.8802L1214.22 40.324L1211.58 41.2103L1211.98 41.7665L1214.62 40.8802ZM1192.4 48.328L1192.01 47.7673L1189.37 48.6536L1189.77 49.2098L1192.4 48.328ZM1181.3 52.0496L1180.9 51.4934L1178.25 52.3797L1178.66 52.9359L1181.3 52.0496ZM1103.55 78.11L1103.15 77.5538L1100.51 78.4356L1100.91 78.9964L1103.55 78.11ZM1186.85 50.1865L1186.46 49.6303L1183.81 50.5121L1184.22 51.0729L1186.85 50.1865ZM1197.95 46.4649L1197.56 45.9087L1194.92 46.795L1195.32 47.3512L1197.95 46.4649ZM1136.87 66.9406L1136.48 66.3844L1133.83 67.2662L1134.24 67.827L1136.87 66.9406ZM1153.53 61.3559L1153.13 60.7997L1150.49 61.6815L1150.89 62.2423L1153.53 61.3559ZM1247.94 29.7108L1247.54 29.1546L1244.9 30.0409L1245.3 30.5971L1247.94 29.7108ZM1220.18 39.0171L1219.78 38.4609L1217.13 39.3427L1217.54 39.9035L1220.18 39.0171ZM1209.06 42.7433L1208.66 42.1826L1206.02 43.0689L1206.43 43.6251L1209.06 42.7433ZM1142.42 65.0821L1142.02 64.5214L1139.38 65.4077L1139.78 65.9684L1142.42 65.0821ZM1120.21 72.5253L1119.81 71.9691L1117.17 72.8509L1117.57 73.4117L1120.21 72.5253ZM1147.98 63.219L1147.58 62.6628L1144.94 63.5491L1145.34 64.1053L1147.98 63.219ZM1242.38 31.5784L1241.98 31.0177L1239.34 31.904L1239.74 32.4647L1242.38 31.5784ZM1164.64 57.6343L1164.24 57.0781L1161.6 57.9644L1162 58.5206L1164.64 57.6343ZM1259.04 25.9892L1258.65 25.4285L1256.01 26.3148L1256.41 26.871L1259.04 25.9892ZM1125.76 70.6668L1125.36 70.1061L1122.72 70.9924L1123.12 71.5531L1125.76 70.6668ZM1203.52 44.6064L1203.11 44.0502L1200.47 44.9274L1200.88 45.4882L1203.52 44.6064ZM1159.08 59.4974L1158.68 58.9367L1156.04 59.823L1156.44 60.3792L1159.08 59.4974ZM1253.5 27.8523L1253.1 27.2961L1250.45 28.1779L1250.86 28.7386L1253.5 27.8523ZM1114.65 74.3884L1114.26 73.8322L1111.62 74.7185L1112.02 75.2747L1114.65 74.3884ZM1236.83 33.437L1236.44 32.8808L1233.8 33.7626L1234.2 34.3233L1236.83 33.437ZM964.705 124.646L964.309 124.09L961.668 124.976L962.07 125.533L964.705 124.646ZM953.598 128.368L953.203 127.812L950.561 128.693L950.963 129.254L953.598 128.368ZM959.151 126.509L958.749 125.949L956.108 126.835L956.51 127.391L959.151 126.509ZM942.485 132.094L942.089 131.533L939.454 132.42L939.85 132.98L942.485 132.094ZM948.045 130.226L947.643 129.67L945.008 130.556L945.403 131.113L948.045 130.226ZM986.924 117.198L986.523 116.642L983.881 117.524L984.289 118.085L986.924 117.198ZM981.365 119.057L980.963 118.501L978.328 119.387L978.73 119.943L981.365 119.057ZM975.811 120.925L975.409 120.364L972.774 121.25L973.176 121.806L975.811 120.925ZM970.265 122.788L969.856 122.231L967.221 123.113L967.623 123.674L970.265 122.788ZM936.945 133.953L936.543 133.396L933.901 134.278L934.303 134.839L936.945 133.953ZM992.471 115.34L992.069 114.779L989.434 115.665L989.83 116.222L992.471 115.34ZM1098 79.9686L1097.6 79.4124L1094.95 80.2987L1095.36 80.8549L1098 79.9686ZM903.618 145.122L903.216 144.566L900.581 145.448L900.983 146.008L903.618 145.122ZM892.505 148.844L892.109 148.283L889.468 149.169L889.863 149.725L892.505 148.844ZM909.171 143.259L908.763 142.698L906.128 143.584L906.53 144.141L909.171 143.259ZM914.725 141.396L914.323 140.84L911.688 141.726L912.09 142.282L914.725 141.396ZM925.831 137.679L925.429 137.118L922.788 138.004L923.196 138.565L925.831 137.679ZM931.385 135.816L930.983 135.259L928.348 136.146L928.743 136.702L931.385 135.816ZM920.278 139.537L919.876 138.981L917.248 139.863L917.636 140.424L920.278 139.537ZM898.065 146.98L897.663 146.424L895.021 147.311L895.423 147.867L898.065 146.98ZM1070.22 89.2794L1069.83 88.7232L1067.19 89.605L1067.59 90.1658L1070.22 89.2794ZM1059.12 93.0056L1058.72 92.4449L1056.07 93.3312L1056.48 93.8919L1059.12 93.0056ZM1053.56 94.8641L1053.17 94.3079L1050.53 95.1897L1050.92 95.7505L1053.56 94.8641ZM1075.77 87.4164L1075.38 86.8556L1072.74 87.742L1073.14 88.2982L1075.77 87.4164ZM998.031 113.477L997.629 112.921L994.988 113.807L995.39 114.363L998.031 113.477ZM1092.44 81.8317L1092.04 81.2709L1089.39 82.1573L1089.8 82.7135L1092.44 81.8317ZM1048.01 96.7227L1047.61 96.1665L1044.97 97.0528L1045.38 97.609L1048.01 96.7227ZM1086.89 83.6947L1086.49 83.1385L1083.85 84.0203L1084.25 84.5811L1086.89 83.6947ZM1081.33 85.5533L1080.93 84.9971L1078.29 85.8834L1078.69 86.4396L1081.33 85.5533ZM1064.67 91.138L1064.28 90.5818L1061.63 91.4681L1062.03 92.0243L1064.67 91.138ZM1042.45 98.5858L1042.05 98.025L1039.42 98.9113L1039.82 99.4676L1042.45 98.5858ZM1009.13 109.755L1008.73 109.194L1006.09 110.081L1006.5 110.637L1009.13 109.755ZM1020.24 106.034L1019.84 105.477L1017.2 106.359L1017.6 106.92L1020.24 106.034ZM1003.58 111.614L1003.19 111.058L1000.55 111.939L1000.94 112.5L1003.58 111.614ZM1014.68 107.892L1014.29 107.336L1011.65 108.222L1012.05 108.778L1014.68 107.892ZM1025.79 104.17L1025.4 103.61L1022.75 104.496L1023.16 105.052L1025.79 104.17ZM1036.91 100.444L1036.5 99.8881L1033.87 100.77L1034.27 101.331L1036.91 100.444ZM1031.35 102.307L1030.94 101.751L1028.31 102.637L1028.71 103.194L1031.35 102.307ZM1264.81 640.781L1226.6 648.835H1229.33L1265 641.315H1365.14V640.767H1264.93L1264.81 640.781ZM70.2895 519.672L59.8481 511.967H54.1169L64.5648 519.672H70.2895ZM20.8694 519.672H26.6006L16.1462 511.967H10.4281L20.8694 519.672ZM41.1658 519.672L30.7179 511.967H24.9867L35.4346 519.672H41.1658ZM12.0355 519.672L1.58761 511.967H0V515.023L6.30431 519.672H12.0355ZM68.6821 511.967L79.1234 519.672H84.8546L74.4067 511.967H68.6821ZM55.7309 519.672L45.2764 511.967H39.5518L49.9997 519.672H55.7309ZM116.673 469.55L119.597 469.288L119.479 468.668L116.554 468.926L116.673 469.55ZM110.401 469.482L110.513 470.102L113.438 469.839L113.32 469.22L110.401 469.482ZM122.839 469.003L125.757 468.741L125.645 468.121L122.72 468.383L122.839 469.003ZM98.1944 471.196L101.119 470.929L101.001 470.31L98.0759 470.576L98.1944 471.196ZM168.879 464.915L168.761 464.295L165.836 464.558L165.954 465.177L168.879 464.915ZM104.354 470.644L107.279 470.387L107.16 469.767L104.235 470.025L104.354 470.644ZM138.082 467.651L137.964 467.031L135.039 467.289L135.157 467.908L138.082 467.651ZM162.72 465.462L162.608 464.843L159.683 465.105L159.801 465.724L162.72 465.462ZM144.235 467.104L144.123 466.484L141.198 466.746L141.317 467.366L144.235 467.104ZM150.401 466.556L150.282 465.932L147.364 466.195L147.476 466.814L150.401 466.556ZM131.916 468.198L131.798 467.574L128.879 467.841L128.991 468.46L131.916 468.198ZM156.56 466.009L156.442 465.385L153.517 465.647L153.635 466.267L156.56 466.009ZM2.44399 479.064L0 479.281V479.91L2.56257 479.684L2.44399 479.064ZM39.5123 476.401L39.4003 475.781L36.482 476.039L36.6006 476.659L39.5123 476.401ZM92.0285 471.739L94.9533 471.476L94.8348 470.857L91.9165 471.119L92.0285 471.739ZM33.2409 476.328L30.316 476.595L30.4346 477.215L33.3595 476.948L33.2409 476.328ZM20.9287 477.423L17.9973 477.685L18.1158 478.305L21.0341 478.042L20.9287 477.423ZM175.045 464.363L174.927 463.744L171.995 464.006L172.114 464.625L175.045 464.363ZM51.8442 475.307L51.7257 474.687L48.8008 474.954L48.9193 475.573L51.8442 475.307ZM14.7628 477.97L11.8379 478.232L11.9565 478.852L14.8813 478.59L14.7628 477.97ZM45.6783 475.858L45.5597 475.234L42.6414 475.496L42.7534 476.116L45.6783 475.858ZM27.0815 476.88L24.1632 477.138L24.2752 477.757L27.2001 477.5L27.0815 476.88ZM82.6412 472.575L82.5226 471.951L79.5977 472.218L79.7163 472.837L82.6412 472.575ZM85.8757 472.281L88.8005 472.023L88.682 471.404L85.7571 471.662L85.8757 472.281ZM76.4752 473.122L76.3566 472.498L73.4383 472.761L73.5569 473.38L76.4752 473.122ZM70.3224 473.665L70.2038 473.046L67.2789 473.308L67.3975 473.923L70.3224 473.665ZM57.997 474.764L57.885 474.144L54.9602 474.402L55.0787 475.022L57.997 474.764ZM64.163 474.212L64.0444 473.588L61.1195 473.855L61.2381 474.474L64.163 474.212ZM292.08 453.972L291.961 453.352L289.037 453.61L289.155 454.234L292.08 453.972ZM267.436 456.165L267.324 455.536L264.399 455.803L264.518 456.423L267.436 456.165ZM261.283 456.707L261.165 456.088L258.24 456.346L258.358 456.965L261.283 456.707ZM285.914 454.519L285.795 453.895L282.877 454.162L282.996 454.781L285.914 454.519ZM273.602 455.613L273.483 454.994L270.558 455.256L270.677 455.875L273.602 455.613ZM248.958 457.806L248.846 457.187L245.921 457.445L246.039 458.064L248.958 457.806ZM279.761 455.07L279.643 454.451L276.718 454.709L276.836 455.328L279.761 455.07ZM224.32 459.99L224.202 459.371L221.277 459.633L221.395 460.253L224.32 459.99ZM218.161 460.542L218.042 459.918L215.124 460.18L215.236 460.8L218.161 460.542ZM209.077 461.347L212.001 461.085L211.883 460.465L208.958 460.723L209.077 461.347ZM230.48 459.443L230.368 458.824L227.443 459.081L227.561 459.701L230.48 459.443ZM242.798 458.349L242.68 457.729L239.748 457.992L239.867 458.611L242.798 458.349ZM236.639 458.892L236.52 458.272L233.602 458.534L233.714 459.158L236.639 458.892ZM341.362 449.594L341.243 448.975L338.325 449.233L338.437 449.852L341.362 449.594ZM335.196 450.146L335.084 449.522L332.159 449.789L332.277 450.408L335.196 450.146ZM347.521 449.047L347.402 448.428L344.478 448.69L344.596 449.309L347.521 449.047ZM353.674 448.5L353.562 447.88L350.637 448.147L350.756 448.767L353.674 448.5ZM329.043 450.693L328.924 450.074L325.999 450.331L326.118 450.951L329.043 450.693ZM310.558 452.33L310.44 451.711L307.515 451.968L307.633 452.588L310.558 452.33ZM322.877 451.236L322.758 450.616L319.84 450.874L319.952 451.498L322.877 451.236ZM298.239 453.429L298.121 452.809L295.196 453.067L295.315 453.687L298.239 453.429ZM304.399 452.877L304.28 452.258L301.362 452.52L301.474 453.144L304.399 452.877ZM316.724 451.783L316.606 451.163L313.681 451.426L313.799 452.045L316.724 451.783ZM255.117 457.255L254.999 456.635L252.074 456.897L252.192 457.517L255.117 457.255ZM184.432 463.536L187.357 463.273L187.239 462.649L184.314 462.912L184.432 463.536ZM178.28 464.083L181.198 463.821L181.086 463.201L178.161 463.459L178.28 464.083ZM190.598 462.984L193.523 462.722L193.405 462.102L190.48 462.364L190.598 462.984ZM5.79048 479.394L8.71537 479.137L8.59679 478.517L5.67849 478.775L5.79048 479.394ZM196.639 461.817L196.751 462.437L199.676 462.179L199.557 461.555L196.639 461.817ZM202.917 461.89L205.842 461.627L205.723 461.008L202.799 461.27L202.917 461.89ZM34.4003 467.506L34.2159 466.891L31.3305 467.312L31.515 467.927L34.4003 467.506ZM158.919 448.699L159.103 449.309L161.989 448.889L161.797 448.278L158.919 448.699ZM164.992 447.808L165.177 448.419L168.056 447.998L167.871 447.388L164.992 447.808ZM186.297 445.344L186.106 444.729L183.227 445.149L183.418 445.764L186.297 445.344ZM40.4807 466.62L40.2896 466.009L37.4043 466.43L37.5887 467.04L40.4807 466.62ZM58.7019 463.956L58.5174 463.346L55.6321 463.766L55.8231 464.386L58.7019 463.956ZM28.3266 468.392L28.129 467.777L25.2502 468.202L25.4412 468.813L28.3266 468.392ZM192.37 444.453L192.186 443.842L189.301 444.263L189.485 444.873L192.37 444.453ZM16.1791 470.16L15.9815 469.55L13.1027 469.975L13.2937 470.586L16.1791 470.16ZM7.2134 471.467L10.0922 471.047L9.90772 470.436L7.02236 470.857L7.2134 471.467ZM46.5544 465.733L46.37 465.123L43.4846 465.543L43.6625 466.149L46.5544 465.733ZM22.2528 469.279L22.0618 468.668L19.183 469.089L19.3675 469.699L22.2528 469.279ZM52.6282 464.843L52.4437 464.232L49.5583 464.653L49.756 465.263L52.6282 464.843ZM171.073 446.926L171.257 447.537L174.143 447.112L173.952 446.501L171.073 446.926ZM152.845 449.585L153.029 450.196L155.908 449.775L155.724 449.16L152.845 449.585ZM180.216 446.225L180.025 445.615L177.147 446.035L177.331 446.65L180.216 446.225ZM210.592 441.794L210.407 441.183L207.522 441.604L207.713 442.219L210.592 441.794ZM128.537 453.131L128.728 453.741L131.607 453.32L131.422 452.701L128.537 453.131ZM98.3459 458.173L101.231 457.752L101.04 457.142L98.1615 457.562L98.3459 458.173ZM64.7822 463.074L64.5978 462.459L61.7058 462.88L61.8969 463.495L64.7822 463.074ZM92.2722 459.059L95.1641 458.638L94.9665 458.028L92.0877 458.448L92.2722 459.059ZM122.648 454.627L125.533 454.207L125.348 453.596L122.463 454.012L122.648 454.627ZM134.611 452.244L134.808 452.855L137.687 452.434L137.503 451.824L134.611 452.244ZM116.574 455.514L119.466 455.093L119.275 454.478L116.389 454.899L116.574 455.514ZM110.5 456.4L113.385 455.979L113.194 455.369L110.309 455.789L110.5 456.4ZM104.426 457.286L107.312 456.861L107.121 456.251L104.242 456.676L104.426 457.286ZM204.525 442.68L204.333 442.07L201.448 442.49L201.646 443.101L204.525 442.68ZM76.9297 461.297L76.7453 460.687L73.8665 461.107L74.051 461.718L76.9297 461.297ZM86.1985 459.95L89.0772 459.529L88.8862 458.914L86.0074 459.335L86.1985 459.95ZM1.13965 472.358L4.01842 471.938L3.83397 471.323L0.955198 471.748L1.13965 472.358ZM70.856 462.188L70.6649 461.578L67.7862 461.998L67.9772 462.609L70.856 462.188ZM146.771 450.467L146.956 451.078L149.834 450.661L149.65 450.046L146.771 450.467ZM140.684 451.353L140.875 451.964L143.754 451.543L143.57 450.933L140.684 451.353ZM80.1247 460.831L83.0035 460.406L82.819 459.796L79.9402 460.221L80.1247 460.831ZM198.444 443.571L198.26 442.96L195.374 443.381L195.559 443.991L198.444 443.571ZM1.08036 457.752L0 458.028V458.693L1.39657 458.344L1.08036 457.752ZM123.814 427.436L123.504 426.848L120.744 427.545L121.053 428.128L123.814 427.436ZM112.16 430.38L111.844 429.792L109.084 430.489L109.393 431.072L112.16 430.38ZM117.984 428.901L117.667 428.314L114.901 429.01L115.217 429.598L117.984 428.901ZM106.324 431.845L106.007 431.257L103.241 431.954L103.557 432.546L106.324 431.845ZM135.467 424.493L135.157 423.905L132.391 424.601L132.7 425.184L135.467 424.493ZM129.644 425.958L129.327 425.37L126.561 426.071L126.877 426.659L129.644 425.958ZM141.304 423.018L140.987 422.426L138.221 423.127L138.537 423.715L141.304 423.018ZM147.134 421.549L146.824 420.961L144.051 421.662L144.36 422.241L147.134 421.549ZM100.5 433.319L100.184 432.736L97.4105 433.433L97.7201 434.016L100.5 433.319ZM88.8335 436.263L88.5239 435.68L85.7571 436.376L86.0667 436.96L88.8335 436.263ZM53.86 445.095L53.5438 444.507L50.7836 445.203L51.0998 445.787L53.86 445.095ZM94.6635 434.789L94.3539 434.201L91.5871 434.898L91.9033 435.486L94.6635 434.789ZM59.69 443.625L59.3804 443.037L56.6071 443.734L56.9167 444.322L59.69 443.625ZM48.03 446.565L47.7138 445.981L44.9405 446.678L45.2567 447.265L48.03 446.565ZM65.5135 442.151L65.2038 441.563L62.4305 442.264L62.7401 442.843L65.5135 442.151ZM152.957 420.07L152.647 419.487L149.887 420.183L150.197 420.771L152.957 420.07ZM83.0035 437.733L82.6873 437.145L79.9271 437.842L80.2433 438.429L83.0035 437.733ZM77.1735 439.207L76.8639 438.619L74.0971 439.316L74.4067 439.899L77.1735 439.207ZM71.3501 440.681L71.0404 440.093L68.2737 440.79L68.5833 441.378L71.3501 440.681ZM182.107 412.713L181.791 412.129L179.031 412.826L179.347 413.414L182.107 412.713ZM205.427 406.829L205.117 406.242L202.344 406.938L202.66 407.526L205.427 406.829ZM211.25 405.355L210.941 404.767L208.181 405.464L208.49 406.052L211.25 405.355ZM36.37 449.508L36.0538 448.921L33.2804 449.621L33.5966 450.209L36.37 449.508ZM199.597 408.299L199.287 407.711L196.514 408.408L196.824 408.996L199.597 408.299ZM158.794 418.605L158.484 418.017L155.711 418.713L156.027 419.297L158.794 418.605ZM193.767 409.769L193.457 409.185L190.684 409.882L191.007 410.47L193.767 409.769ZM24.7034 452.452L24.3938 451.864L21.627 452.561L21.9432 453.149L24.7034 452.452ZM30.54 450.983L30.2304 450.395L27.4636 451.091L27.7732 451.674L30.54 450.983ZM7.21999 456.87L6.91037 456.282L4.137 456.983L4.4532 457.567L7.21999 456.87ZM187.937 411.243L187.627 410.655L184.861 411.352L185.17 411.939L187.937 411.243ZM164.617 417.131L164.307 416.543L161.541 417.239L161.857 417.827L164.617 417.131ZM18.88 453.926L18.5704 453.339L15.797 454.035L16.1132 454.618L18.88 453.926ZM13.05 455.396L12.7404 454.808L9.98018 455.509L10.2898 456.092L13.05 455.396ZM42.2 448.039L41.8838 447.451L39.1236 448.147L39.4332 448.731L42.2 448.039ZM170.454 415.656L170.144 415.069L167.377 415.77L167.687 416.353L170.454 415.656ZM176.277 414.187L175.967 413.599L173.194 414.295L173.51 414.883L176.277 414.187ZM1228.55 453.569L1228.93 453.646V448.78L1237.63 450.521L1238.14 450.621V437.629L1237.88 437.557L1221.9 433.383L1221.36 433.243V438.827L1212.77 436.58L1212.36 436.48V450.327L1212.57 450.368L1228.55 453.569ZM1222.16 434.043L1237.34 438.009V449.893L1228.93 448.206V440.808L1228.74 440.763L1222.16 439.044V434.043ZM1222.16 439.46L1228.35 441.079V448.088L1222.16 446.849V439.46ZM1212.94 437.05L1221.36 439.252V447.261L1221.65 447.315L1228.35 448.663V453.117L1212.95 450.028V437.05H1212.94ZM127.074 431.967V448.767L127.397 448.78L136.883 449.083L136.969 449.079L171.06 443.675L171.323 443.63V424.859L171.007 424.841L160.579 424.303L160.447 424.312L127.305 431.913L127.074 431.967ZM160.888 424.777L170.651 425.284V443.205L160.888 442.838V424.777ZM160.572 443.291L168.616 443.589L136.877 448.618L129.782 448.387L160.572 443.291ZM127.746 432.302L160.21 424.854V442.879L127.746 448.256V432.302ZM1200.16 399.63L1199.95 399.549L1177.17 390.944L1176.57 390.718V397.365L1168.01 394.132L1167.58 393.969V410.592L1167.74 410.646L1190.53 417.859L1190.94 417.99V412.066L1199.58 414.806L1200.16 414.987V399.63ZM1190.37 417.379L1168.16 410.343V394.647L1176.57 397.822V407.526L1176.8 407.598L1190.37 411.899V417.379ZM1190.37 411.288L1177.37 407.169V398.125L1190.37 403.036V411.288ZM1199.36 414.133L1190.94 411.465V402.8L1190.8 402.742L1177.38 397.672V391.654L1199.36 399.961V414.133ZM1238.14 413.965L1237.93 413.884L1221.96 407.856L1221.36 407.63V414.277L1212.8 411.044L1212.36 410.886V424.768L1212.53 424.827L1228.51 429.883L1228.93 430.009V424.09L1237.56 426.826L1238.14 427.002V413.965ZM1228.35 429.394L1212.94 424.524V411.56L1221.36 414.738V421.702L1221.59 421.779L1228.35 423.918V429.394ZM1228.35 423.308L1222.16 421.35V415.042L1228.35 417.375V423.308ZM1237.34 426.148L1228.93 423.484V417.131L1228.78 417.076L1222.16 414.58V408.561L1237.34 414.291V426.148ZM1176.57 421.531V427.115L1167.98 424.868L1167.58 424.768V441.355L1167.78 441.396L1190.58 445.963L1190.94 446.04V441.174L1199.65 442.915L1200.16 443.019V427.708L1199.9 427.644L1177.11 421.68L1176.57 421.531ZM1190.37 445.506L1168.16 441.057V425.347L1176.57 427.549V438.285L1176.86 438.348L1190.37 441.057V445.506ZM1177.38 422.331L1199.36 428.083V442.282L1190.94 440.591V430.873L1190.76 430.828L1177.38 427.328V422.331ZM1177.38 427.753L1190.38 431.153V440.478L1177.38 437.873V427.753ZM568.837 513.079H564.549V515.833H558.541V513.079H554.252V515.833H548.264V513.079H543.982V515.833H537.974V513.079H533.693V515.833H527.691V513.079H523.403V515.833H517.395V513.079H513.106V515.833H158.609L158.491 515.846L114.11 525.212H0V525.759H114.163L114.281 525.745L158.662 516.389H1365.14V515.833H568.837V513.079Z" fill="#BFAFCF"/>
<path fill-rule="evenodd" clip-rule="evenodd" d="M676.839 232.142L677.012 232.139V215.85L676.843 215.847L654.054 215.202L653.871 215.195V232.364H654.051L676.839 232.142ZM654.224 215.536L676.663 216.174V231.815L654.224 232.033V215.536ZM611.487 218.297L611.332 218.3V221.715L611.49 221.712L614.478 221.661L614.629 221.657V218.215L614.467 218.218L611.487 218.297ZM614.319 221.367L611.649 221.415V218.593L614.319 218.525V221.367ZM590.237 218.836L590.082 218.839V222.077H590.241L592.89 222.029L593.048 222.026V218.767L592.886 218.771L590.237 218.836ZM592.731 221.732L590.399 221.773V219.133L592.731 219.075V221.732ZM597.042 218.665L596.887 218.669V221.961H597.045L599.802 221.913L599.957 221.91V218.59L599.799 218.593L597.042 218.665ZM599.647 221.616L597.207 221.657V218.959L599.647 218.894V221.616ZM604.124 218.484L603.969 218.491V221.842L604.127 221.838L606.992 221.787L607.147 221.784V218.406L606.989 218.413L604.124 218.484ZM606.834 221.494L604.286 221.541V218.781L606.834 218.713V221.494ZM623.427 171.659L615.494 167.138L615.357 167.111L528.892 181.004L528.726 181.031V205.468L528.943 205.454L549.94 203.816L558.11 206.051L558.179 206.058L562.223 205.778L650.587 199.695L650.771 199.681V167.697L650.544 167.728L623.427 171.659ZM529.815 205.01L529.126 205.065V181.345L529.815 181.236V205.01ZM531.678 201.984V204.864L530.132 204.987V181.185L615.357 167.493L616.54 168.165L537.715 180.577L537.581 180.598V195.894L531.721 201.885L531.678 201.984ZM647.747 199.514L599.842 202.813L602.015 201.438L647.747 198.094V199.514ZM650.375 199.333L648.061 199.493V190.974L650.375 189.264V199.333ZM650.375 188.886L647.805 190.783L647.747 190.83V197.791L601.95 201.138L601.875 201.165L599.208 202.854L562.19 205.403L558.182 205.679L550.012 203.451L549.94 203.444L531.988 204.84V202.045L537.852 196.051L537.891 195.952V180.85L616.95 168.404L623.279 172.01L623.413 172.037L650.371 168.131V188.886H650.375ZM650.598 163.75L650.731 163.729V161.423L650.544 161.454L648.814 161.73L648.839 161.877H648.681V164.047L648.868 164.016L650.598 163.75ZM649.001 162.01L650.418 161.784V163.48L649.001 163.705V162.01ZM638.077 165.705L638.214 165.684V163.436L638.031 163.47L636.405 163.729L636.43 163.876H636.272V165.985L636.456 165.954L638.077 165.705ZM636.589 164.002L637.897 163.787V165.425L636.589 165.633V164.002ZM644.237 164.739L644.37 164.719V162.443L644.19 162.477L642.514 162.743L642.539 162.89H642.381V165.029L642.565 165.002L644.237 164.739ZM642.698 164.364V163.02L644.057 162.798V164.466L642.694 164.681L642.698 164.364ZM667.112 217.068L666.885 217.061V230.713L667.108 230.709L675.016 230.661H675.232V217.266L675.019 217.263L667.112 217.068ZM674.792 230.249L667.328 230.296V217.488L674.792 217.672V230.249ZM656.001 216.792L655.773 216.785V230.777H655.993L664.146 230.726H664.366V216.993H664.153L656.001 216.792ZM663.933 230.317L656.213 230.365V217.212L663.933 217.406V230.317ZM520.696 83.5007L520.538 83.5178L504.593 91.6519L504.644 92.034L509.174 93.0781L509.329 93.061L525.407 85.0497L525.36 84.6676L520.696 83.5007ZM509.196 92.655L505.296 91.7645L520.664 83.9204L524.697 84.9337L509.196 92.655ZM617.581 39.0703L617.675 39.1078L617.765 39.0635L622.284 36.815L622.692 36.6137L622.27 36.4431L617.069 34.3482L616.968 34.3106L616.875 34.355L612.362 36.6546L611.955 36.8628L612.384 37.03L617.581 39.0703ZM616.994 34.7678L621.672 36.6478L617.657 38.6472L612.979 36.8082L616.994 34.7678ZM554.344 70.5728L554.513 70.5592L557.642 69.0033L557.606 68.6212L552.697 67.1745L552.61 67.1472L552.531 67.1882L549.421 68.7747L548.956 69.0102L549.457 69.1569L554.344 70.5728ZM552.654 67.5976L556.968 68.8669L554.384 70.1498L550.084 68.901L552.654 67.5976ZM572.941 61.306L573.028 61.3367L573.11 61.2923L576.614 59.5454L577.064 59.3202L576.581 59.1633L571.561 57.5392L571.474 57.5153L571.391 57.5563L567.91 59.3373L567.466 59.5625L567.946 59.7126L572.941 61.306ZM571.514 57.9691L575.965 59.4055L572.995 60.8897L568.562 59.4772L571.514 57.9691ZM593.859 50.8859L593.949 50.92L594.032 50.8757L597.997 48.9001L598.425 48.6852L597.971 48.5248L592.843 46.6858L592.753 46.6551L592.666 46.696L588.723 48.7125L588.302 48.9308L588.756 49.0912L593.859 50.8859ZM592.789 47.1054L597.366 48.7432L593.913 50.4628L589.358 48.8558L592.789 47.1054ZM781.275 219.955L781.094 219.951L778.611 219.887L778.424 219.883V228.072H781.275V219.955ZM780.907 227.724H778.791V220.241L780.907 220.293V227.724ZM775.504 219.812L775.328 219.808L772.758 219.743L772.564 219.74V228.072H775.501V219.812H775.504ZM775.14 227.724H772.938V220.098L775.14 220.156V227.724ZM766.682 219.597L766.494 219.593V228.075H769.532V219.668L769.349 219.665L766.682 219.597ZM769.161 227.724H766.869V219.948L769.161 220.009V227.724ZM542.815 195.59H543.251V190.936H542.815V195.59ZM552.077 194.607H552.517V189.817H552.077V194.607ZM547.377 195.106H547.817V190.383H547.377V195.106ZM556.925 194.092H557.364V189.227H556.925V194.092ZM766.022 126.218L766.184 126.232L795.388 120.589L795.64 120.537V106.067L795.446 105.989L792.721 104.894L792.526 104.88L763.215 111.366L762.973 111.417V125.277L763.189 125.348L766.022 126.218ZM792.919 105.624L795.013 106.467V119.865L792.919 119.121V105.624ZM792.573 119.637L794.192 120.21L766.145 125.628L764.523 125.126L792.573 119.637ZM763.607 111.898L792.289 105.552V119.087L763.607 124.703V111.898ZM926.018 176.299L926.739 176.521V142.94L926.443 142.794L834.651 97.4965L833.84 97.0973V148.3L834.229 148.416L926.018 176.299ZM845.766 150.825L844.476 150.436V138.662L845.766 139.115V150.825ZM845.766 138.798L844.476 138.344V121.213L845.766 121.755V138.798ZM845.766 121.428L844.476 120.885V119.565L845.766 120.114V121.428ZM863.325 156.158L849.265 151.89V140.351L863.325 145.295V156.158ZM863.325 144.97L849.265 140.03V123.229L863.325 129.163V144.97ZM863.325 128.842L849.265 122.909V121.619L863.325 127.648V128.842ZM864.806 156.609L863.642 156.25V145.404L864.806 145.813V156.609ZM864.806 145.496L863.642 145.086V129.299L864.806 129.791V145.496ZM864.806 129.463L863.642 128.968V127.778L864.806 128.276V129.463ZM877.781 160.549L867.866 157.533V146.888L877.781 150.378V160.549ZM879.969 161.211L878.102 160.648V150.406L879.969 150.18V161.211ZM879.969 149.877L877.968 150.119L867.87 146.571V131.077L879.969 136.188V149.877ZM879.969 135.854L867.87 130.753V129.586L879.969 134.772V135.854ZM881.169 161.58L880.286 161.314V150.143L881.169 150.034V161.58ZM881.169 149.73L880.286 149.839V136.318L881.169 136.69V149.73ZM881.169 136.365L880.286 135.994V134.912L881.169 135.291V136.365ZM894.442 165.609L883.875 162.402L883.872 149.703L894.442 148.42V165.609ZM894.442 148.116L883.872 149.403L883.868 137.829L894.442 142.292V148.116ZM894.442 141.964L883.868 137.505V136.447L894.442 140.982V141.964ZM895.38 165.896L894.76 165.708V148.382L895.38 148.307V165.896ZM895.38 148.007L894.76 148.082V142.425L895.38 142.684V148.007ZM895.38 142.364L894.76 142.104V141.122L895.38 141.384V142.364ZM907.147 169.472L897.798 166.629V148.017L905.73 147.052L907.147 147.649V169.472ZM897.798 147.717V143.708L905.175 146.82L897.798 147.717ZM907.147 147.325L906.329 146.977L907.147 146.881V147.325ZM907.147 146.577L905.777 146.745L897.801 143.38V142.422L907.15 146.427V146.577H907.147ZM907.839 169.68L907.46 169.564V147.785L907.839 147.942V169.68ZM907.839 147.618L907.46 147.458V146.84L907.839 146.792V147.618ZM924.54 174.753L910.109 170.369V145.567L924.54 143.793V174.753ZM924.857 143.749L925.632 143.657V175.084L924.857 174.852V143.749ZM834.95 98.8238L924.673 143.097L924.407 143.128L834.95 99.4652V98.8238ZM834.95 99.8064L923.855 143.2L909.807 144.929L834.946 112.025V99.8064H834.95ZM834.95 112.768L909.396 145.489V170.154L908.275 169.809V146.458L908.149 146.4L897.668 141.906L897.358 141.777V166.493L895.819 166.026V141.115L895.693 141.057L883.742 135.932L883.432 135.802V136.123L883.439 162.262L881.612 161.706V135.014L881.482 134.96L867.736 129.078L867.426 128.944V157.407L865.242 156.742V128.01L865.116 127.952L849.139 121.107L848.833 120.971V151.753L846.206 150.952V119.845L846.079 119.79L834.954 115.017V112.768H834.95ZM834.95 115.474L844.158 119.425V120.746L834.95 116.859V115.474ZM834.95 117.194L844.158 121.08V138.232L834.95 134.994V117.194ZM834.95 135.311L844.158 138.546V150.334L834.95 147.54V135.311ZM909.569 237.148L909.49 237.131H879.406L851.824 227.714L851.749 227.703H843.946V225.393H843.506V239.4H835.732V238.089H835.235V239.4H827.457V220.218H827.017V227.707H787.629V203.806L795.489 200.101L795.557 200.067L795.572 199.991L795.81 198.913L801.447 196.29L801.63 196.204V190.991L835.235 188.759V189.414H835.732V188.729L843.477 188.213V188.705H843.978V188.179L931.197 182.386L931.716 182.352V140.832L931.427 140.682L857.284 102.072L897.755 93.8185L898.137 93.7434V57.9827L897.974 57.8463L794.833 -29.6395L794.595 -29.8442L794.314 -29.7112L708.087 10.1438V4.89622H707.719V10.3178L707.611 10.3656L649.556 -21.9763L649.812 -22.1298L649.546 -22.5256L649.254 -22.3482V-30.5369C649.686 -30.5778 650.086 -30.7348 650.375 -31.0145C650.71 -31.3319 650.919 -31.7686 650.919 -32.2497C650.919 -32.7308 650.71 -33.1709 650.375 -33.4848C650.043 -33.7987 649.578 -34 649.07 -34C648.562 -34 648.1 -33.8021 647.765 -33.4848C647.434 -33.1675 647.221 -32.7308 647.221 -32.2497C647.221 -31.7686 647.43 -31.3284 647.765 -31.0145C648.054 -30.7348 648.454 -30.5778 648.886 -30.5369V-22.3482L643.866 -25.1426L643.678 -24.8423L648.731 -22.0309L648.187 -21.6965L648.454 -21.3007L648.886 -21.5634V-7.10019L648.803 -7.05242L549.334 49.7054L549.078 49.8487V54.233L514.76 73.3331V72.4767H514.263V73.6061L478.042 93.7707L477.783 93.914V98.9944L478.19 99.0797L514.263 106.613V107.896H514.76V106.716L525.692 108.998L514.76 113.495V112.601H514.263V113.703L478.093 128.586L477.779 128.716V133.861L478.219 133.933L497.85 136.925L425.412 162.143L425.07 162.266V190.646L425.567 190.677L508.306 195.317H508.403L522.744 193.563V214.315L523.327 214.332L585.981 215.878V218.941L583.905 219.01L583.692 219.017V225.823L582.413 225.864L582.2 225.871V227.714H509.664L464.39 234.783H309.051V235.196H464.404L464.437 235.193L509.715 228.126H582.193V236.196H504.096V239.403H309.051V240H919.66V239.403H915.324L909.569 237.148ZM795.28 199.862L787.398 203.574L787.311 203.618V227.703H786.695V203.158L795.449 199.081L795.28 199.862ZM787.311 228.12V233.756H786.695V228.12H787.311ZM800.974 195.812L786.223 202.684L786.039 202.769V235.537H753.184V225.806L753.163 225.738L751.465 222.756V213.411L769.673 212.878L770.257 212.858V176.371L800.974 181.236V195.812ZM707.359 213.581L611.278 209.965L621.524 209.453L717.342 213.284L707.359 213.581ZM715.889 214.455V238.072H706.025V214.745L715.889 214.455ZM632.257 231.63L628.57 228.161V212.138L679.113 213.882V237.185H653.654L650.883 236.203L650.811 236.189H632.304V231.671L632.257 231.63ZM631.262 232.811L627.572 229.341V212.104L628.253 212.128V228.283L628.3 228.328L631.99 231.798V236.189H631.313V232.849L631.262 232.811ZM627.305 229.508L630.995 232.978V236.189H626.361V212.06L627.254 212.09V229.461L627.305 229.508ZM699.851 237.516V238.072H656.145L654.584 237.516H699.851ZM679.993 237.185V226.697H682.847L693.231 233.848L693.393 233.903H699.851V237.185H679.993ZM693.479 233.381L683.1 226.226L682.937 226.175H679.993V224.994H685.604L696.247 232.627L696.381 232.671H699.851V233.381H693.479ZM679.993 214.383V213.841L688.398 214.141L679.993 214.383ZM692.726 215.137V229.583L685.806 224.622L685.673 224.578H681.186V215.475L692.726 215.137ZM680.869 215.485V224.578H679.993V215.509L680.869 215.485ZM693.04 229.812V215.13L699.051 214.953V232.258H696.456L693.04 229.812ZM699.368 232.258V214.943L699.851 214.926V232.258H699.368ZM693.007 214.001L679.993 213.537V213.08L679.571 213.066L625.939 211.213H625.907L620.706 211.439L597.834 210.627L607.875 210.128L702.929 213.704L693.007 214.001ZM557.851 212.616L567.459 212.138L589.037 212.81L586.399 212.923L585.977 212.94V213.435L557.851 212.616ZM585.977 213.731V214.404L544.627 213.274L554.049 212.807L585.977 213.731ZM602.959 212.21L593.019 212.64L571.128 211.957L580.848 211.473L602.959 212.21ZM584.47 211.292L594.342 210.804L616.932 211.602L606.884 212.039L584.47 211.292ZM586.853 213.735L625.485 212.066V236.189H586.853V213.735ZM700.291 237.516H705.398V238.072H700.291V237.516ZM700.291 237.185V214.915L705.398 214.765V237.185H700.291ZM625.672 157.025V158.038L624.375 158.267L600.137 154.732V102.669L625.78 109.148H625.672V110.66H626.17V109.247L705.178 129.217V160.085L679.553 155.694V154.374H679.056V155.612L658.851 152.149H658.635L626.17 157.953V157.028H625.672V157.025ZM520.123 171.665L526.178 170.447L545.193 172.43L538.915 173.549L520.123 171.665ZM537.834 173.743L531.617 174.856L513.153 173.068L519.125 171.867L537.834 173.743ZM527.162 170.246L533.285 169.014L552.614 171.096L546.264 172.232L527.162 170.246ZM534.259 168.823L540.465 167.571L560.082 169.765L553.659 170.911L534.259 168.823ZM541.427 167.38L547.716 166.114L567.629 168.421L561.12 169.588L541.427 167.38ZM548.66 165.923L555.029 164.64L575.222 167.063L568.645 168.236L548.66 165.923ZM555.962 164.453L562.414 163.156L582.881 165.691L576.228 166.879L555.962 164.453ZM563.347 162.965L569.892 161.651L590.623 164.306L583.879 165.51L563.347 162.965ZM570.807 161.467L577.45 160.13L598.436 162.904L591.607 164.128L570.807 161.467ZM578.354 159.949L585.09 158.594L606.329 161.498L599.406 162.736L578.354 159.949ZM585.977 158.417L592.828 157.038L614.298 160.072L607.288 161.331L585.977 158.417ZM593.711 156.854L599.629 155.667L621.264 158.826L615.246 159.904L593.711 156.854ZM488.368 130.497L507.459 133.571L503.505 134.949L484.562 131.985L488.368 130.497ZM483.971 131.896L483.704 131.848L487.492 130.36L487.784 130.405L483.971 131.896ZM488.036 130.149L491.842 128.651L492.156 128.702L488.332 130.193L488.036 130.149ZM488.916 130.289L492.736 128.798L512.018 131.991L508.05 133.373L488.916 130.289ZM492.386 128.436L496.203 126.935L496.538 126.996L492.704 128.491L492.386 128.436ZM493.28 128.583L497.115 127.092L516.581 130.401L512.609 131.787L493.28 128.583ZM496.74 126.727L500.568 125.219L500.928 125.283L497.079 126.785L496.74 126.727ZM497.656 126.88L501.501 125.382L521.147 128.811L517.172 130.197L497.656 126.88ZM501.097 125.01L504.943 123.496L505.329 123.567L501.465 125.075L501.097 125.01ZM502.035 125.174L505.894 123.666L525.713 127.221L521.72 128.61L502.035 125.174ZM505.476 123.291L509.329 121.773L509.736 121.848L505.862 123.363L505.476 123.291ZM506.424 123.461L510.295 121.953L530.287 125.628L526.286 127.02L506.424 123.461ZM509.863 121.564L513.73 120.043L514.159 120.121L510.273 121.639L509.863 121.564ZM510.832 121.742L514.717 120.227L534.871 124.031L530.86 125.427L510.832 121.742ZM514.252 119.838L518.138 118.306L518.592 118.391L514.681 119.916L514.252 119.838ZM515.243 120.026L519.143 118.504L539.466 122.434L535.444 123.833L515.243 120.026ZM518.664 118.108L522.571 116.566L523.043 116.661L519.114 118.193L518.664 118.108ZM519.666 118.299L523.587 116.767L544.062 120.831L540.032 122.24L519.666 118.299ZM523.086 116.365L527.007 114.822L527.501 114.921L523.565 116.457L523.086 116.365ZM524.109 116.566L528.038 115.034L548.668 119.227L544.62 120.64L524.109 116.566ZM745.742 101.642L741.745 102.635L646.288 68.9419L650.447 67.3213L745.742 101.642ZM649.582 65.9633V-5.80706L650.764 -5.1895V66.3864L649.582 65.9633ZM784.259 91.5529V89.2567L789.586 91.6177L786.277 92.4298L784.259 91.5529ZM785.798 92.5492L784.262 92.9279V91.8839L785.798 92.5492ZM784.259 88.9257V86.5715L793.363 90.6829L790.061 91.4949L784.259 88.9257ZM784.259 86.2405V84.5618L783.967 84.4254L775.086 80.3788V79.6111L797.136 89.7514L793.846 90.5634L784.259 86.2405ZM783.228 85.1794V93.1804L775.086 95.1866V81.4706L783.228 85.1794ZM775.086 79.2835V76.7382L800.884 88.8336L797.605 89.6456L775.086 79.2835ZM775.086 76.4004V73.7903L804.622 87.9124L801.353 88.721L775.086 76.4004ZM775.086 73.4559V70.7775L808.348 86.9911L805.087 87.7964L775.086 73.4559ZM775.086 70.4432V67.7068L812.061 86.0836L808.81 86.8854L775.086 70.4432ZM775.086 67.369V64.561L815.762 85.1726L812.518 85.971L775.086 67.369ZM775.086 64.2198V61.3401L819.456 84.265L816.216 85.06L775.086 64.2198ZM775.086 60.9989V58.0442L847.453 96.1727V96.9472L822.112 83.7532L821.716 83.7088L819.903 84.1524L775.086 60.9989ZM775.086 57.6996V54.6663L847.453 93.5557V95.8315L775.086 57.6996ZM775.086 54.3217V51.2066L847.453 90.8705V93.2111L775.086 54.3217ZM754.06 39.3399L757.765 37.9853L847.445 88.1273V90.5327L754.06 39.3399ZM774.769 51.036V54.158L749.988 40.8377L753.685 39.4832L774.769 51.036ZM774.769 54.4957V57.5324L745.915 42.3253L749.606 40.9742L774.769 54.4957ZM774.769 57.8736V60.8351L741.839 43.8197L745.533 42.4686L774.769 57.8736ZM774.769 61.1729V64.0594L737.77 45.3108L741.457 43.963L774.769 61.1729ZM774.769 64.4006V67.2121L733.701 46.8018L737.384 45.4507L774.769 64.4006ZM774.769 67.5499V70.2896L735.795 51.2885L733.135 47.0065L733.312 46.9451L774.769 67.5499ZM774.769 70.6274V73.3058L738.779 56.0925L736.09 51.773L774.769 70.6274ZM774.769 73.6368V76.2503L741.648 60.7123L739.071 56.5668L774.769 73.6368ZM774.769 76.5881V79.1368L744.408 65.1683L741.94 61.1866L774.769 76.5881ZM774.769 79.4678V80.2389L745.482 66.9016L744.697 65.6357L774.769 79.4678ZM821.294 84.8894V151.18L725.956 163.641L706.241 160.263V159.171L807.354 144.213L807.545 143.316L793.071 134.939L792.707 134.874L761.117 140.146L721.306 117.129L720.914 117.067L689.562 124.233L679.553 121.704V121.042H679.056V121.581L675.682 120.728L821.294 84.8894ZM827.49 170.642V169.516C829.065 169.591 830.69 169.697 832.37 169.844C836.107 170.174 839.96 170.669 843.474 171.263V172.283H843.975V171.341C845.477 171.604 846.934 171.877 848.26 172.174C851.868 172.986 854.153 173.76 855.162 174.429C855.475 174.634 855.641 174.808 855.663 174.951C855.677 175.043 855.587 175.149 855.4 175.262C854.848 175.582 853.68 175.831 851.907 175.982C848.746 176.244 844.252 176.149 839.361 175.753H839.358C834.564 175.364 829.407 174.678 824.758 173.76C820.483 172.921 817.445 172 816.039 171.188C815.636 170.952 815.387 170.741 815.315 170.56C815.275 170.461 815.34 170.355 815.506 170.243C815.953 169.949 816.944 169.71 818.523 169.55C820.703 169.328 823.691 169.332 826.992 169.485V170.635H827.49V170.642ZM843.477 176.613V177.224L838.828 176.299C838.987 176.313 839.152 176.34 839.307 176.354C840.742 176.466 842.129 176.548 843.477 176.613ZM814.728 170.775C814.85 171.082 815.185 171.396 815.715 171.703C815.719 171.703 815.722 171.706 815.729 171.706L758.825 160.403L766.84 159.352L815.697 169.495C815.474 169.577 815.293 169.666 815.146 169.758C814.706 170.048 814.573 170.389 814.728 170.775ZM818.454 168.96C817.568 169.052 816.854 169.171 816.299 169.315L767.748 159.232L775.897 158.171L824.866 168.806C822.393 168.741 820.184 168.786 818.454 168.96ZM699.062 126.635L697.584 126.263L700.846 125.539V126.246L699.062 126.635ZM700.846 126.553V127.088L699.711 126.802L700.846 126.553ZM695.465 125.73L691.648 124.768L720.946 118.074L723.433 119.51L695.465 125.73ZM726.212 153.449C724.532 151.852 722.272 150.498 719.663 149.457V122.424L726.049 121.025L728.954 122.704V153.029L726.212 153.449ZM728.951 153.452V154.824L719.659 156.199V149.907C722.186 150.938 724.359 152.258 725.974 153.818L726.053 153.893L726.165 153.872L728.951 153.452ZM719.659 122.121V121.356L724.691 120.237L725.667 120.804L719.659 122.121ZM718.25 148.908C715.821 148.089 713.122 147.546 710.267 147.338L710.274 124.488L719.22 122.523V149.287C718.895 149.16 718.585 149.02 718.25 148.908ZM719.22 149.733V156.264L710.263 157.588L710.267 147.751C713.067 147.959 715.72 148.492 718.102 149.3C718.492 149.43 718.848 149.59 719.22 149.733ZM710.274 124.178V123.441L719.22 121.452V122.216L710.274 124.178ZM709.838 123.537V124.27L701.282 126.143V125.437L709.838 123.537ZM701.282 126.461L709.838 124.581L709.835 147.321C709.125 147.277 708.415 147.239 707.69 147.239C707.38 147.239 707.052 147.243 706.71 147.253C706.548 147.256 706.396 147.263 706.241 147.27V128.453L705.848 128.354L701.286 127.204V126.461H701.282ZM709.835 147.734L709.831 157.653L706.241 158.181V147.686C706.404 147.679 706.569 147.666 706.728 147.662C707.027 147.652 707.351 147.649 707.69 147.649C708.415 147.649 709.125 147.693 709.835 147.734ZM769.064 172.167V211.725L659.345 206.512V153.374L769.064 172.167ZM739.1 151.91V153.323L729.394 154.756V153.381L739.1 151.91ZM729.394 152.965V122.956L739.1 128.566V151.487L729.394 152.965ZM749.663 150.3V151.76L739.539 153.255V151.842L749.663 150.3ZM739.539 151.422V128.822L749.663 134.677V149.884L739.539 151.422ZM760.692 148.625V150.133L750.099 151.695V150.235L760.692 148.625ZM750.103 149.815V134.929L760.695 141.053V148.205L750.103 149.815ZM784.673 144.558L784.67 140.129L796.689 138.191L796.823 138.266L796.826 142.708L784.673 144.558ZM796.826 143.131V144.79L784.673 146.584V144.981L796.826 143.131ZM767.666 141.883L763.373 140.767L792.692 135.881L795.345 137.416L767.666 141.883ZM772.646 146.39V142.07L784.23 140.204V144.626L772.646 146.39ZM784.233 145.045V146.649L772.65 148.358V146.803L784.233 145.045ZM767.507 142.855L767.727 142.865L772.21 142.138V146.455L761.131 148.14V141.207L767.507 142.855ZM772.21 146.871V148.427L761.131 150.064V148.556L772.21 146.871ZM803.479 142.118L805.8 143.455L797.255 144.721V143.063L803.479 142.118ZM797.259 142.643V138.522L802.906 141.787L797.259 142.643ZM737.359 104.471L732.811 105.586L732.086 105.341L736.624 104.211L737.359 104.471ZM737.157 104.085L741.731 102.949L742.473 103.208L737.892 104.337L737.157 104.085ZM677.045 118.705L660.325 114.222L664.629 113.062L681.334 117.644L679.557 118.081V118.009H679.059V118.207L677.045 118.705ZM679.059 118.514V118.821L678.227 119.026L677.643 118.866L679.059 118.514ZM626.173 97.8991V96.606L673.772 110.233L669.433 111.404L621.654 98.0152L625.672 96.6538V97.8957H626.173V97.8991ZM679.557 110.36V109.155L696.063 113.983L691.728 115.058L674.994 110.267L679.063 109.172V110.36H679.557ZM691.137 115.205L686.823 116.279L670.089 111.588L674.421 110.421L691.137 115.205ZM686.224 116.426L681.921 117.497L665.195 112.908L669.516 111.745L686.224 116.426ZM626.09 99.5744H625.672V101.089H626.17V99.5983L668.856 111.561L664.528 112.727L616.842 99.6529L621.149 98.1926L626.09 99.5744ZM663.962 112.878L659.651 114.044L612.056 101.274L616.338 99.8235L663.962 112.878ZM679.557 118.391L681.921 117.804L682.519 117.968L679.557 118.698V118.391ZM682.516 117.658L686.812 116.59L687.424 116.76L683.118 117.822L682.516 117.658ZM687.41 116.443L691.717 115.372L692.344 115.549L688.023 116.614L687.41 116.443ZM692.304 115.225L696.633 114.15L697.274 114.335L692.935 115.402L692.304 115.225ZM697.213 114.004L701.563 112.922L702.216 113.116L697.855 114.191L697.213 114.004ZM702.14 112.782L706.512 111.697L707.175 111.902L702.796 112.98L702.14 112.782ZM707.077 111.554L711.478 110.462L712.159 110.673L707.748 111.758L707.077 111.554ZM712.037 110.322L716.459 109.227L717.147 109.449L712.721 110.537L712.037 110.322ZM717.018 109.087L721.469 107.978L722.168 108.203L717.706 109.305L717.018 109.087ZM722.013 107.845L726.493 106.733L727.203 106.968L722.719 108.074L722.013 107.845ZM727.04 106.596L731.542 105.48L732.266 105.723L727.75 106.832L727.04 106.596ZM731.556 105.167L636.218 72.8691L640.799 71.0846L736.101 104.037L731.556 105.167ZM731.016 105.3L726.503 106.419L631.244 74.8037L635.785 73.0363L731.016 105.3ZM725.956 106.555L721.476 107.668L626.299 76.7348L630.801 74.9811L725.956 106.555ZM720.924 107.804L716.466 108.913L621.391 78.6421L625.856 76.9054L720.924 107.804ZM715.911 109.049L711.485 110.151L616.518 80.546L620.944 78.8229L715.911 109.049ZM710.923 110.291L706.519 111.387L611.674 82.4362L616.067 80.7268L710.923 110.291ZM705.953 111.526L701.578 112.615L606.863 84.3093L611.224 82.6102L705.953 111.526ZM701.001 112.758L696.64 113.84L602.076 86.1757L606.408 84.4868L701.001 112.758ZM678.703 108.903L674.338 110.083L597.323 88.0318L601.622 86.3565L678.703 108.903ZM625.388 96.3808L621.055 97.8514L592.59 89.8776L596.861 88.2126L625.388 96.3808ZM620.551 98.022L616.237 99.4823L587.88 91.7099L592.122 90.0551L620.551 98.022ZM615.732 99.6563L611.447 101.11L583.202 93.5318L587.415 91.8873L615.732 99.6563ZM610.935 101.284L606.668 102.73L578.538 95.3504L582.726 93.7161L610.935 101.284ZM606.769 103.065L632.372 109.783L606.354 103.208L606.769 103.065ZM607.284 102.891L611.544 101.448L659.078 114.198L654.782 115.355L607.284 102.891ZM659.752 114.375L676.446 118.852L672.32 119.879L664.312 117.852L655.46 115.532L659.752 114.375ZM677.048 119.016L677.632 119.176L673.524 120.186L672.943 120.036L677.048 119.016ZM743.007 103.078L742.26 102.819L746.25 101.826L747 102.099L743.007 103.078ZM741.215 102.765L736.634 103.901L641.231 70.914L645.855 69.1091L741.215 102.765ZM640.795 70.7639L639.872 70.4432L644.489 68.6314L645.426 68.959L640.795 70.7639ZM640.362 70.9311L635.782 72.7155L634.877 72.4085L639.447 70.6104L640.362 70.9311ZM635.338 72.8895L630.794 74.6604L629.903 74.3669L634.434 72.5825L635.338 72.8895ZM630.358 74.8344L625.849 76.5915L624.973 76.3049L629.471 74.5375L630.358 74.8344ZM625.409 76.7621L620.933 78.5056L620.075 78.2292L624.533 76.4755L625.409 76.7621ZM620.493 78.6762L616.06 80.4027L615.217 80.1399L619.635 78.3998L620.493 78.6762ZM615.613 80.5801L611.213 82.2929L610.384 82.0404L614.77 80.3139L615.613 80.5801ZM610.762 82.4669L606.394 84.1729L605.58 83.9272L609.93 82.2178L610.762 82.4669ZM605.94 84.3503L601.608 86.0392L600.811 85.8072L605.129 84.108L605.94 84.3503ZM601.147 86.2166L596.843 87.8953L596.061 87.6701L600.35 85.9846L601.147 86.2166ZM596.382 88.0761L592.108 89.7378L591.343 89.5228L595.6 87.8509L596.382 88.0761ZM591.643 89.922L587.401 91.5734L586.655 91.3721L590.886 89.707L591.643 89.922ZM586.932 91.7576L582.712 93.3988L581.984 93.2009L586.186 91.5495L586.932 91.7576ZM582.24 93.5898L578.048 95.2242L577.338 95.0365L581.512 93.3954L582.24 93.5898ZM577.576 95.405L573.41 97.0291L572.714 96.8517L576.866 95.2208L577.576 95.405ZM572.93 97.2168L568.789 98.8306L568.115 98.66L572.238 97.0393L572.93 97.2168ZM568.303 99.0183L564.187 100.622L563.531 100.462L567.632 98.8511L568.303 99.0183ZM563.7 100.813L559.602 102.41L558.968 102.256L563.048 100.653L563.7 100.813ZM559.116 102.601L555.043 104.187L554.423 104.041L558.482 102.447L559.116 102.601ZM554.553 104.378L550.498 105.958L549.9 105.818L553.933 104.232L554.553 104.378ZM550.005 106.156L545.972 107.726L545.392 107.596L549.403 106.02L550.005 106.156ZM545.471 107.92L541.459 109.483L540.901 109.36L544.898 107.79L545.471 107.92ZM540.955 109.681L536.965 111.236L536.425 111.12L540.396 109.558L540.955 109.681ZM536.457 111.431L532.482 112.983L531.963 112.874L535.92 111.318L536.457 111.431ZM531.97 113.181L528.013 114.723L527.515 114.625L531.455 113.075L531.97 113.181ZM528.557 114.836L532.507 113.297L553.281 117.62L549.219 119.036L528.557 114.836ZM533.019 113.093L536.99 111.547L557.905 116.01L553.829 117.426L533.019 113.093ZM537.499 111.349L541.488 109.797L562.547 114.399L558.456 115.826L537.499 111.349ZM541.989 109.595L545.997 108.036L567.193 112.779L563.091 114.208L541.989 109.595ZM546.494 107.845L550.52 106.272L571.853 111.158L567.73 112.594L546.494 107.845ZM551.017 106.081L555.068 104.501L576.527 109.534L572.386 110.97L551.017 106.081ZM555.559 104.307L559.631 102.724L581.209 107.896L577.053 109.343L555.559 104.307ZM560.118 102.529L564.205 100.936L585.912 106.262L581.731 107.719L560.118 102.529ZM564.691 100.748L568.804 99.1445L590.623 104.621L586.428 106.081L564.691 100.748ZM569.29 98.9568L573.424 97.343L595.355 102.969L591.142 104.436L569.29 98.9568ZM573.907 97.1588L578.07 95.5381L606.156 102.904L605.727 103.051L599.755 101.54L599.438 101.557L595.874 102.799L573.907 97.1588ZM658.75 207.61L754.986 212.182L750.132 212.322L652.27 207.931L658.75 207.61ZM751.17 222.869L752.871 225.851V235.541H750.28V213.448L751.145 213.424V222.794L751.17 222.869ZM749.84 213.462V235.541H748.676V213.499L749.84 213.462ZM746.077 212.445L735.899 212.745L638.485 208.617L649.084 208.091L746.077 212.445ZM748.049 213.516V235.544H730.825V214.025L748.049 213.516ZM731.715 212.868L721.667 213.162L624.84 209.292L635.252 208.774L731.715 212.868ZM730.504 214.028V235.537H729.365V214.059L730.504 214.028ZM728.933 214.076V235.544H724.5L719.486 232.084L719.364 232.043H717.547V214.41L728.933 214.076ZM717.227 214.417V232.043H716.444V214.441L717.227 214.417ZM716.444 232.46H719.288L724.301 235.913L724.427 235.957H791.297L796.019 238.076H716.444V232.46ZM801.356 180.663L770.26 175.739V175.193L826.992 184.348V185.75L801.63 181.809V180.707L801.356 180.663ZM802.221 189.899L801.63 189.824V188.674L807.974 189.517L802.221 189.899ZM809.484 189.411L801.63 188.37V187.152L815.236 189.029L809.484 189.411ZM816.721 188.937L801.63 186.852V185.559L822.494 188.555L816.721 188.937ZM826.992 188.251L823.94 188.456L801.63 185.255V183.877L826.992 187.664V188.251ZM827.49 188.22V187.736L829.721 188.074L827.49 188.22ZM831.115 187.978L827.49 187.439V187.364H826.989V187.367L801.627 183.577V182.116L836.925 187.596L831.115 187.978ZM838.291 187.5L827.129 185.77H827.493V184.43L835.238 185.685V186.275H835.736V185.764L844.119 187.115L838.291 187.5ZM845.452 187.026L835.732 185.46V184.788H835.235V185.378L770.257 174.886V173.02L826.989 182.556V182.744H827.49V182.642L843.474 185.33V185.965H843.975V185.416L851.284 186.644L845.452 187.026ZM852.588 186.552L843.978 185.105V184.665H843.477V185.023L827.493 182.338V181.311H826.992V182.256L770.26 172.72V171.236L769.767 171.154L729.437 164.244L731.596 163.961L835.238 182.106V183.147H835.736V182.191L858.445 186.166L852.588 186.552ZM859.696 186.081L835.732 181.884V181.652H835.235V181.799L732.583 163.828L740.267 162.825L826.989 178.653V179.725H827.49V178.745L865.567 185.695L859.696 186.081ZM866.803 185.607L835.732 179.936V178.517H835.235V179.844L827.49 178.431V178.281H826.989V178.343L741.248 162.695L749.036 161.675L826.989 176.517V176.691H827.49V176.613L843.474 179.66V180.492H843.975V179.748L872.677 185.214L866.803 185.607ZM873.867 185.139L843.975 179.445V179.189H843.474V179.353L827.49 176.306V175.255H826.989V176.214L749.984 161.556L757.895 160.519L816.872 172.239C818.555 172.935 821.186 173.668 824.632 174.351C828.016 175.019 831.645 175.511 835.238 175.91V176.876H835.736V175.992L843.481 177.534V177.759H843.982V177.636L879.792 184.754L873.867 185.139ZM880.934 184.665L843.975 177.322V176.633C846.281 176.729 848.397 176.739 850.228 176.664L886.878 184.273L880.934 184.665ZM887.998 184.201L851.421 176.606C851.59 176.596 851.795 176.592 851.961 176.579C853.832 176.422 855.097 176.142 855.731 175.767C855.839 175.698 855.89 175.623 855.969 175.552L893.949 183.802L887.998 184.201ZM895.037 183.734L856.203 175.303C856.279 175.166 856.315 175.019 856.29 174.862C856.236 174.555 855.983 174.245 855.518 173.941C854.448 173.235 852.095 172.423 848.404 171.597C843.863 170.58 837.995 169.741 832.431 169.25C830.416 169.072 828.477 168.956 826.621 168.878L776.773 158.055L785.041 156.974L900.998 183.338L895.037 183.734ZM902.043 183.266L785.899 156.858L794.296 155.762L908.051 182.867L902.043 183.266ZM909.061 182.799L795.129 155.657L803.638 154.541L915.087 182.399L909.061 182.799ZM916.056 182.335L804.452 154.435L813.102 153.306L922.107 181.935L916.056 182.335ZM923.044 181.871L813.891 153.203L821.806 152.17L928.043 181.543L923.044 181.871ZM930.602 141.449V181.161L822.397 151.248V85.0975L930.602 141.449ZM847.763 97.1144V96.3399L857.007 101.212L856.016 101.413L847.763 97.1144ZM857.475 101.117L847.766 95.9987V93.7263L860.409 100.52L857.475 101.117ZM860.863 100.424L847.763 93.3817V91.0445L863.779 99.8269L860.863 100.424ZM864.244 99.7348L847.766 90.7033V88.3047L867.156 99.1411L864.244 99.7348ZM867.607 99.049L758.136 37.8454L761.849 36.484L870.497 98.4553L867.607 99.049ZM870.951 98.3666L762.223 36.3476L765.936 34.9896L873.834 97.7763L870.951 98.3666ZM874.285 97.6876L766.307 34.8531L770.026 33.4884L877.161 97.0973L874.285 97.6876ZM877.604 97.012L770.394 33.3553L774.12 31.9905L880.469 96.4286L877.604 97.012ZM880.906 96.3365L774.488 31.8574L778.222 30.4893L883.76 95.7564L880.906 96.3365ZM884.2 95.6677L778.586 30.3562L782.327 28.9846L887.047 95.0843L884.2 95.6677ZM887.476 94.999L782.687 28.8549L786.439 27.4799L890.319 94.4155L887.476 94.999ZM890.745 94.3302L786.789 27.3503L790.544 25.9718L893.57 93.7536L890.745 94.3302ZM794.992 -28.3055L897.185 58.3785V92.5117L794.992 23.8087V-28.3055ZM794.455 24.5422L896.511 93.1565L893.999 93.6717L790.908 25.8456L794.455 24.5422ZM708.083 11.1469L708.195 11.0991L713.54 14.0778L713.723 13.7775L708.591 10.9149L794.047 -28.5852V23.7302L732.652 46.2252L728.165 39.0021L727.967 38.8212L708.083 28.6843V11.1469ZM727.35 39.6162L744.679 67.5226L744.899 67.7204L774.773 81.3273V95.2617L758.587 99.2469L709.215 80.5391L694.207 59.7672L694.139 59.7126L673.96 51.309C673.992 51.2032 674.086 51.1281 674.086 51.0155C674.086 50.688 673.945 50.3912 673.722 50.1762C673.495 49.9613 673.181 49.8282 672.839 49.8282C672.489 49.8282 672.179 49.9613 671.952 50.1762C671.725 50.3912 671.585 50.688 671.585 51.0155C671.585 51.3397 671.725 51.6365 671.952 51.8515C672.179 52.0664 672.489 52.1961 672.839 52.1961C673.181 52.1961 673.495 52.0664 673.722 51.8515C673.794 51.7798 673.783 51.6638 673.837 51.5819L685.374 56.3859L700.619 79.362L700.695 79.4234L728.972 90.0107L729.026 90.021L733.859 90.195L758.075 99.3731L748.737 101.673L651.088 66.5024V-5.02573L666.935 3.25849V8.80973L667.206 8.94962L727.35 39.6162ZM732.98 89.8674L729.062 89.7207L700.853 79.1607L685.882 56.6009L693.969 59.9685L708.977 80.7404L709.053 80.7984L732.98 89.8674ZM673.769 51.0155C673.769 51.2578 673.664 51.4796 673.495 51.6399C673.325 51.8003 673.091 51.8992 672.835 51.8992C672.572 51.8992 672.341 51.8003 672.172 51.6399C672.003 51.4796 671.898 51.2578 671.898 51.0155C671.898 50.7733 672.003 50.5481 672.172 50.3912C672.341 50.2308 672.572 50.1284 672.835 50.1284C673.091 50.1284 673.325 50.2308 673.495 50.3912C673.664 50.5481 673.769 50.7699 673.769 51.0155ZM707.715 11.3175V28.4967L690.041 19.4857L707.715 11.3175ZM707.218 10.5532L689.021 18.9603L667.966 8.22628V2.68187L667.696 2.53857L649.315 -7.06948L649.25 -7.1036V-21.7409L707.218 10.5532ZM648.021 -31.2602C647.754 -31.5127 647.589 -31.8641 647.589 -32.2497C647.589 -32.6352 647.754 -32.9867 648.021 -33.2391C648.288 -33.4916 648.659 -33.6486 649.066 -33.6486C649.474 -33.6486 649.848 -33.4916 650.111 -33.2391C650.375 -32.9867 650.544 -32.6352 650.544 -32.2497C650.544 -31.8641 650.378 -31.5093 650.111 -31.2602C649.845 -31.0111 649.474 -30.8508 649.066 -30.8508C648.659 -30.8542 648.288 -31.0111 648.021 -31.2602ZM649.074 66.8265L650.018 67.1677L645.851 68.7918L644.918 68.4642L649.074 66.8265ZM479.722 98.3973L634.178 15.2651V16.1727L480.078 98.4724L479.722 98.3973ZM480.54 98.5713L634.178 16.5105V40.5374L546.426 81.9995L546.458 82.3475L549.284 83.0776V99.2878L527.306 108.329L480.54 98.5713ZM622.746 52.4179L622.638 52.469V69.1057L620.23 70.0986V53.5711L619.963 53.6939L604.978 60.5144L604.873 60.5622V76.4141L602.703 77.308L602.707 61.8314V61.5482L602.444 61.6711L588.77 67.8979L588.669 67.9491V83.081L586.719 83.8863L586.723 69.1125V68.8362L586.456 68.9556L573.936 74.6604L573.828 74.7081V89.1884L572.072 89.9152V75.5099L571.806 75.6293L560.312 80.8667L560.208 80.9145V94.7908L558.673 95.4221V80.6244L634.171 45.9079V47.2146L622.746 52.4179ZM634.178 47.5968V64.3563L623.009 68.9522V52.6874L634.178 47.5968ZM619.855 54.1204V70.2487L605.237 76.264V60.784L619.855 54.1204ZM602.343 62.1044L602.336 77.4582L589.037 82.9275V68.164L602.343 62.1044ZM586.359 69.3889L586.352 84.0364L574.202 89.0349V74.9231L586.359 69.3889ZM571.708 76.0592V90.0585L560.586 94.6373V81.1294L571.708 76.0592ZM558.453 80.3958L558.363 80.4368V95.5517L549.915 99.0319V82.3134L634.178 42.8849V45.5701L558.453 80.3958ZM549.457 81.8596L549.28 81.9449V82.6921L547.057 82.1155L634.178 40.9537V42.2195L549.457 81.8596ZM478.821 129.347L636.106 64.6258L636.42 64.4996V64.1788L636.405 13.7844V12.945L635.63 13.3579L478.821 97.7592V94.4701L549.861 54.929L550.116 54.7857V50.398L648.551 -5.76953V65.9701L478.821 132.708V129.347ZM635.367 15.8793L635.374 39.9745L634.491 40.3873V16.3433L635.367 15.8793ZM634.495 16.0021V15.0945L635.367 14.6271V15.5381L634.495 16.0021ZM635.378 40.3907V41.66L634.495 42.0728V40.8104L635.378 40.3907ZM635.378 42.3219V45.0207L634.495 45.4268V42.7382L635.378 42.3219ZM635.378 45.3517V46.6619L634.495 47.0645V45.7577L635.378 45.3517ZM635.378 47.0474L635.382 63.8581L634.491 64.2266V47.4535L635.378 47.0474ZM480.183 133.233L483.156 132.066L483.419 132.107L480.432 133.274L480.183 133.233ZM481.023 133.363L484.007 132.203L502.91 135.158L499.836 136.232L481.023 133.363ZM426.122 162.958L599.089 102.734V154.756L426.122 189.554V162.958ZM508.316 194.321L429.506 189.899L432.22 189.356L510.839 194.014L508.316 194.321ZM512.497 193.809L433.366 189.121L438.642 188.056L518.811 193.035L512.497 193.809ZM522.74 192.55L520.448 192.833L439.789 187.831L445.112 186.757L522.744 191.793V192.55H522.74ZM522.74 191.499L446.225 186.535L451.61 185.45L522.74 190.278V191.499ZM522.74 189.974L452.72 185.228L458.148 184.133L522.74 188.705V189.974ZM522.74 188.405L459.254 183.911L464.736 182.805L522.74 187.087V188.405ZM522.74 186.787L465.821 182.587L471.36 181.475L522.74 185.419V186.787ZM522.74 185.126L472.445 181.256L478.031 180.134L522.74 183.713V185.126ZM522.74 183.409L479.098 179.916L484.746 178.783L522.74 181.946V183.409ZM522.74 181.642L485.809 178.571L491.521 177.421L522.74 180.12V181.642ZM522.74 179.82L492.563 177.21L498.355 176.046L522.744 178.244V179.82H522.74ZM523.226 176.354L522.74 176.439V177.94L499.364 175.838L505.217 174.661L523.259 176.347L523.226 176.354ZM506.233 174.46L512.137 173.273L530.525 175.05L524.358 176.152L506.233 174.46ZM523.936 177.374L658.152 153.377V206.512L523.936 213.162V177.374ZM538.537 213.571L540.728 213.462L585.977 214.697V214.745L538.537 213.571ZM584.121 219.405L585.973 219.347V236.189H584.121V219.405ZM582.629 226.263L583.685 226.229V236.189H582.629V226.263ZM827.017 239.4H504.532V236.605H650.771L656.033 238.475L656.112 238.489H827.025V239.4H827.017ZM827.017 238.072H797.046L791.434 235.558L791.344 235.537H786.699V234.172H800.625L805.717 236.66L805.818 236.684H827.021V238.072H827.017ZM827.017 236.274H805.869L800.773 233.783L800.672 233.76H787.629V228.123H827.017V236.274ZM843.946 239.4V238.035H851.698L855.738 239.4H843.946ZM857.039 239.4L851.799 237.632L851.723 237.622H843.942V228.123H851.709L879.298 237.537L879.37 237.55H909.446L914.178 239.403H857.039V239.4ZM805.007 -14.6133L804.222 -15.2616V24.7401L804.42 24.8766L878.693 76.4312V76.4721H878.75L892.655 86.1211L893.412 86.6431V58.4434L893.25 58.3069L805.007 -14.6133ZM811.797 28.8856L805.173 24.2863V10.4406L811.801 15.3607L811.797 28.8856ZM811.801 14.9785L805.173 10.0585V8.53336L811.801 13.508V14.9785ZM813.369 29.9775L812.115 29.1074V15.5927L813.369 16.5276V29.9775ZM813.369 16.1454L812.115 15.2105V13.74L813.369 14.6851V16.1454ZM831.079 42.2673L816.868 32.3999V19.1206L831.079 29.6772V42.2673ZM831.079 29.2985L816.868 18.7453V17.3089L831.079 27.9746V29.2985ZM832.499 43.2499L831.396 42.4857V29.9126L832.499 30.7315V43.2499ZM832.499 30.3528L831.396 29.5339V28.2135L832.499 29.0392V30.3528ZM847.917 53.9566L835.588 45.4029V33.0346L847.917 42.1922V53.9566ZM847.917 41.8101L835.588 32.6524V31.3661L847.917 40.6227V41.8101ZM849.201 54.8472L848.235 54.175V42.4243L849.201 43.1408V54.8472ZM849.201 42.762L848.235 42.0455V40.8582L849.201 41.5849V42.762ZM862.77 64.2641L851.986 56.7749L851.972 45.1982L862.77 53.2197V64.2641ZM862.77 52.8409L851.972 44.8194V43.6696L862.77 51.7764V52.8409ZM863.93 65.0659L863.087 64.4825V53.4551L863.93 54.0829V65.0659ZM863.93 53.7042L863.087 53.0764V52.0152L863.93 52.6465V53.7042ZM875.954 73.415L866.442 66.8129V55.9492L875.954 63.0154V73.415ZM875.954 62.6332L866.442 55.5671V54.5264L875.954 61.6676V62.6332ZM877.01 74.1486L876.271 73.6334V63.2474L877.01 63.8001V74.1486ZM877.01 63.4214L876.271 62.8721V61.9031L877.01 62.4592V63.4214ZM878.696 75.3154L877.449 74.4522V62.2647L877.37 62.1999L866.359 53.9362L866.006 53.6666V66.5092L864.374 65.3764V52.452L864.291 52.3871L851.893 43.0793L851.536 42.8132V43.2397L851.547 56.4747L849.644 55.1542V41.3904L849.561 41.3256L835.509 30.7759L835.155 30.5063V45.0958L832.935 43.5536V28.8379L832.856 28.7799L816.789 16.7186L816.429 16.4525V32.0997L813.812 30.2811V14.4872L813.733 14.4258L805.177 8.00792V6.71479L878.696 62.3944V75.3154ZM805.173 5.9164V-12.0885L891.419 58.7129L879.093 61.8997L805.173 5.9164ZM891.747 84.3742L879.352 75.7726V62.4763L891.747 59.2759V84.3742ZM805.173 -12.4842V-13.2929L892.089 58.5389L891.783 58.6174L805.173 -12.4842ZM892.464 84.8757L892.064 84.5959V59.1974L892.464 59.0916V84.8757ZM427.773 165.623L427.416 165.736V186.04L428.061 185.897L591.333 149.754L591.74 149.662V112.775L591.041 113L427.773 165.623ZM429.257 184.61L428.468 184.784V166.483L429.257 166.558V184.61ZM455.78 178.735L429.575 184.539V166.582L455.78 169.001V178.735ZM516.811 165.227L456.493 178.578V168.95L516.811 152.579V165.227ZM516.811 151.876L456.101 168.359L430.022 165.95L556.964 125.034L562.15 126.065L562.23 126.058L587.858 117.996V123.874L513.575 145.926L513.604 146.287L516.808 146.728V151.876H516.811ZM516.811 145.946V146.352L514.523 146.038L587.862 124.267V125.099L516.941 145.902L516.811 145.946ZM529.144 162.494L518.948 164.749V147.349L520.938 146.779L529.148 147.929L529.144 162.494ZM529.152 147.628L521.644 146.574L529.152 144.418V147.628ZM542.761 159.481L531.563 161.958V148.27L542.764 149.843L542.761 159.481ZM542.764 149.539L531.563 147.966V143.725L542.768 140.504L542.764 149.539ZM553.901 157.011L545.355 158.901V150.204L553.901 151.402V157.011ZM557.71 156.168L554.218 156.946V142.224L557.71 141.275V156.168ZM557.71 140.965L554.016 141.968L553.901 141.999V151.102L545.355 149.904V139.754L557.707 136.205V140.965H557.71ZM574.199 152.518L570.27 153.388V152.238L574.199 151.34V152.518ZM574.199 150.986L570.051 151.931L569.906 151.965V153.47L560.529 155.544V140.511L574.202 136.799V150.986H574.199ZM574.199 136.492L560.525 140.2V135.396L574.199 131.466V136.492ZM576.83 151.934L574.639 152.419V151.242L576.83 150.743V151.934ZM576.83 130.275V150.385L574.639 150.883V130.906L574.357 130.988L560.244 135.045L560.085 135.089V155.646L558.143 156.073V135.649L557.862 135.727L545.071 139.402L544.912 139.446V159L543.193 159.379L543.2 140.224V139.945L542.916 140.026L531.271 143.374L531.116 143.418V162.057L529.577 162.402L529.58 144.141V143.865L529.299 143.943L518.667 147.004L518.512 147.045V164.852L517.179 165.145V146.202L587.862 125.464V127.102L576.985 130.231L576.83 130.275ZM577.27 135.656V130.582L587.862 127.535V132.779L577.27 135.656ZM587.862 133.09V147.867L577.27 150.286V135.966L587.862 133.09ZM590.684 148.87L577.27 151.839V150.641L590.684 147.581V148.87ZM590.684 147.222L588.179 147.792V133.005L590.684 132.326V147.222ZM590.684 132.012L588.179 132.691V127.44L590.684 126.723V132.012ZM590.684 126.29L588.179 127.013V125.372L590.684 124.639V126.29ZM590.684 124.274L588.179 125.01V124.175L590.684 123.431V124.274ZM590.684 123.042L588.179 123.786V117.589L587.97 117.658L562.176 125.771L557.552 124.85L590.684 114.167V123.042ZM763.528 206.853L764.166 206.897V175.924L763.665 175.849L669.235 161.293L668.546 161.191V161.856L668.536 200.183V200.708L669.087 200.746L763.528 206.853ZM682.941 200.507L681.528 200.418L681.532 172.512L682.948 172.699L682.941 200.507ZM682.952 172.396L681.535 172.208V170.775L682.952 170.973V172.396ZM699.21 201.561L686.174 200.718V190.226L699.21 191.424V201.561ZM699.21 191.124L686.174 189.923V173.129L699.21 174.866V191.124ZM699.21 174.566L686.174 172.829V171.413L699.21 173.208V174.566ZM700.796 201.66L699.523 201.581V174.91L700.796 175.077V201.66ZM700.796 174.777L699.523 174.607V173.252L700.796 173.429V174.777ZM715.724 202.629L703.794 201.858V191.844L705.773 192.031V199.302L705.921 199.316L715.724 200.036V202.629ZM715.724 199.732L706.09 199.029V191.758L705.946 191.745L703.794 191.544V175.477L715.724 177.067V199.732ZM715.724 176.77L703.794 175.18V173.842L715.724 175.487V176.77ZM717.187 202.721L716.034 202.646V177.111L717.187 177.264V202.721ZM717.187 176.968L716.034 176.814V175.528L717.187 175.688V176.968ZM730.915 203.612L719.976 202.902V200.346L730.915 201.148V203.612ZM730.915 200.851L719.976 200.043L719.969 177.64L730.915 179.1V200.851ZM730.915 178.8L719.969 177.336V176.07L730.915 177.578V178.8ZM732.27 203.697L731.232 203.629V179.141L732.27 179.278V203.697ZM732.27 178.981L731.232 178.841V177.623L732.27 177.766V178.981ZM744.942 204.519L734.876 203.867V201.435L744.942 202.172V204.519ZM744.942 201.878L734.876 201.138V179.632L744.942 180.973V201.878ZM744.942 180.67L734.876 179.329V178.124L744.942 179.513V180.67ZM746.189 204.601L745.259 204.536V202.196L746.189 202.267V204.601ZM746.189 201.967L745.259 201.899V181.011L746.189 181.13V201.967ZM746.189 180.837L745.259 180.714V179.557L746.189 179.684V180.837ZM762.35 176.903L762.793 176.855L762.977 176.886V205.686L762.35 205.642V176.903ZM762.032 205.625L748.755 204.768V178.233L762.032 176.93V205.625ZM669.736 162.511L759.819 176.394L748.377 177.517L669.732 166.264L669.736 162.511ZM669.732 167.018L747.969 178.216V204.717L746.632 204.632V179.329L746.438 179.301L734.688 177.681L734.44 177.647V203.844L732.713 203.728V177.411L732.522 177.38L719.782 175.627L719.533 175.593V175.831L719.544 202.875L717.627 202.752V175.327L717.439 175.299L703.607 173.395L703.358 173.361V201.827L701.242 201.694V173.071L701.048 173.044L685.983 170.969L685.731 170.932V200.688L683.377 200.531L683.384 170.789V170.608L683.197 170.584L669.732 168.721V167.018ZM669.732 169.151L681.218 170.734V172.164L669.732 170.628V169.151ZM669.732 170.935L681.218 172.467L681.215 189.472L669.725 188.415L669.732 170.935ZM669.728 188.712L681.218 189.773V200.398L669.728 199.654V188.712ZM958.281 239.925H959.896V239.454H958.281V239.925ZM954.886 239.925H956.501V239.454H954.886V239.925ZM961.684 239.925H963.298V239.454H961.684V239.925ZM978.673 239.925H980.288V239.454H978.673V239.925ZM975.275 239.925H976.889V239.454H975.275V239.925ZM971.876 239.925H973.491V239.454H971.876V239.925ZM968.477 239.925H970.092V239.454H968.477V239.925ZM965.079 239.925H966.693V239.454H965.079V239.925ZM951.484 239.925H953.102V239.454H951.484V239.925ZM924.299 239.925H925.917V239.454H924.299V239.925ZM934.498 239.925H936.113V239.454H934.498V239.925ZM937.893 239.925H939.511V239.454H937.893V239.925ZM927.701 239.925H929.315V239.454H927.701V239.925ZM944.694 239.925H946.309V239.454H944.694V239.925ZM920.904 239.925H922.518V239.454H920.904V239.925ZM948.089 239.925H949.704V239.454H948.089V239.925ZM931.096 239.925H932.711V239.454H931.096V239.925ZM1050.03 239.925H1051.65V239.454H1050.03V239.925ZM982.072 239.925H983.687V239.454H982.072V239.925ZM1033.05 239.925H1034.66V239.454H1033.05V239.925ZM1039.84 239.925H1041.46V239.454H1039.84V239.925ZM1036.44 239.925H1038.06V239.454H1036.44V239.925ZM1043.24 239.925H1044.86V239.454H1043.24V239.925ZM1046.64 239.925H1048.25V239.454H1046.64V239.925ZM1022.85 239.925H1024.46V239.454H1022.85V239.925ZM1019.45 239.925H1021.07V239.454H1019.45V239.925ZM1029.65 239.925H1031.26V239.454H1029.65V239.925ZM1053.44 239.454V239.925H1055.05V239.454H1053.44ZM1026.25 239.925H1027.87V239.454H1026.25V239.925ZM1005.86 239.925H1007.48V239.454H1005.86V239.925ZM1016.05 239.925H1017.67V239.454H1016.05V239.925ZM999.065 239.925H1000.68V239.454H999.065V239.925ZM992.268 239.925H993.882V239.454H992.268V239.925ZM988.869 239.925H990.484V239.454H988.869V239.925ZM995.663 239.925H997.278V239.454H995.663V239.925ZM1009.26 239.925H1010.87V239.454H1009.26V239.925ZM1002.46 239.925H1004.07V239.454H1002.46V239.925ZM1012.66 239.925H1014.27V239.454H1012.66V239.925ZM985.467 239.925H987.085V239.454H985.467V239.925ZM941.292 239.925H942.906V239.454H941.292V239.925ZM835.732 222.408H835.235V223.896H835.732V222.408ZM835.732 225.544H835.235V227.031H835.732V225.544ZM835.732 219.272H835.235V220.763H835.732V219.272ZM835.732 216.137H835.235V217.628H835.732V216.137ZM835.235 236.435H835.732V234.947H835.235V236.435ZM835.732 231.815H835.235V233.302H835.732V231.815ZM835.732 172.246H835.235V173.737H835.732V172.246ZM835.732 213.001H835.235V214.492H835.732V213.001ZM835.732 228.679H835.235V230.167H835.732V228.679ZM835.732 194.191H835.235V195.679H835.732V194.191ZM835.732 203.595H835.235V205.086H835.732V203.595ZM835.732 191.056H835.235V192.543H835.732V191.056ZM835.732 206.73H835.235V208.221H835.732V206.73ZM835.732 197.327H835.235V198.814H835.732V197.327ZM835.732 209.866H835.235V211.357H835.732V209.866ZM835.732 200.462H835.235V201.95H835.732V200.462ZM843.978 203.816H843.477V205.116H843.978V203.816ZM843.978 201.083H843.477V202.383H843.978V201.083ZM843.978 192.874H843.477V194.167H843.978V192.874ZM843.978 198.344H843.477V199.643H843.978V198.344ZM843.477 224.271H843.978V222.974H843.477V224.271ZM843.978 214.762H843.477V216.062H843.978V214.762ZM843.978 217.502H843.477V218.802H843.978V217.502ZM843.978 220.238H843.477V221.535H843.978V220.238ZM843.978 190.138H843.477V191.438H843.978V190.138ZM843.978 206.553H843.477V207.853H843.978V206.553ZM843.978 209.292H843.477V210.592H843.978V209.292ZM843.978 212.029H843.477V213.322H843.978V212.029ZM843.978 195.611H843.477V196.907H843.978V195.611ZM843.978 173.716H843.477V175.013H843.978V173.716ZM843.978 181.929H843.477V183.229H843.978V181.929ZM826.992 173.668H827.493V172.232H826.992V173.668ZM827.49 208.538H826.989V209.975H827.49V208.538ZM827.49 190.383H826.989V191.82H827.49V190.383ZM826.992 219.051H827.493V217.618H826.992V219.051ZM827.49 211.568H826.989V212.998H827.49V211.568ZM827.49 193.413H826.989V194.846H827.49V193.413ZM827.49 199.463H826.989V200.896H827.49V199.463ZM827.49 205.509H826.989V206.945H827.49V205.509ZM827.49 202.489H826.989V203.925H827.49V202.489ZM827.49 196.436H826.989V197.873H827.49V196.436ZM827.49 214.588H826.989V216.024H827.49V214.588ZM889.238 236.121H891.584V233.899H889.238V236.121ZM891.584 223.241H889.238V225.458H891.584V223.241ZM891.584 228.567H889.238V230.784H891.584V228.567ZM891.584 217.911H889.238V220.129H891.584V217.911ZM679.557 114.986H679.059V116.423H679.557V114.986ZM679.557 111.953H679.059V113.393H679.557V111.953ZM679.557 142.251H679.059V143.684H679.557V142.251ZM679.557 145.281H679.059V146.717H679.557V145.281ZM679.557 139.221H679.059V140.661H679.557V139.221ZM679.557 148.314H679.059V149.751H679.557V148.314ZM679.557 151.337H679.059V152.777H679.557V151.337ZM679.557 124.072H679.059V125.512H679.557V124.072ZM679.557 136.191H679.059V137.628H679.557V136.191ZM679.557 127.102H679.059V128.538H679.557V127.102ZM679.557 130.135H679.059V131.568H679.557V130.135ZM679.557 133.162H679.059V134.601H679.557V133.162ZM626.173 137.874H625.676V139.388H626.173V137.874ZM626.173 144.257H625.676V145.772H626.173V144.257ZM626.173 141.064H625.676V142.579H626.173V141.064ZM625.672 107.473H626.17V105.958H625.672V107.473ZM626.173 153.835H625.676V155.35H626.173V153.835ZM626.173 102.765H625.676V104.279H626.173V102.765ZM626.173 150.638H625.676V152.156H626.173V150.638ZM626.173 147.451H625.676V148.966H626.173V147.451ZM626.173 115.532H625.676V117.05H626.173V115.532ZM626.173 121.912H625.676V123.431H626.173V121.912ZM626.173 118.726H625.676V120.241H626.173V118.726ZM626.173 134.68H625.676V136.198H626.173V134.68ZM626.173 131.49H625.676V133.008H626.173V131.49ZM626.173 128.3H625.676V129.815H626.173V128.3ZM626.173 112.339H625.676V113.853H626.173V112.339ZM626.173 125.109H625.676V126.624H626.173V125.109ZM514.263 104.812H514.76V103.348H514.263V104.812ZM514.263 101.731H514.76V100.267H514.263V101.731ZM514.263 95.5654H514.76V94.1016H514.263V95.5654ZM514.76 109.51H514.263V110.974H514.76V109.51ZM514.263 98.6498H514.76V97.1826H514.263V98.6498ZM514.263 89.4034H514.76V87.9397H514.263V89.4034ZM514.263 92.4844H514.76V91.0207H514.263V92.4844ZM514.76 65.7586H514.263V67.3554H514.76V65.7586ZM514.76 62.3978H514.263V63.9912H514.76V62.3978ZM514.76 52.3223H514.263V53.9191H514.76V52.3223ZM514.76 55.6831H514.263V57.2799H514.76V55.6831ZM514.263 70.7127H514.76V69.1159H514.263V70.7127ZM598.314 9.18163L598.047 8.78585L596.688 9.60812L596.955 10.0039L598.314 9.18163ZM601.172 7.44154L600.905 7.04575L599.546 7.87144L599.817 8.26723L601.172 7.44154ZM606.895 3.96476L606.628 3.56556L605.27 4.39125L605.536 4.78704L606.895 3.96476ZM575.424 23.0956L575.154 22.6998L573.795 23.5255L574.062 23.9213L575.424 23.0956ZM595.449 10.9183L595.182 10.5225L593.823 11.3482L594.093 11.744L595.449 10.9183ZM581.148 19.6188L580.877 19.223L579.522 20.0487L579.792 20.4445L581.148 19.6188ZM584.006 17.8753L583.739 17.4795L582.38 18.3052L582.65 18.701L584.006 17.8753ZM609.753 2.22467L609.486 1.82888L608.128 2.65457L608.394 3.05036L609.753 2.22467ZM578.282 21.3589L578.016 20.9597L576.657 21.7854L576.927 22.1812L578.282 21.3589ZM592.587 12.6584L592.32 12.2626L590.961 13.0883L591.228 13.4841L592.587 12.6584ZM586.867 16.142L586.597 15.7428L585.238 16.5685L585.508 16.9643L586.867 16.142ZM589.729 14.3985L589.459 14.0027L588.103 14.825L588.37 15.2242L589.729 14.3985ZM604.037 5.70144L603.763 5.30566L602.404 6.13135L602.675 6.52713L604.037 5.70144ZM641.227 -16.913L640.961 -17.3087L639.602 -16.4831L639.869 -16.0873L641.227 -16.913ZM638.366 -15.1729L638.092 -15.5686L636.737 -14.7464L637.003 -14.3472L638.366 -15.1729ZM612.618 0.481159L612.348 0.0853729L610.989 0.911064L611.26 1.30685L612.618 0.481159ZM655.532 -25.6066L655.262 -26.0058L653.903 -25.1801L654.173 -24.7843L655.532 -25.6066ZM632.643 -11.6927L632.376 -12.0885L631.017 -11.2628L631.287 -10.867L632.643 -11.6927ZM652.67 -23.8699L652.4 -24.2657L651.041 -23.44L651.315 -23.0442L652.67 -23.8699ZM635.501 -13.4294L635.234 -13.8286L633.875 -13.0029L634.145 -12.6071L635.501 -13.4294ZM618.338 -2.99562L618.068 -3.3914L616.709 -2.56912L616.976 -2.16992L618.338 -2.99562ZM621.2 -4.73571L620.929 -5.1315L619.574 -4.30581L619.841 -3.91002L621.2 -4.73571ZM624.061 -6.47581L623.795 -6.87159L622.436 -6.0459L622.703 -5.65011L624.061 -6.47581ZM626.919 -8.21249L626.653 -8.61168L625.294 -7.78599L625.564 -7.39021L626.919 -8.21249ZM629.785 -9.95258L629.514 -10.3484L628.159 -9.52267L628.426 -9.12689L629.785 -9.95258ZM615.476 -1.25893L615.21 -1.65472L613.851 -0.829029L614.118 -0.433243L615.476 -1.25893ZM526.787 52.6669L526.521 52.2711L525.162 53.0968L525.429 53.4926L526.787 52.6669ZM535.372 47.4501L535.105 47.0543L533.747 47.88L534.013 48.2757L535.372 47.4501ZM521.064 56.1471L520.797 55.7513L519.439 56.5736L519.705 56.9728L521.064 56.1471ZM532.511 49.1867L532.24 48.791L530.885 49.6166L531.152 50.0124L532.511 49.1867ZM518.206 57.8838L517.939 57.488L516.581 58.3137L516.851 58.7095L518.206 57.8838ZM572.563 24.8357L572.292 24.4399L570.934 25.2656L571.204 25.6613L572.563 24.8357ZM523.929 54.407L523.659 54.0112L522.304 54.8369L522.571 55.2327L523.929 54.407ZM643.819 -19.0488L642.46 -18.2231L642.73 -17.8274L644.085 -18.6531L643.819 -19.0488ZM646.677 -20.7855L645.322 -19.9632L645.588 -19.5675L646.947 -20.3897L646.677 -20.7855ZM509.621 63.1041L509.351 62.7049L507.996 63.5306L508.262 63.9264L509.621 63.1041ZM512.483 61.364L512.216 60.9682L510.857 61.7905L511.124 62.1897L512.483 61.364ZM514.263 60.2824V60.6338H514.76V59.9787L515.341 59.6239L515.074 59.2281L514.76 59.4158V59.0405H514.263V59.7194L513.712 60.0538L513.982 60.4496L514.263 60.2824ZM529.649 50.9268L529.379 50.5276L528.02 51.3533L528.287 51.7491L529.649 50.9268ZM561.12 31.7926L560.853 31.3968L559.494 32.2191L559.761 32.6183L561.12 31.7926ZM563.981 30.0559L563.711 29.6602L562.352 30.4858L562.623 30.8816L563.981 30.0559ZM538.23 45.71L537.96 45.3108L536.601 46.1365L536.871 46.5322L538.23 45.71ZM555.396 35.2694L555.13 34.8736L553.771 35.6993L554.045 36.0951L555.396 35.2694ZM566.839 28.3124L566.573 27.9166L565.214 28.7423L565.481 29.1381L566.839 28.3124ZM569.701 26.5757L569.434 26.18L568.076 27.0022L568.342 27.4014L569.701 26.5757ZM558.258 33.5361L557.991 33.1369L556.633 33.9626L556.899 34.3584L558.258 33.5361ZM543.953 42.2298L543.687 41.834L542.328 42.6597L542.598 43.0555L543.953 42.2298ZM541.095 43.9699L540.825 43.5741L539.47 44.3964L539.737 44.7956L541.095 43.9699ZM549.677 38.753L549.406 38.3572L548.051 39.1795L548.318 39.5753L549.677 38.753ZM552.535 37.0129L552.268 36.6171L550.909 37.4428L551.18 37.8386L552.535 37.0129ZM546.812 40.4897L546.545 40.0939L545.186 40.9196L545.46 41.3154L546.812 40.4897Z" fill="#BFAFCF"/>
</mask>
<g mask="url(#mask0_895_318)">
<path d="M21 0H1321V270L21 223.448V0Z" fill="#BFAFCF"/>
</g>
</svg>
