<svg width="47" height="46" viewBox="0 0 47 46" fill="none" xmlns="http://www.w3.org/2000/svg">
<g clip-path="url(#clip0_268_617)">
<path d="M23.4003 45.5795C36.0567 45.5795 46.1015 35.3147 46.1015 22.8359C46.1015 10.1558 35.8558 0.0922852 23.4003 0.0922852C10.744 0.0922852 0.699219 10.3571 0.699219 22.8359C0.699219 35.3147 10.9449 45.5795 23.4003 45.5795Z" fill="#2C374B"/>
<path fill-rule="evenodd" clip-rule="evenodd" d="M35.8555 14.5842C35.6546 14.3829 25.8107 8.54607 24.6053 8.14353C24.2035 7.94226 23.1991 7.74098 22.5964 7.94226C21.9937 8.14353 11.5472 14.1817 11.1454 14.5842C10.9445 14.7855 10.7436 15.188 10.5427 15.3893C10.3418 15.7918 10.3418 15.9931 10.3418 23.0376V30.2833L11.7481 31.0884C12.5516 31.491 13.1543 31.8935 13.1543 31.8935C13.3552 31.8935 22.7973 16.7982 22.7973 16.5969C22.7973 16.3956 20.5874 16.3956 19.9848 16.5969C19.1812 16.7982 18.5785 17.2007 18.1767 17.6033C17.9758 17.8045 16.7704 19.8172 15.1633 22.0312C13.757 24.2452 12.5516 26.2579 12.5516 26.2579C12.5516 26.2579 12.5516 24.2452 12.5516 21.4274V16.3956L12.7525 16.1944C13.1543 15.7918 23.4 9.95497 23.8018 9.95497C24.0027 9.95497 24.2035 9.95497 26.6143 11.3639C27.4179 11.7664 29.6277 12.974 31.4358 14.1817C33.2438 15.188 34.851 16.1944 35.0519 16.3956L35.2528 16.5969V27.063L30.2304 19.2134C30.0295 18.8109 29.8286 18.4083 29.6277 18.2071C29.6277 18.2071 29.4268 18.6096 28.2214 20.6223C28.0205 20.8236 27.8197 21.2261 27.8197 21.4274L27.6188 21.83L27.8197 22.0312L28.0206 22.2325C28.0206 22.2325 28.0205 22.4338 28.2214 22.4338L28.6232 23.0376C28.6232 23.0376 28.6232 23.2388 28.8241 23.2388C29.025 23.4401 29.2259 23.8427 29.2259 24.0439C29.2259 24.0439 29.2259 24.0439 29.2259 24.2452L33.4447 31.0884L33.0429 31.2897C32.842 31.491 32.6411 31.491 32.4402 31.491L27.217 23.4401L27.0161 23.2388L26.6143 24.0439L24.6053 27.2643L28.6232 33.7049C28.0205 34.1075 24.6053 36.5227 24.4044 36.5227C24.2035 36.5227 19.583 33.5037 19.7839 33.3024C19.7839 33.3024 21.1901 30.8871 22.7973 28.0694C24.2035 25.6541 26.0116 22.635 27.217 20.6223C28.6232 18.2071 29.2259 16.9994 29.2259 16.9994C29.2259 16.9994 28.2214 16.9994 27.0161 16.9994H25.0071L20.3865 24.6477C18.7794 27.4655 17.1722 30.0821 16.3686 31.491C14.9624 31.6922 14.5606 32.0948 14.5606 32.0948L14.3597 32.4973L17.9758 34.51C19.9848 35.7176 21.7928 36.724 22.1946 36.9253C22.7973 37.3278 23.8018 37.3278 24.2035 37.3278C24.6053 37.1265 35.0519 31.0884 35.6546 30.6859C35.8554 30.4846 36.0563 30.2833 36.2572 29.8808L36.4581 29.277V22.635V15.9931L36.2572 15.5906C36.2572 15.188 35.8555 14.7855 35.8555 14.5842Z" fill="white"/>
<path d="M34.85 26.8615L28.8231 17.603L26.6133 21.2259L32.4392 30.6856L35.0509 29.478L34.85 26.8615Z" fill="#24A2EE"/>
<path d="M32.0389 31.8932L26.012 22.6348L23.4004 26.6602L28.2219 34.3085L31.2353 33.1009L32.0389 31.8932Z" fill="#24A2EE"/>
<path fill-rule="evenodd" clip-rule="evenodd" d="M12.3505 16.3953L23.3997 9.95468L34.4489 16.3953V29.2767L23.3997 35.7174L15.163 31.0881L14.1585 32.8996L23.1988 38.1326C23.3997 38.3339 23.6006 38.3339 23.8015 38.1326L36.4579 30.8869C36.6587 30.6856 36.8596 30.4843 36.8596 30.283V15.7915C36.8596 15.5903 36.6587 15.389 36.4579 15.1877L23.8015 7.94197C23.6006 7.7407 23.3997 7.7407 23.1988 7.94197L10.5424 14.9865C10.3415 15.1877 10.1406 15.389 10.1406 15.5903V30.0818C10.1406 30.2831 10.3415 30.4843 10.5424 30.6856L13.154 32.0945L14.3594 30.283L12.5514 29.2767V16.3953H12.3505Z" fill="#98BCDC"/>
<path d="M28.2208 16.3955H24.0021L14.1582 32.4972L17.5734 34.5099L28.2208 16.3955Z" fill="white"/>
<path d="M17.5737 18.0057C18.5782 16.3955 21.3907 16.3955 22.5961 16.5968L12.9532 32.0947C12.5514 31.8934 11.7478 31.4908 11.1451 31.0883C10.3415 30.6858 10.1406 30.6858 10.1406 30.0819V29.2769C12.3505 26.0565 16.5693 19.6158 17.5737 18.0057Z" fill="white"/>
</g>
<defs>
<clipPath id="clip0_268_617">
<rect width="46" height="46" fill="white" transform="translate(0.5)"/>
</clipPath>
</defs>
</svg>
