<svg width="50" height="50" viewBox="0 0 50 50" fill="none" xmlns="http://www.w3.org/2000/svg">
<path d="M17.8401 26.9855L19.3401 29.5836L30.5363 22.8874L32.0363 25.4855L34.6343 23.9855L33.1343 21.3874L35.7324 19.8874L34.2324 17.2893L31.6343 18.7893L30.1343 16.1913L27.5363 17.6913L29.0363 20.2893L17.8401 26.9855ZM23.4382 16.5932L26.0363 15.0932L27.5363 17.6913L24.9382 19.1913L23.4382 16.5932ZM23.4382 16.5932L20.8401 18.0932L19.3401 15.4951L21.9382 13.9951L23.4382 16.5932ZM30.9382 29.5836L33.5363 28.0836L32.0363 25.4855L29.4382 26.9855L30.9382 29.5836ZM30.9382 29.5836L28.3401 31.0836L29.8401 33.6816L32.4382 32.1816L30.9382 29.5836Z" fill="black"/>
</svg>
