<svg width="70" height="70" viewBox="0 0 70 70" fill="none" xmlns="http://www.w3.org/2000/svg">
<path d="M36.459 8.75H33.5423C20.4805 8.75 13.9496 8.75 9.89177 12.8078C5.83398 16.8656 5.83398 23.3965 5.83398 36.4583C5.83398 49.52 5.83398 56.051 9.89177 60.109C13.9496 64.1667 20.4805 64.1667 33.5423 64.1667C46.604 64.1667 53.135 64.1667 57.193 60.109C61.2507 56.051 61.2507 49.52 61.2507 36.4583V33.5417" stroke="#141B34" stroke-width="0.8" stroke-linecap="round"/>
<path d="M64.1667 16.0418C64.1667 21.6797 59.5962 26.2502 53.9583 26.2502C48.3204 26.2502 43.75 21.6797 43.75 16.0418C43.75 10.4039 48.3204 5.8335 53.9583 5.8335C59.5962 5.8335 64.1667 10.4039 64.1667 16.0418Z" stroke="#141B34" stroke-width="0.8"/>
<path d="M20.416 32.0835H32.0827" stroke="#141B34" stroke-width="0.8" stroke-linecap="round" stroke-linejoin="round"/>
<path d="M20.416 46.6665H43.7493" stroke="#141B34" stroke-width="0.8" stroke-linecap="round" stroke-linejoin="round"/>
</svg>
